G75*
%MOIN*%
%OFA0B0*%
%FSLAX25Y25*%
%IPPOS*%
%LPD*%
%AMOC8*
5,1,8,0,0,1.08239X$1,22.5*
%
%ADD10C,0.00000*%
%ADD11R,0.05512X0.08661*%
%ADD12R,0.06299X0.07087*%
%ADD13R,0.07087X0.06299*%
%ADD14R,0.03543X0.03740*%
%ADD15R,0.02600X0.08000*%
D10*
X0027500Y0001000D02*
X0027500Y0245961D01*
X0192500Y0246000D01*
X0192500Y0001000D01*
X0027500Y0001000D01*
X0104271Y0011000D02*
X0104273Y0011153D01*
X0104279Y0011307D01*
X0104289Y0011460D01*
X0104303Y0011612D01*
X0104321Y0011765D01*
X0104343Y0011916D01*
X0104368Y0012067D01*
X0104398Y0012218D01*
X0104432Y0012368D01*
X0104469Y0012516D01*
X0104510Y0012664D01*
X0104555Y0012810D01*
X0104604Y0012956D01*
X0104657Y0013100D01*
X0104713Y0013242D01*
X0104773Y0013383D01*
X0104837Y0013523D01*
X0104904Y0013661D01*
X0104975Y0013797D01*
X0105050Y0013931D01*
X0105127Y0014063D01*
X0105209Y0014193D01*
X0105293Y0014321D01*
X0105381Y0014447D01*
X0105472Y0014570D01*
X0105566Y0014691D01*
X0105664Y0014809D01*
X0105764Y0014925D01*
X0105868Y0015038D01*
X0105974Y0015149D01*
X0106083Y0015257D01*
X0106195Y0015362D01*
X0106309Y0015463D01*
X0106427Y0015562D01*
X0106546Y0015658D01*
X0106668Y0015751D01*
X0106793Y0015840D01*
X0106920Y0015927D01*
X0107049Y0016009D01*
X0107180Y0016089D01*
X0107313Y0016165D01*
X0107448Y0016238D01*
X0107585Y0016307D01*
X0107724Y0016372D01*
X0107864Y0016434D01*
X0108006Y0016492D01*
X0108149Y0016547D01*
X0108294Y0016598D01*
X0108440Y0016645D01*
X0108587Y0016688D01*
X0108735Y0016727D01*
X0108884Y0016763D01*
X0109034Y0016794D01*
X0109185Y0016822D01*
X0109336Y0016846D01*
X0109489Y0016866D01*
X0109641Y0016882D01*
X0109794Y0016894D01*
X0109947Y0016902D01*
X0110100Y0016906D01*
X0110254Y0016906D01*
X0110407Y0016902D01*
X0110560Y0016894D01*
X0110713Y0016882D01*
X0110865Y0016866D01*
X0111018Y0016846D01*
X0111169Y0016822D01*
X0111320Y0016794D01*
X0111470Y0016763D01*
X0111619Y0016727D01*
X0111767Y0016688D01*
X0111914Y0016645D01*
X0112060Y0016598D01*
X0112205Y0016547D01*
X0112348Y0016492D01*
X0112490Y0016434D01*
X0112630Y0016372D01*
X0112769Y0016307D01*
X0112906Y0016238D01*
X0113041Y0016165D01*
X0113174Y0016089D01*
X0113305Y0016009D01*
X0113434Y0015927D01*
X0113561Y0015840D01*
X0113686Y0015751D01*
X0113808Y0015658D01*
X0113927Y0015562D01*
X0114045Y0015463D01*
X0114159Y0015362D01*
X0114271Y0015257D01*
X0114380Y0015149D01*
X0114486Y0015038D01*
X0114590Y0014925D01*
X0114690Y0014809D01*
X0114788Y0014691D01*
X0114882Y0014570D01*
X0114973Y0014447D01*
X0115061Y0014321D01*
X0115145Y0014193D01*
X0115227Y0014063D01*
X0115304Y0013931D01*
X0115379Y0013797D01*
X0115450Y0013661D01*
X0115517Y0013523D01*
X0115581Y0013383D01*
X0115641Y0013242D01*
X0115697Y0013100D01*
X0115750Y0012956D01*
X0115799Y0012810D01*
X0115844Y0012664D01*
X0115885Y0012516D01*
X0115922Y0012368D01*
X0115956Y0012218D01*
X0115986Y0012067D01*
X0116011Y0011916D01*
X0116033Y0011765D01*
X0116051Y0011612D01*
X0116065Y0011460D01*
X0116075Y0011307D01*
X0116081Y0011153D01*
X0116083Y0011000D01*
X0116081Y0010847D01*
X0116075Y0010693D01*
X0116065Y0010540D01*
X0116051Y0010388D01*
X0116033Y0010235D01*
X0116011Y0010084D01*
X0115986Y0009933D01*
X0115956Y0009782D01*
X0115922Y0009632D01*
X0115885Y0009484D01*
X0115844Y0009336D01*
X0115799Y0009190D01*
X0115750Y0009044D01*
X0115697Y0008900D01*
X0115641Y0008758D01*
X0115581Y0008617D01*
X0115517Y0008477D01*
X0115450Y0008339D01*
X0115379Y0008203D01*
X0115304Y0008069D01*
X0115227Y0007937D01*
X0115145Y0007807D01*
X0115061Y0007679D01*
X0114973Y0007553D01*
X0114882Y0007430D01*
X0114788Y0007309D01*
X0114690Y0007191D01*
X0114590Y0007075D01*
X0114486Y0006962D01*
X0114380Y0006851D01*
X0114271Y0006743D01*
X0114159Y0006638D01*
X0114045Y0006537D01*
X0113927Y0006438D01*
X0113808Y0006342D01*
X0113686Y0006249D01*
X0113561Y0006160D01*
X0113434Y0006073D01*
X0113305Y0005991D01*
X0113174Y0005911D01*
X0113041Y0005835D01*
X0112906Y0005762D01*
X0112769Y0005693D01*
X0112630Y0005628D01*
X0112490Y0005566D01*
X0112348Y0005508D01*
X0112205Y0005453D01*
X0112060Y0005402D01*
X0111914Y0005355D01*
X0111767Y0005312D01*
X0111619Y0005273D01*
X0111470Y0005237D01*
X0111320Y0005206D01*
X0111169Y0005178D01*
X0111018Y0005154D01*
X0110865Y0005134D01*
X0110713Y0005118D01*
X0110560Y0005106D01*
X0110407Y0005098D01*
X0110254Y0005094D01*
X0110100Y0005094D01*
X0109947Y0005098D01*
X0109794Y0005106D01*
X0109641Y0005118D01*
X0109489Y0005134D01*
X0109336Y0005154D01*
X0109185Y0005178D01*
X0109034Y0005206D01*
X0108884Y0005237D01*
X0108735Y0005273D01*
X0108587Y0005312D01*
X0108440Y0005355D01*
X0108294Y0005402D01*
X0108149Y0005453D01*
X0108006Y0005508D01*
X0107864Y0005566D01*
X0107724Y0005628D01*
X0107585Y0005693D01*
X0107448Y0005762D01*
X0107313Y0005835D01*
X0107180Y0005911D01*
X0107049Y0005991D01*
X0106920Y0006073D01*
X0106793Y0006160D01*
X0106668Y0006249D01*
X0106546Y0006342D01*
X0106427Y0006438D01*
X0106309Y0006537D01*
X0106195Y0006638D01*
X0106083Y0006743D01*
X0105974Y0006851D01*
X0105868Y0006962D01*
X0105764Y0007075D01*
X0105664Y0007191D01*
X0105566Y0007309D01*
X0105472Y0007430D01*
X0105381Y0007553D01*
X0105293Y0007679D01*
X0105209Y0007807D01*
X0105127Y0007937D01*
X0105050Y0008069D01*
X0104975Y0008203D01*
X0104904Y0008339D01*
X0104837Y0008477D01*
X0104773Y0008617D01*
X0104713Y0008758D01*
X0104657Y0008900D01*
X0104604Y0009044D01*
X0104555Y0009190D01*
X0104510Y0009336D01*
X0104469Y0009484D01*
X0104432Y0009632D01*
X0104398Y0009782D01*
X0104368Y0009933D01*
X0104343Y0010084D01*
X0104321Y0010235D01*
X0104303Y0010388D01*
X0104289Y0010540D01*
X0104279Y0010693D01*
X0104273Y0010847D01*
X0104271Y0011000D01*
X0104271Y0235055D02*
X0104273Y0235208D01*
X0104279Y0235362D01*
X0104289Y0235515D01*
X0104303Y0235667D01*
X0104321Y0235820D01*
X0104343Y0235971D01*
X0104368Y0236122D01*
X0104398Y0236273D01*
X0104432Y0236423D01*
X0104469Y0236571D01*
X0104510Y0236719D01*
X0104555Y0236865D01*
X0104604Y0237011D01*
X0104657Y0237155D01*
X0104713Y0237297D01*
X0104773Y0237438D01*
X0104837Y0237578D01*
X0104904Y0237716D01*
X0104975Y0237852D01*
X0105050Y0237986D01*
X0105127Y0238118D01*
X0105209Y0238248D01*
X0105293Y0238376D01*
X0105381Y0238502D01*
X0105472Y0238625D01*
X0105566Y0238746D01*
X0105664Y0238864D01*
X0105764Y0238980D01*
X0105868Y0239093D01*
X0105974Y0239204D01*
X0106083Y0239312D01*
X0106195Y0239417D01*
X0106309Y0239518D01*
X0106427Y0239617D01*
X0106546Y0239713D01*
X0106668Y0239806D01*
X0106793Y0239895D01*
X0106920Y0239982D01*
X0107049Y0240064D01*
X0107180Y0240144D01*
X0107313Y0240220D01*
X0107448Y0240293D01*
X0107585Y0240362D01*
X0107724Y0240427D01*
X0107864Y0240489D01*
X0108006Y0240547D01*
X0108149Y0240602D01*
X0108294Y0240653D01*
X0108440Y0240700D01*
X0108587Y0240743D01*
X0108735Y0240782D01*
X0108884Y0240818D01*
X0109034Y0240849D01*
X0109185Y0240877D01*
X0109336Y0240901D01*
X0109489Y0240921D01*
X0109641Y0240937D01*
X0109794Y0240949D01*
X0109947Y0240957D01*
X0110100Y0240961D01*
X0110254Y0240961D01*
X0110407Y0240957D01*
X0110560Y0240949D01*
X0110713Y0240937D01*
X0110865Y0240921D01*
X0111018Y0240901D01*
X0111169Y0240877D01*
X0111320Y0240849D01*
X0111470Y0240818D01*
X0111619Y0240782D01*
X0111767Y0240743D01*
X0111914Y0240700D01*
X0112060Y0240653D01*
X0112205Y0240602D01*
X0112348Y0240547D01*
X0112490Y0240489D01*
X0112630Y0240427D01*
X0112769Y0240362D01*
X0112906Y0240293D01*
X0113041Y0240220D01*
X0113174Y0240144D01*
X0113305Y0240064D01*
X0113434Y0239982D01*
X0113561Y0239895D01*
X0113686Y0239806D01*
X0113808Y0239713D01*
X0113927Y0239617D01*
X0114045Y0239518D01*
X0114159Y0239417D01*
X0114271Y0239312D01*
X0114380Y0239204D01*
X0114486Y0239093D01*
X0114590Y0238980D01*
X0114690Y0238864D01*
X0114788Y0238746D01*
X0114882Y0238625D01*
X0114973Y0238502D01*
X0115061Y0238376D01*
X0115145Y0238248D01*
X0115227Y0238118D01*
X0115304Y0237986D01*
X0115379Y0237852D01*
X0115450Y0237716D01*
X0115517Y0237578D01*
X0115581Y0237438D01*
X0115641Y0237297D01*
X0115697Y0237155D01*
X0115750Y0237011D01*
X0115799Y0236865D01*
X0115844Y0236719D01*
X0115885Y0236571D01*
X0115922Y0236423D01*
X0115956Y0236273D01*
X0115986Y0236122D01*
X0116011Y0235971D01*
X0116033Y0235820D01*
X0116051Y0235667D01*
X0116065Y0235515D01*
X0116075Y0235362D01*
X0116081Y0235208D01*
X0116083Y0235055D01*
X0116081Y0234902D01*
X0116075Y0234748D01*
X0116065Y0234595D01*
X0116051Y0234443D01*
X0116033Y0234290D01*
X0116011Y0234139D01*
X0115986Y0233988D01*
X0115956Y0233837D01*
X0115922Y0233687D01*
X0115885Y0233539D01*
X0115844Y0233391D01*
X0115799Y0233245D01*
X0115750Y0233099D01*
X0115697Y0232955D01*
X0115641Y0232813D01*
X0115581Y0232672D01*
X0115517Y0232532D01*
X0115450Y0232394D01*
X0115379Y0232258D01*
X0115304Y0232124D01*
X0115227Y0231992D01*
X0115145Y0231862D01*
X0115061Y0231734D01*
X0114973Y0231608D01*
X0114882Y0231485D01*
X0114788Y0231364D01*
X0114690Y0231246D01*
X0114590Y0231130D01*
X0114486Y0231017D01*
X0114380Y0230906D01*
X0114271Y0230798D01*
X0114159Y0230693D01*
X0114045Y0230592D01*
X0113927Y0230493D01*
X0113808Y0230397D01*
X0113686Y0230304D01*
X0113561Y0230215D01*
X0113434Y0230128D01*
X0113305Y0230046D01*
X0113174Y0229966D01*
X0113041Y0229890D01*
X0112906Y0229817D01*
X0112769Y0229748D01*
X0112630Y0229683D01*
X0112490Y0229621D01*
X0112348Y0229563D01*
X0112205Y0229508D01*
X0112060Y0229457D01*
X0111914Y0229410D01*
X0111767Y0229367D01*
X0111619Y0229328D01*
X0111470Y0229292D01*
X0111320Y0229261D01*
X0111169Y0229233D01*
X0111018Y0229209D01*
X0110865Y0229189D01*
X0110713Y0229173D01*
X0110560Y0229161D01*
X0110407Y0229153D01*
X0110254Y0229149D01*
X0110100Y0229149D01*
X0109947Y0229153D01*
X0109794Y0229161D01*
X0109641Y0229173D01*
X0109489Y0229189D01*
X0109336Y0229209D01*
X0109185Y0229233D01*
X0109034Y0229261D01*
X0108884Y0229292D01*
X0108735Y0229328D01*
X0108587Y0229367D01*
X0108440Y0229410D01*
X0108294Y0229457D01*
X0108149Y0229508D01*
X0108006Y0229563D01*
X0107864Y0229621D01*
X0107724Y0229683D01*
X0107585Y0229748D01*
X0107448Y0229817D01*
X0107313Y0229890D01*
X0107180Y0229966D01*
X0107049Y0230046D01*
X0106920Y0230128D01*
X0106793Y0230215D01*
X0106668Y0230304D01*
X0106546Y0230397D01*
X0106427Y0230493D01*
X0106309Y0230592D01*
X0106195Y0230693D01*
X0106083Y0230798D01*
X0105974Y0230906D01*
X0105868Y0231017D01*
X0105764Y0231130D01*
X0105664Y0231246D01*
X0105566Y0231364D01*
X0105472Y0231485D01*
X0105381Y0231608D01*
X0105293Y0231734D01*
X0105209Y0231862D01*
X0105127Y0231992D01*
X0105050Y0232124D01*
X0104975Y0232258D01*
X0104904Y0232394D01*
X0104837Y0232532D01*
X0104773Y0232672D01*
X0104713Y0232813D01*
X0104657Y0232955D01*
X0104604Y0233099D01*
X0104555Y0233245D01*
X0104510Y0233391D01*
X0104469Y0233539D01*
X0104432Y0233687D01*
X0104398Y0233837D01*
X0104368Y0233988D01*
X0104343Y0234139D01*
X0104321Y0234290D01*
X0104303Y0234443D01*
X0104289Y0234595D01*
X0104279Y0234748D01*
X0104273Y0234902D01*
X0104271Y0235055D01*
D11*
X0062500Y0197299D03*
X0062500Y0184701D03*
D12*
X0069488Y0211000D03*
X0069488Y0221000D03*
X0080512Y0221000D03*
X0080512Y0211000D03*
X0080512Y0152250D03*
X0069488Y0152250D03*
X0073012Y0091000D03*
X0073012Y0081000D03*
X0073012Y0071000D03*
X0073012Y0061000D03*
X0073012Y0051000D03*
X0061988Y0051000D03*
X0061988Y0061000D03*
X0061988Y0071000D03*
X0061988Y0081000D03*
X0061988Y0091000D03*
X0126988Y0061000D03*
X0126988Y0051000D03*
X0138012Y0051000D03*
X0138012Y0061000D03*
X0169488Y0151000D03*
X0180512Y0151000D03*
D13*
X0085000Y0170488D03*
X0085000Y0181512D03*
X0075000Y0181512D03*
X0075000Y0170488D03*
D14*
X0126299Y0041000D03*
X0138701Y0041000D03*
D15*
X0117500Y0126400D03*
X0112500Y0126400D03*
X0107500Y0126400D03*
X0102500Y0126400D03*
X0097500Y0126400D03*
X0092500Y0126400D03*
X0087500Y0126400D03*
X0087500Y0150600D03*
X0092500Y0150600D03*
X0097500Y0150600D03*
X0102500Y0150600D03*
X0107500Y0150600D03*
X0112500Y0150600D03*
X0117500Y0150600D03*
M02*
