G75*
%MOIN*%
%OFA0B0*%
%FSLAX25Y25*%
%IPPOS*%
%LPD*%
%AMOC8*
5,1,8,0,0,1.08239X$1,22.5*
%
%ADD10C,0.00000*%
%ADD11C,0.00300*%
%ADD12C,0.00600*%
%ADD13C,0.00200*%
%ADD14C,0.00400*%
%ADD15C,0.00100*%
%ADD16C,0.00800*%
%ADD17C,0.00500*%
%ADD18C,0.03000*%
%ADD19R,0.02000X0.03000*%
%ADD20R,0.04000X0.03000*%
%ADD21R,0.02000X0.02000*%
%ADD22R,0.07500X0.06000*%
D10*
X0027500Y0001000D02*
X0027500Y0245961D01*
X0192500Y0246000D01*
X0192500Y0001000D01*
X0027500Y0001000D01*
X0104271Y0011000D02*
X0104273Y0011153D01*
X0104279Y0011307D01*
X0104289Y0011460D01*
X0104303Y0011612D01*
X0104321Y0011765D01*
X0104343Y0011916D01*
X0104368Y0012067D01*
X0104398Y0012218D01*
X0104432Y0012368D01*
X0104469Y0012516D01*
X0104510Y0012664D01*
X0104555Y0012810D01*
X0104604Y0012956D01*
X0104657Y0013100D01*
X0104713Y0013242D01*
X0104773Y0013383D01*
X0104837Y0013523D01*
X0104904Y0013661D01*
X0104975Y0013797D01*
X0105050Y0013931D01*
X0105127Y0014063D01*
X0105209Y0014193D01*
X0105293Y0014321D01*
X0105381Y0014447D01*
X0105472Y0014570D01*
X0105566Y0014691D01*
X0105664Y0014809D01*
X0105764Y0014925D01*
X0105868Y0015038D01*
X0105974Y0015149D01*
X0106083Y0015257D01*
X0106195Y0015362D01*
X0106309Y0015463D01*
X0106427Y0015562D01*
X0106546Y0015658D01*
X0106668Y0015751D01*
X0106793Y0015840D01*
X0106920Y0015927D01*
X0107049Y0016009D01*
X0107180Y0016089D01*
X0107313Y0016165D01*
X0107448Y0016238D01*
X0107585Y0016307D01*
X0107724Y0016372D01*
X0107864Y0016434D01*
X0108006Y0016492D01*
X0108149Y0016547D01*
X0108294Y0016598D01*
X0108440Y0016645D01*
X0108587Y0016688D01*
X0108735Y0016727D01*
X0108884Y0016763D01*
X0109034Y0016794D01*
X0109185Y0016822D01*
X0109336Y0016846D01*
X0109489Y0016866D01*
X0109641Y0016882D01*
X0109794Y0016894D01*
X0109947Y0016902D01*
X0110100Y0016906D01*
X0110254Y0016906D01*
X0110407Y0016902D01*
X0110560Y0016894D01*
X0110713Y0016882D01*
X0110865Y0016866D01*
X0111018Y0016846D01*
X0111169Y0016822D01*
X0111320Y0016794D01*
X0111470Y0016763D01*
X0111619Y0016727D01*
X0111767Y0016688D01*
X0111914Y0016645D01*
X0112060Y0016598D01*
X0112205Y0016547D01*
X0112348Y0016492D01*
X0112490Y0016434D01*
X0112630Y0016372D01*
X0112769Y0016307D01*
X0112906Y0016238D01*
X0113041Y0016165D01*
X0113174Y0016089D01*
X0113305Y0016009D01*
X0113434Y0015927D01*
X0113561Y0015840D01*
X0113686Y0015751D01*
X0113808Y0015658D01*
X0113927Y0015562D01*
X0114045Y0015463D01*
X0114159Y0015362D01*
X0114271Y0015257D01*
X0114380Y0015149D01*
X0114486Y0015038D01*
X0114590Y0014925D01*
X0114690Y0014809D01*
X0114788Y0014691D01*
X0114882Y0014570D01*
X0114973Y0014447D01*
X0115061Y0014321D01*
X0115145Y0014193D01*
X0115227Y0014063D01*
X0115304Y0013931D01*
X0115379Y0013797D01*
X0115450Y0013661D01*
X0115517Y0013523D01*
X0115581Y0013383D01*
X0115641Y0013242D01*
X0115697Y0013100D01*
X0115750Y0012956D01*
X0115799Y0012810D01*
X0115844Y0012664D01*
X0115885Y0012516D01*
X0115922Y0012368D01*
X0115956Y0012218D01*
X0115986Y0012067D01*
X0116011Y0011916D01*
X0116033Y0011765D01*
X0116051Y0011612D01*
X0116065Y0011460D01*
X0116075Y0011307D01*
X0116081Y0011153D01*
X0116083Y0011000D01*
X0116081Y0010847D01*
X0116075Y0010693D01*
X0116065Y0010540D01*
X0116051Y0010388D01*
X0116033Y0010235D01*
X0116011Y0010084D01*
X0115986Y0009933D01*
X0115956Y0009782D01*
X0115922Y0009632D01*
X0115885Y0009484D01*
X0115844Y0009336D01*
X0115799Y0009190D01*
X0115750Y0009044D01*
X0115697Y0008900D01*
X0115641Y0008758D01*
X0115581Y0008617D01*
X0115517Y0008477D01*
X0115450Y0008339D01*
X0115379Y0008203D01*
X0115304Y0008069D01*
X0115227Y0007937D01*
X0115145Y0007807D01*
X0115061Y0007679D01*
X0114973Y0007553D01*
X0114882Y0007430D01*
X0114788Y0007309D01*
X0114690Y0007191D01*
X0114590Y0007075D01*
X0114486Y0006962D01*
X0114380Y0006851D01*
X0114271Y0006743D01*
X0114159Y0006638D01*
X0114045Y0006537D01*
X0113927Y0006438D01*
X0113808Y0006342D01*
X0113686Y0006249D01*
X0113561Y0006160D01*
X0113434Y0006073D01*
X0113305Y0005991D01*
X0113174Y0005911D01*
X0113041Y0005835D01*
X0112906Y0005762D01*
X0112769Y0005693D01*
X0112630Y0005628D01*
X0112490Y0005566D01*
X0112348Y0005508D01*
X0112205Y0005453D01*
X0112060Y0005402D01*
X0111914Y0005355D01*
X0111767Y0005312D01*
X0111619Y0005273D01*
X0111470Y0005237D01*
X0111320Y0005206D01*
X0111169Y0005178D01*
X0111018Y0005154D01*
X0110865Y0005134D01*
X0110713Y0005118D01*
X0110560Y0005106D01*
X0110407Y0005098D01*
X0110254Y0005094D01*
X0110100Y0005094D01*
X0109947Y0005098D01*
X0109794Y0005106D01*
X0109641Y0005118D01*
X0109489Y0005134D01*
X0109336Y0005154D01*
X0109185Y0005178D01*
X0109034Y0005206D01*
X0108884Y0005237D01*
X0108735Y0005273D01*
X0108587Y0005312D01*
X0108440Y0005355D01*
X0108294Y0005402D01*
X0108149Y0005453D01*
X0108006Y0005508D01*
X0107864Y0005566D01*
X0107724Y0005628D01*
X0107585Y0005693D01*
X0107448Y0005762D01*
X0107313Y0005835D01*
X0107180Y0005911D01*
X0107049Y0005991D01*
X0106920Y0006073D01*
X0106793Y0006160D01*
X0106668Y0006249D01*
X0106546Y0006342D01*
X0106427Y0006438D01*
X0106309Y0006537D01*
X0106195Y0006638D01*
X0106083Y0006743D01*
X0105974Y0006851D01*
X0105868Y0006962D01*
X0105764Y0007075D01*
X0105664Y0007191D01*
X0105566Y0007309D01*
X0105472Y0007430D01*
X0105381Y0007553D01*
X0105293Y0007679D01*
X0105209Y0007807D01*
X0105127Y0007937D01*
X0105050Y0008069D01*
X0104975Y0008203D01*
X0104904Y0008339D01*
X0104837Y0008477D01*
X0104773Y0008617D01*
X0104713Y0008758D01*
X0104657Y0008900D01*
X0104604Y0009044D01*
X0104555Y0009190D01*
X0104510Y0009336D01*
X0104469Y0009484D01*
X0104432Y0009632D01*
X0104398Y0009782D01*
X0104368Y0009933D01*
X0104343Y0010084D01*
X0104321Y0010235D01*
X0104303Y0010388D01*
X0104289Y0010540D01*
X0104279Y0010693D01*
X0104273Y0010847D01*
X0104271Y0011000D01*
X0104271Y0235055D02*
X0104273Y0235208D01*
X0104279Y0235362D01*
X0104289Y0235515D01*
X0104303Y0235667D01*
X0104321Y0235820D01*
X0104343Y0235971D01*
X0104368Y0236122D01*
X0104398Y0236273D01*
X0104432Y0236423D01*
X0104469Y0236571D01*
X0104510Y0236719D01*
X0104555Y0236865D01*
X0104604Y0237011D01*
X0104657Y0237155D01*
X0104713Y0237297D01*
X0104773Y0237438D01*
X0104837Y0237578D01*
X0104904Y0237716D01*
X0104975Y0237852D01*
X0105050Y0237986D01*
X0105127Y0238118D01*
X0105209Y0238248D01*
X0105293Y0238376D01*
X0105381Y0238502D01*
X0105472Y0238625D01*
X0105566Y0238746D01*
X0105664Y0238864D01*
X0105764Y0238980D01*
X0105868Y0239093D01*
X0105974Y0239204D01*
X0106083Y0239312D01*
X0106195Y0239417D01*
X0106309Y0239518D01*
X0106427Y0239617D01*
X0106546Y0239713D01*
X0106668Y0239806D01*
X0106793Y0239895D01*
X0106920Y0239982D01*
X0107049Y0240064D01*
X0107180Y0240144D01*
X0107313Y0240220D01*
X0107448Y0240293D01*
X0107585Y0240362D01*
X0107724Y0240427D01*
X0107864Y0240489D01*
X0108006Y0240547D01*
X0108149Y0240602D01*
X0108294Y0240653D01*
X0108440Y0240700D01*
X0108587Y0240743D01*
X0108735Y0240782D01*
X0108884Y0240818D01*
X0109034Y0240849D01*
X0109185Y0240877D01*
X0109336Y0240901D01*
X0109489Y0240921D01*
X0109641Y0240937D01*
X0109794Y0240949D01*
X0109947Y0240957D01*
X0110100Y0240961D01*
X0110254Y0240961D01*
X0110407Y0240957D01*
X0110560Y0240949D01*
X0110713Y0240937D01*
X0110865Y0240921D01*
X0111018Y0240901D01*
X0111169Y0240877D01*
X0111320Y0240849D01*
X0111470Y0240818D01*
X0111619Y0240782D01*
X0111767Y0240743D01*
X0111914Y0240700D01*
X0112060Y0240653D01*
X0112205Y0240602D01*
X0112348Y0240547D01*
X0112490Y0240489D01*
X0112630Y0240427D01*
X0112769Y0240362D01*
X0112906Y0240293D01*
X0113041Y0240220D01*
X0113174Y0240144D01*
X0113305Y0240064D01*
X0113434Y0239982D01*
X0113561Y0239895D01*
X0113686Y0239806D01*
X0113808Y0239713D01*
X0113927Y0239617D01*
X0114045Y0239518D01*
X0114159Y0239417D01*
X0114271Y0239312D01*
X0114380Y0239204D01*
X0114486Y0239093D01*
X0114590Y0238980D01*
X0114690Y0238864D01*
X0114788Y0238746D01*
X0114882Y0238625D01*
X0114973Y0238502D01*
X0115061Y0238376D01*
X0115145Y0238248D01*
X0115227Y0238118D01*
X0115304Y0237986D01*
X0115379Y0237852D01*
X0115450Y0237716D01*
X0115517Y0237578D01*
X0115581Y0237438D01*
X0115641Y0237297D01*
X0115697Y0237155D01*
X0115750Y0237011D01*
X0115799Y0236865D01*
X0115844Y0236719D01*
X0115885Y0236571D01*
X0115922Y0236423D01*
X0115956Y0236273D01*
X0115986Y0236122D01*
X0116011Y0235971D01*
X0116033Y0235820D01*
X0116051Y0235667D01*
X0116065Y0235515D01*
X0116075Y0235362D01*
X0116081Y0235208D01*
X0116083Y0235055D01*
X0116081Y0234902D01*
X0116075Y0234748D01*
X0116065Y0234595D01*
X0116051Y0234443D01*
X0116033Y0234290D01*
X0116011Y0234139D01*
X0115986Y0233988D01*
X0115956Y0233837D01*
X0115922Y0233687D01*
X0115885Y0233539D01*
X0115844Y0233391D01*
X0115799Y0233245D01*
X0115750Y0233099D01*
X0115697Y0232955D01*
X0115641Y0232813D01*
X0115581Y0232672D01*
X0115517Y0232532D01*
X0115450Y0232394D01*
X0115379Y0232258D01*
X0115304Y0232124D01*
X0115227Y0231992D01*
X0115145Y0231862D01*
X0115061Y0231734D01*
X0114973Y0231608D01*
X0114882Y0231485D01*
X0114788Y0231364D01*
X0114690Y0231246D01*
X0114590Y0231130D01*
X0114486Y0231017D01*
X0114380Y0230906D01*
X0114271Y0230798D01*
X0114159Y0230693D01*
X0114045Y0230592D01*
X0113927Y0230493D01*
X0113808Y0230397D01*
X0113686Y0230304D01*
X0113561Y0230215D01*
X0113434Y0230128D01*
X0113305Y0230046D01*
X0113174Y0229966D01*
X0113041Y0229890D01*
X0112906Y0229817D01*
X0112769Y0229748D01*
X0112630Y0229683D01*
X0112490Y0229621D01*
X0112348Y0229563D01*
X0112205Y0229508D01*
X0112060Y0229457D01*
X0111914Y0229410D01*
X0111767Y0229367D01*
X0111619Y0229328D01*
X0111470Y0229292D01*
X0111320Y0229261D01*
X0111169Y0229233D01*
X0111018Y0229209D01*
X0110865Y0229189D01*
X0110713Y0229173D01*
X0110560Y0229161D01*
X0110407Y0229153D01*
X0110254Y0229149D01*
X0110100Y0229149D01*
X0109947Y0229153D01*
X0109794Y0229161D01*
X0109641Y0229173D01*
X0109489Y0229189D01*
X0109336Y0229209D01*
X0109185Y0229233D01*
X0109034Y0229261D01*
X0108884Y0229292D01*
X0108735Y0229328D01*
X0108587Y0229367D01*
X0108440Y0229410D01*
X0108294Y0229457D01*
X0108149Y0229508D01*
X0108006Y0229563D01*
X0107864Y0229621D01*
X0107724Y0229683D01*
X0107585Y0229748D01*
X0107448Y0229817D01*
X0107313Y0229890D01*
X0107180Y0229966D01*
X0107049Y0230046D01*
X0106920Y0230128D01*
X0106793Y0230215D01*
X0106668Y0230304D01*
X0106546Y0230397D01*
X0106427Y0230493D01*
X0106309Y0230592D01*
X0106195Y0230693D01*
X0106083Y0230798D01*
X0105974Y0230906D01*
X0105868Y0231017D01*
X0105764Y0231130D01*
X0105664Y0231246D01*
X0105566Y0231364D01*
X0105472Y0231485D01*
X0105381Y0231608D01*
X0105293Y0231734D01*
X0105209Y0231862D01*
X0105127Y0231992D01*
X0105050Y0232124D01*
X0104975Y0232258D01*
X0104904Y0232394D01*
X0104837Y0232532D01*
X0104773Y0232672D01*
X0104713Y0232813D01*
X0104657Y0232955D01*
X0104604Y0233099D01*
X0104555Y0233245D01*
X0104510Y0233391D01*
X0104469Y0233539D01*
X0104432Y0233687D01*
X0104398Y0233837D01*
X0104368Y0233988D01*
X0104343Y0234139D01*
X0104321Y0234290D01*
X0104303Y0234443D01*
X0104289Y0234595D01*
X0104279Y0234748D01*
X0104273Y0234902D01*
X0104271Y0235055D01*
D11*
X0120563Y0236780D02*
X0120563Y0238715D01*
X0121531Y0239682D01*
X0122498Y0238715D01*
X0122498Y0236780D01*
X0123510Y0236780D02*
X0123510Y0238715D01*
X0123994Y0238715D01*
X0124477Y0238231D01*
X0124961Y0238715D01*
X0125445Y0238231D01*
X0125445Y0236780D01*
X0124477Y0236780D02*
X0124477Y0238231D01*
X0122498Y0238231D02*
X0120563Y0238231D01*
X0120957Y0233790D02*
X0120957Y0230087D01*
X0122809Y0230087D01*
X0123426Y0230704D01*
X0123426Y0231939D01*
X0122809Y0232556D01*
X0120957Y0232556D01*
X0124640Y0232556D02*
X0124640Y0230704D01*
X0125257Y0230087D01*
X0127109Y0230087D01*
X0127109Y0229470D02*
X0126492Y0228853D01*
X0125875Y0228853D01*
X0127109Y0229470D02*
X0127109Y0232556D01*
X0129388Y0235812D02*
X0129872Y0235812D01*
X0130356Y0236296D01*
X0130356Y0238715D01*
X0128905Y0238715D01*
X0128421Y0238231D01*
X0128421Y0237264D01*
X0128905Y0236780D01*
X0130356Y0236780D01*
X0131367Y0237264D02*
X0131851Y0237747D01*
X0133302Y0237747D01*
X0133302Y0238231D02*
X0133302Y0236780D01*
X0131851Y0236780D01*
X0131367Y0237264D01*
X0131851Y0238715D02*
X0132819Y0238715D01*
X0133302Y0238231D01*
X0137260Y0237747D02*
X0138712Y0237747D01*
X0139195Y0238231D01*
X0139195Y0239199D01*
X0138712Y0239682D01*
X0137260Y0239682D01*
X0137260Y0236780D01*
X0138228Y0237747D02*
X0139195Y0236780D01*
X0140207Y0236780D02*
X0140207Y0239682D01*
X0141658Y0239682D01*
X0142142Y0239199D01*
X0142142Y0238231D01*
X0141658Y0237747D01*
X0140207Y0237747D01*
X0143153Y0236780D02*
X0144121Y0236780D01*
X0143637Y0236780D02*
X0143637Y0239682D01*
X0143153Y0239682D02*
X0144121Y0239682D01*
X0148064Y0239682D02*
X0148064Y0236780D01*
X0149515Y0236780D01*
X0149999Y0237264D01*
X0149999Y0239199D01*
X0149515Y0239682D01*
X0148064Y0239682D01*
X0151011Y0238715D02*
X0151011Y0236780D01*
X0151011Y0237747D02*
X0151978Y0238715D01*
X0152462Y0238715D01*
X0153466Y0238715D02*
X0153950Y0238715D01*
X0153950Y0236780D01*
X0153466Y0236780D02*
X0154434Y0236780D01*
X0156398Y0236780D02*
X0155431Y0238715D01*
X0153950Y0239682D02*
X0153950Y0240166D01*
X0157365Y0238715D02*
X0156398Y0236780D01*
X0158377Y0237264D02*
X0158377Y0238231D01*
X0158861Y0238715D01*
X0159828Y0238715D01*
X0160312Y0238231D01*
X0160312Y0237747D01*
X0158377Y0237747D01*
X0158377Y0237264D02*
X0158861Y0236780D01*
X0159828Y0236780D01*
X0162086Y0233790D02*
X0163937Y0233790D01*
X0164554Y0233173D01*
X0164554Y0231939D01*
X0163937Y0231321D01*
X0162086Y0231321D01*
X0163320Y0231321D02*
X0164554Y0230087D01*
X0165769Y0230704D02*
X0166386Y0231321D01*
X0168237Y0231321D01*
X0168237Y0231939D02*
X0168237Y0230087D01*
X0166386Y0230087D01*
X0165769Y0230704D01*
X0166386Y0232556D02*
X0167620Y0232556D01*
X0168237Y0231939D01*
X0169452Y0232556D02*
X0170069Y0232556D01*
X0170686Y0231939D01*
X0171303Y0232556D01*
X0171921Y0231939D01*
X0171921Y0230087D01*
X0170686Y0230087D02*
X0170686Y0231939D01*
X0169452Y0232556D02*
X0169452Y0230087D01*
X0173135Y0230704D02*
X0173752Y0230087D01*
X0174987Y0230087D01*
X0175604Y0230704D01*
X0175604Y0231939D01*
X0174987Y0232556D01*
X0173752Y0232556D01*
X0173135Y0231939D01*
X0173135Y0230704D01*
X0176818Y0230087D02*
X0176818Y0232556D01*
X0178670Y0232556D01*
X0179287Y0231939D01*
X0179287Y0230087D01*
X0180501Y0230704D02*
X0180501Y0231939D01*
X0181118Y0232556D01*
X0182970Y0232556D01*
X0182970Y0233790D02*
X0182970Y0230087D01*
X0181118Y0230087D01*
X0180501Y0230704D01*
X0184184Y0230704D02*
X0184802Y0230087D01*
X0186036Y0230087D01*
X0186653Y0230704D01*
X0186653Y0231939D01*
X0186036Y0232556D01*
X0184802Y0232556D01*
X0184184Y0231939D01*
X0184184Y0230704D01*
X0184066Y0226297D02*
X0183582Y0226297D01*
X0184066Y0226297D02*
X0184066Y0223394D01*
X0184549Y0223394D02*
X0183582Y0223394D01*
X0182570Y0223394D02*
X0182570Y0224845D01*
X0182087Y0225329D01*
X0181119Y0225329D01*
X0180635Y0224845D01*
X0179624Y0224845D02*
X0179624Y0223394D01*
X0178173Y0223394D01*
X0177689Y0223878D01*
X0178173Y0224362D01*
X0179624Y0224362D01*
X0179624Y0224845D02*
X0179140Y0225329D01*
X0178173Y0225329D01*
X0176692Y0225329D02*
X0175725Y0225329D01*
X0176208Y0225813D02*
X0176208Y0223878D01*
X0176692Y0223394D01*
X0174713Y0223878D02*
X0174229Y0224362D01*
X0173262Y0224362D01*
X0172778Y0224845D01*
X0173262Y0225329D01*
X0174713Y0225329D01*
X0174713Y0223878D02*
X0174229Y0223394D01*
X0172778Y0223394D01*
X0168820Y0223394D02*
X0167369Y0223394D01*
X0166885Y0223878D01*
X0166885Y0225329D01*
X0165874Y0224845D02*
X0165874Y0223878D01*
X0165390Y0223394D01*
X0163939Y0223394D01*
X0163939Y0226297D01*
X0163939Y0225329D02*
X0165390Y0225329D01*
X0165874Y0224845D01*
X0167853Y0222427D02*
X0168336Y0222427D01*
X0168820Y0222910D01*
X0168820Y0225329D01*
X0162086Y0230087D02*
X0162086Y0233790D01*
X0164270Y0236780D02*
X0164270Y0239682D01*
X0165238Y0238715D01*
X0166205Y0239682D01*
X0166205Y0236780D01*
X0167217Y0236780D02*
X0168184Y0236780D01*
X0167700Y0236780D02*
X0167700Y0238715D01*
X0167217Y0238715D01*
X0167700Y0239682D02*
X0167700Y0240166D01*
X0169181Y0238715D02*
X0170632Y0238715D01*
X0171116Y0238231D01*
X0171116Y0236780D01*
X0172127Y0236780D02*
X0173095Y0236780D01*
X0172611Y0236780D02*
X0172611Y0238715D01*
X0172127Y0238715D01*
X0172611Y0239682D02*
X0172611Y0240166D01*
X0169181Y0238715D02*
X0169181Y0236780D01*
X0177038Y0238715D02*
X0178006Y0236780D01*
X0178973Y0238715D01*
X0179985Y0239199D02*
X0180469Y0239682D01*
X0181436Y0239682D01*
X0181920Y0239199D01*
X0181920Y0238715D01*
X0179985Y0236780D01*
X0181920Y0236780D01*
X0182931Y0236780D02*
X0183415Y0236780D01*
X0183415Y0237264D01*
X0182931Y0237264D01*
X0182931Y0236780D01*
X0184405Y0237264D02*
X0184888Y0236780D01*
X0185856Y0236780D01*
X0186340Y0237264D01*
X0186340Y0237747D01*
X0185856Y0238231D01*
X0185372Y0238231D01*
X0185856Y0238231D02*
X0186340Y0238715D01*
X0186340Y0239199D01*
X0185856Y0239682D01*
X0184888Y0239682D01*
X0184405Y0239199D01*
X0180635Y0226297D02*
X0180635Y0223394D01*
X0159980Y0223878D02*
X0159497Y0223394D01*
X0158529Y0223394D01*
X0158045Y0223878D01*
X0159980Y0225813D01*
X0159980Y0223878D01*
X0158045Y0223878D02*
X0158045Y0225813D01*
X0158529Y0226297D01*
X0159497Y0226297D01*
X0159980Y0225813D01*
X0157056Y0223878D02*
X0157056Y0223394D01*
X0156572Y0223394D01*
X0156572Y0223878D01*
X0157056Y0223878D01*
X0155561Y0223394D02*
X0153626Y0223394D01*
X0154593Y0223394D02*
X0154593Y0226297D01*
X0153626Y0225329D01*
X0152614Y0225329D02*
X0151647Y0223394D01*
X0150679Y0225329D01*
X0146721Y0225329D02*
X0145270Y0225329D01*
X0144786Y0224845D01*
X0144786Y0223878D01*
X0145270Y0223394D01*
X0146721Y0223394D01*
X0146721Y0226297D01*
X0143782Y0225329D02*
X0143298Y0225329D01*
X0142331Y0224362D01*
X0142331Y0225329D02*
X0142331Y0223394D01*
X0141319Y0223394D02*
X0139868Y0223394D01*
X0139384Y0223878D01*
X0139868Y0224362D01*
X0141319Y0224362D01*
X0141319Y0224845D02*
X0141319Y0223394D01*
X0141319Y0224845D02*
X0140835Y0225329D01*
X0139868Y0225329D01*
X0138373Y0224845D02*
X0138373Y0223878D01*
X0137889Y0223394D01*
X0136921Y0223394D01*
X0136438Y0223878D01*
X0136438Y0224845D01*
X0136921Y0225329D01*
X0137889Y0225329D01*
X0138373Y0224845D01*
X0135426Y0224845D02*
X0135426Y0223878D01*
X0134942Y0223394D01*
X0133491Y0223394D01*
X0133491Y0226297D01*
X0133491Y0225329D02*
X0134942Y0225329D01*
X0135426Y0224845D01*
X0136307Y0230087D02*
X0135690Y0230704D01*
X0136307Y0231321D01*
X0138158Y0231321D01*
X0138158Y0231939D02*
X0138158Y0230087D01*
X0136307Y0230087D01*
X0134475Y0230087D02*
X0134475Y0233790D01*
X0133241Y0232556D01*
X0132007Y0233790D01*
X0132007Y0230087D01*
X0129533Y0226297D02*
X0129533Y0223394D01*
X0128082Y0223394D01*
X0127598Y0223878D01*
X0127598Y0224845D01*
X0128082Y0225329D01*
X0129533Y0225329D01*
X0126587Y0224845D02*
X0126587Y0223394D01*
X0125619Y0223394D02*
X0125619Y0224845D01*
X0126103Y0225329D01*
X0126587Y0224845D01*
X0125619Y0224845D02*
X0125135Y0225329D01*
X0124652Y0225329D01*
X0124652Y0223394D01*
X0123640Y0223878D02*
X0123156Y0224362D01*
X0122189Y0224362D01*
X0121705Y0224845D01*
X0122189Y0225329D01*
X0123640Y0225329D01*
X0123640Y0223878D02*
X0123156Y0223394D01*
X0121705Y0223394D01*
X0126456Y0236780D02*
X0127424Y0236780D01*
X0126940Y0236780D02*
X0126940Y0238715D01*
X0126456Y0238715D01*
X0126940Y0239682D02*
X0126940Y0240166D01*
X0136307Y0232556D02*
X0137541Y0232556D01*
X0138158Y0231939D01*
X0139373Y0232556D02*
X0139373Y0230704D01*
X0139990Y0230087D01*
X0141842Y0230087D01*
X0141842Y0232556D01*
X0143056Y0232556D02*
X0143056Y0230087D01*
X0143056Y0231321D02*
X0144290Y0232556D01*
X0144908Y0232556D01*
X0146125Y0232556D02*
X0146742Y0232556D01*
X0146742Y0230087D01*
X0146125Y0230087D02*
X0147360Y0230087D01*
X0148581Y0230087D02*
X0151049Y0230087D01*
X0152264Y0230087D02*
X0153498Y0230087D01*
X0152881Y0230087D02*
X0152881Y0232556D01*
X0152264Y0232556D01*
X0151049Y0232556D02*
X0148581Y0230087D01*
X0148581Y0232556D02*
X0151049Y0232556D01*
X0152881Y0233790D02*
X0152881Y0234407D01*
X0155336Y0232556D02*
X0154719Y0231939D01*
X0154719Y0230704D01*
X0155336Y0230087D01*
X0156571Y0230087D01*
X0157188Y0230704D01*
X0157188Y0231939D01*
X0156571Y0232556D01*
X0155336Y0232556D01*
X0146742Y0233790D02*
X0146742Y0234407D01*
X0083325Y0191700D02*
X0080857Y0191700D01*
X0080857Y0187996D01*
X0079642Y0187996D02*
X0079642Y0190465D01*
X0080857Y0189848D02*
X0082091Y0189848D01*
X0079642Y0187996D02*
X0077791Y0187996D01*
X0077173Y0188614D01*
X0077173Y0190465D01*
X0075959Y0191082D02*
X0073490Y0188614D01*
X0074108Y0187996D01*
X0075342Y0187996D01*
X0075959Y0188614D01*
X0075959Y0191082D01*
X0075342Y0191700D01*
X0074108Y0191700D01*
X0073490Y0191082D01*
X0073490Y0188614D01*
X0072276Y0187996D02*
X0069807Y0187996D01*
X0071042Y0187996D02*
X0071042Y0191700D01*
X0069807Y0190465D01*
D12*
X0052500Y0173500D02*
X0052500Y0168500D01*
X0050000Y0166000D01*
X0035000Y0166000D01*
X0032500Y0163500D01*
X0032500Y0158500D01*
X0035000Y0156000D01*
X0050000Y0156000D01*
X0052500Y0153500D01*
X0052500Y0148500D01*
X0050000Y0146000D01*
X0035000Y0146000D01*
X0032500Y0143500D01*
X0032500Y0138500D01*
X0035000Y0136000D01*
X0050000Y0136000D01*
X0052500Y0133500D01*
X0052500Y0128500D01*
X0050000Y0126000D01*
X0035000Y0126000D01*
X0032500Y0123500D01*
X0032500Y0118500D01*
X0035000Y0116000D01*
X0050000Y0116000D01*
X0052500Y0113500D01*
X0052500Y0108500D01*
X0050000Y0106000D01*
X0035000Y0106000D01*
X0032500Y0108500D01*
X0032500Y0113500D01*
X0035000Y0116000D01*
X0035000Y0106000D02*
X0032500Y0103500D01*
X0032500Y0098500D01*
X0035000Y0096000D01*
X0050000Y0096000D01*
X0052500Y0093500D01*
X0052500Y0088500D01*
X0050000Y0086000D01*
X0035000Y0086000D01*
X0032500Y0088500D01*
X0032500Y0093500D01*
X0035000Y0096000D01*
X0035000Y0086000D02*
X0032500Y0083500D01*
X0032500Y0078500D01*
X0035000Y0076000D01*
X0050000Y0076000D01*
X0052500Y0073500D01*
X0052500Y0068500D01*
X0050000Y0066000D01*
X0035000Y0066000D01*
X0032500Y0068500D01*
X0032500Y0073500D01*
X0035000Y0076000D01*
X0035000Y0066000D02*
X0032500Y0063500D01*
X0032500Y0058500D01*
X0035000Y0056000D01*
X0050000Y0056000D01*
X0052500Y0053500D01*
X0052500Y0048500D01*
X0050000Y0046000D01*
X0035000Y0046000D01*
X0032500Y0048500D01*
X0032500Y0053500D01*
X0035000Y0056000D01*
X0035000Y0046000D02*
X0032500Y0043500D01*
X0032500Y0038500D01*
X0035000Y0036000D01*
X0050000Y0036000D01*
X0052500Y0033500D01*
X0052500Y0028500D01*
X0050000Y0026000D01*
X0035000Y0026000D01*
X0032500Y0028500D01*
X0032500Y0033500D01*
X0035000Y0036000D01*
X0035000Y0026000D02*
X0032500Y0023500D01*
X0032500Y0018500D01*
X0035000Y0016000D01*
X0050000Y0016000D01*
X0052500Y0013500D01*
X0052500Y0008500D01*
X0050000Y0006000D01*
X0035000Y0006000D01*
X0032500Y0008500D01*
X0032500Y0013500D01*
X0035000Y0016000D01*
X0050000Y0016000D02*
X0052500Y0018500D01*
X0052500Y0023500D01*
X0050000Y0026000D01*
X0050000Y0036000D02*
X0052500Y0038500D01*
X0052500Y0043500D01*
X0050000Y0046000D01*
X0050000Y0056000D02*
X0052500Y0058500D01*
X0052500Y0063500D01*
X0050000Y0066000D01*
X0050000Y0076000D02*
X0052500Y0078500D01*
X0052500Y0083500D01*
X0050000Y0086000D01*
X0050000Y0096000D02*
X0052500Y0098500D01*
X0052500Y0103500D01*
X0050000Y0106000D01*
X0050000Y0116000D02*
X0052500Y0118500D01*
X0052500Y0123500D01*
X0050000Y0126000D01*
X0050000Y0136000D02*
X0052500Y0138500D01*
X0052500Y0143500D01*
X0050000Y0146000D01*
X0050000Y0156000D02*
X0052500Y0158500D01*
X0052500Y0163500D01*
X0050000Y0166000D01*
X0052500Y0173500D02*
X0050000Y0176000D01*
X0035000Y0176000D01*
X0032500Y0173500D01*
X0032500Y0168500D01*
X0035000Y0166000D01*
X0035000Y0156000D02*
X0032500Y0153500D01*
X0032500Y0148500D01*
X0035000Y0146000D01*
X0035000Y0136000D02*
X0032500Y0133500D01*
X0032500Y0128500D01*
X0035000Y0126000D01*
X0037500Y0186000D02*
X0027500Y0186000D01*
X0027500Y0196000D01*
X0027500Y0206000D01*
X0027500Y0216000D01*
X0027500Y0226000D01*
X0037500Y0226000D01*
X0037500Y0216000D01*
X0027500Y0216000D01*
X0027500Y0206000D02*
X0037500Y0206000D01*
X0037500Y0216000D01*
X0037500Y0206000D02*
X0037500Y0196000D01*
X0027500Y0196000D01*
X0037500Y0196000D02*
X0037500Y0186000D01*
X0052500Y0225500D02*
X0092500Y0225500D01*
X0092500Y0241500D01*
X0080000Y0241500D01*
X0080000Y0239000D01*
X0065000Y0239000D01*
X0065000Y0241500D01*
X0052500Y0241500D01*
X0052500Y0225500D01*
X0065000Y0230500D02*
X0065000Y0236500D01*
X0080000Y0236500D01*
X0080000Y0230500D01*
X0065000Y0230500D01*
X0065000Y0241500D02*
X0080000Y0241500D01*
X0085000Y0144700D02*
X0085000Y0140500D01*
X0085000Y0136500D01*
X0085000Y0132300D01*
X0085002Y0132224D01*
X0085008Y0132148D01*
X0085017Y0132073D01*
X0085031Y0131998D01*
X0085048Y0131924D01*
X0085069Y0131851D01*
X0085093Y0131779D01*
X0085122Y0131708D01*
X0085153Y0131639D01*
X0085188Y0131572D01*
X0085227Y0131507D01*
X0085269Y0131443D01*
X0085314Y0131382D01*
X0085362Y0131323D01*
X0085413Y0131267D01*
X0085467Y0131213D01*
X0085523Y0131162D01*
X0085582Y0131114D01*
X0085643Y0131069D01*
X0085707Y0131027D01*
X0085772Y0130988D01*
X0085839Y0130953D01*
X0085908Y0130922D01*
X0085979Y0130893D01*
X0086051Y0130869D01*
X0086124Y0130848D01*
X0086198Y0130831D01*
X0086273Y0130817D01*
X0086348Y0130808D01*
X0086424Y0130802D01*
X0086500Y0130800D01*
X0085000Y0136500D02*
X0085088Y0136502D01*
X0085177Y0136508D01*
X0085265Y0136518D01*
X0085352Y0136531D01*
X0085439Y0136549D01*
X0085525Y0136570D01*
X0085610Y0136595D01*
X0085693Y0136624D01*
X0085776Y0136657D01*
X0085856Y0136693D01*
X0085935Y0136732D01*
X0086013Y0136775D01*
X0086088Y0136822D01*
X0086161Y0136872D01*
X0086232Y0136925D01*
X0086301Y0136981D01*
X0086367Y0137040D01*
X0086430Y0137102D01*
X0086490Y0137166D01*
X0086548Y0137233D01*
X0086602Y0137303D01*
X0086654Y0137375D01*
X0086702Y0137449D01*
X0086747Y0137526D01*
X0086788Y0137604D01*
X0086826Y0137684D01*
X0086860Y0137765D01*
X0086891Y0137848D01*
X0086918Y0137933D01*
X0086941Y0138018D01*
X0086960Y0138104D01*
X0086976Y0138192D01*
X0086988Y0138279D01*
X0086996Y0138367D01*
X0087000Y0138456D01*
X0087000Y0138544D01*
X0086996Y0138633D01*
X0086988Y0138721D01*
X0086976Y0138808D01*
X0086960Y0138896D01*
X0086941Y0138982D01*
X0086918Y0139067D01*
X0086891Y0139152D01*
X0086860Y0139235D01*
X0086826Y0139316D01*
X0086788Y0139396D01*
X0086747Y0139474D01*
X0086702Y0139551D01*
X0086654Y0139625D01*
X0086602Y0139697D01*
X0086548Y0139767D01*
X0086490Y0139834D01*
X0086430Y0139898D01*
X0086367Y0139960D01*
X0086301Y0140019D01*
X0086232Y0140075D01*
X0086161Y0140128D01*
X0086088Y0140178D01*
X0086013Y0140225D01*
X0085935Y0140268D01*
X0085856Y0140307D01*
X0085776Y0140343D01*
X0085693Y0140376D01*
X0085610Y0140405D01*
X0085525Y0140430D01*
X0085439Y0140451D01*
X0085352Y0140469D01*
X0085265Y0140482D01*
X0085177Y0140492D01*
X0085088Y0140498D01*
X0085000Y0140500D01*
X0085000Y0144700D02*
X0085002Y0144776D01*
X0085008Y0144852D01*
X0085017Y0144927D01*
X0085031Y0145002D01*
X0085048Y0145076D01*
X0085069Y0145149D01*
X0085093Y0145221D01*
X0085122Y0145292D01*
X0085153Y0145361D01*
X0085188Y0145428D01*
X0085227Y0145493D01*
X0085269Y0145557D01*
X0085314Y0145618D01*
X0085362Y0145677D01*
X0085413Y0145733D01*
X0085467Y0145787D01*
X0085523Y0145838D01*
X0085582Y0145886D01*
X0085643Y0145931D01*
X0085707Y0145973D01*
X0085772Y0146012D01*
X0085839Y0146047D01*
X0085908Y0146078D01*
X0085979Y0146107D01*
X0086051Y0146131D01*
X0086124Y0146152D01*
X0086198Y0146169D01*
X0086273Y0146183D01*
X0086348Y0146192D01*
X0086424Y0146198D01*
X0086500Y0146200D01*
X0118500Y0146200D02*
X0118576Y0146198D01*
X0118652Y0146192D01*
X0118727Y0146183D01*
X0118802Y0146169D01*
X0118876Y0146152D01*
X0118949Y0146131D01*
X0119021Y0146107D01*
X0119092Y0146078D01*
X0119161Y0146047D01*
X0119228Y0146012D01*
X0119293Y0145973D01*
X0119357Y0145931D01*
X0119418Y0145886D01*
X0119477Y0145838D01*
X0119533Y0145787D01*
X0119587Y0145733D01*
X0119638Y0145677D01*
X0119686Y0145618D01*
X0119731Y0145557D01*
X0119773Y0145493D01*
X0119812Y0145428D01*
X0119847Y0145361D01*
X0119878Y0145292D01*
X0119907Y0145221D01*
X0119931Y0145149D01*
X0119952Y0145076D01*
X0119969Y0145002D01*
X0119983Y0144927D01*
X0119992Y0144852D01*
X0119998Y0144776D01*
X0120000Y0144700D01*
X0120000Y0132300D01*
X0119998Y0132224D01*
X0119992Y0132148D01*
X0119983Y0132073D01*
X0119969Y0131998D01*
X0119952Y0131924D01*
X0119931Y0131851D01*
X0119907Y0131779D01*
X0119878Y0131708D01*
X0119847Y0131639D01*
X0119812Y0131572D01*
X0119773Y0131507D01*
X0119731Y0131443D01*
X0119686Y0131382D01*
X0119638Y0131323D01*
X0119587Y0131267D01*
X0119533Y0131213D01*
X0119477Y0131162D01*
X0119418Y0131114D01*
X0119357Y0131069D01*
X0119293Y0131027D01*
X0119228Y0130988D01*
X0119161Y0130953D01*
X0119092Y0130922D01*
X0119021Y0130893D01*
X0118949Y0130869D01*
X0118876Y0130848D01*
X0118802Y0130831D01*
X0118727Y0130817D01*
X0118652Y0130808D01*
X0118576Y0130802D01*
X0118500Y0130800D01*
X0142500Y0128500D02*
X0145000Y0126000D01*
X0160000Y0126000D01*
X0162500Y0123500D01*
X0162500Y0118500D01*
X0160000Y0116000D01*
X0145000Y0116000D01*
X0142500Y0113500D01*
X0142500Y0108500D01*
X0145000Y0106000D01*
X0160000Y0106000D01*
X0162500Y0103500D01*
X0162500Y0098500D01*
X0160000Y0096000D01*
X0145000Y0096000D01*
X0142500Y0093500D01*
X0142500Y0088500D01*
X0145000Y0086000D01*
X0160000Y0086000D01*
X0162500Y0083500D01*
X0162500Y0078500D01*
X0160000Y0076000D01*
X0145000Y0076000D01*
X0142500Y0073500D01*
X0142500Y0068500D01*
X0145000Y0066000D01*
X0160000Y0066000D01*
X0162500Y0063500D01*
X0162500Y0058500D01*
X0160000Y0056000D01*
X0145000Y0056000D01*
X0142500Y0058500D01*
X0142500Y0063500D01*
X0145000Y0066000D01*
X0145000Y0056000D02*
X0142500Y0053500D01*
X0142500Y0048500D01*
X0145000Y0046000D01*
X0160000Y0046000D01*
X0162500Y0043500D01*
X0162500Y0038500D01*
X0160000Y0036000D01*
X0145000Y0036000D01*
X0142500Y0038500D01*
X0142500Y0043500D01*
X0145000Y0046000D01*
X0145000Y0036000D02*
X0142500Y0033500D01*
X0142500Y0028500D01*
X0145000Y0026000D01*
X0160000Y0026000D01*
X0162500Y0023500D01*
X0162500Y0018500D01*
X0160000Y0016000D01*
X0162500Y0013500D01*
X0162500Y0008500D01*
X0160000Y0006000D01*
X0145000Y0006000D01*
X0142500Y0008500D01*
X0142500Y0013500D01*
X0145000Y0016000D01*
X0160000Y0016000D01*
X0160000Y0026000D02*
X0162500Y0028500D01*
X0162500Y0033500D01*
X0160000Y0036000D01*
X0160000Y0046000D02*
X0162500Y0048500D01*
X0162500Y0053500D01*
X0160000Y0056000D01*
X0160000Y0066000D02*
X0162500Y0068500D01*
X0162500Y0073500D01*
X0160000Y0076000D01*
X0167500Y0073500D02*
X0167500Y0068500D01*
X0170000Y0066000D01*
X0175000Y0066000D01*
X0177500Y0068500D01*
X0177500Y0073500D01*
X0175000Y0076000D01*
X0170000Y0076000D01*
X0167500Y0073500D01*
X0170000Y0076000D02*
X0167500Y0078500D01*
X0167500Y0083500D01*
X0170000Y0086000D01*
X0167500Y0088500D01*
X0167500Y0093500D01*
X0170000Y0096000D01*
X0175000Y0096000D01*
X0177500Y0093500D01*
X0177500Y0088500D01*
X0175000Y0086000D01*
X0177500Y0083500D01*
X0177500Y0078500D01*
X0175000Y0076000D01*
X0175000Y0086000D02*
X0170000Y0086000D01*
X0162500Y0088500D02*
X0160000Y0086000D01*
X0162500Y0088500D02*
X0162500Y0093500D01*
X0160000Y0096000D01*
X0160000Y0106000D02*
X0162500Y0108500D01*
X0162500Y0113500D01*
X0160000Y0116000D01*
X0160000Y0126000D02*
X0162500Y0128500D01*
X0162500Y0133500D01*
X0160000Y0136000D01*
X0145000Y0136000D01*
X0142500Y0133500D01*
X0142500Y0128500D01*
X0145000Y0126000D02*
X0142500Y0123500D01*
X0142500Y0118500D01*
X0145000Y0116000D01*
X0145000Y0106000D02*
X0142500Y0103500D01*
X0142500Y0098500D01*
X0145000Y0096000D01*
X0145000Y0086000D02*
X0142500Y0083500D01*
X0142500Y0078500D01*
X0145000Y0076000D01*
X0145000Y0026000D02*
X0142500Y0023500D01*
X0142500Y0018500D01*
X0145000Y0016000D01*
D13*
X0183561Y0066373D02*
X0184295Y0066373D01*
X0184662Y0066740D01*
X0184662Y0067841D01*
X0185029Y0067841D02*
X0183194Y0067841D01*
X0183194Y0066740D01*
X0183561Y0066373D01*
X0185396Y0067107D02*
X0185396Y0067474D01*
X0185029Y0067841D01*
X0184662Y0068583D02*
X0183194Y0068583D01*
X0183194Y0069684D01*
X0183561Y0070051D01*
X0184662Y0070051D01*
X0184295Y0070793D02*
X0183561Y0070793D01*
X0183194Y0071160D01*
X0183194Y0072261D01*
X0182460Y0072261D02*
X0184662Y0072261D01*
X0184662Y0071160D01*
X0184295Y0070793D01*
X0184662Y0075213D02*
X0182460Y0075213D01*
X0183561Y0078159D02*
X0184295Y0078159D01*
X0184662Y0078526D01*
X0184662Y0079627D01*
X0184662Y0080369D02*
X0182460Y0080369D01*
X0183194Y0080736D02*
X0183194Y0081470D01*
X0183561Y0081837D01*
X0184662Y0081837D01*
X0184295Y0082579D02*
X0184662Y0082946D01*
X0184662Y0084047D01*
X0185029Y0084047D02*
X0183194Y0084047D01*
X0183194Y0082946D01*
X0183561Y0082579D01*
X0184295Y0082579D01*
X0185396Y0083313D02*
X0185396Y0083680D01*
X0185029Y0084047D01*
X0184662Y0086999D02*
X0182460Y0086999D01*
X0183194Y0089945D02*
X0184295Y0089945D01*
X0184662Y0090312D01*
X0184295Y0090679D01*
X0184662Y0091046D01*
X0184295Y0091413D01*
X0183194Y0091413D01*
X0183194Y0092155D02*
X0184662Y0092155D01*
X0183928Y0092155D02*
X0183194Y0092889D01*
X0183194Y0093256D01*
X0183194Y0093997D02*
X0183194Y0094731D01*
X0182827Y0094364D02*
X0184295Y0094364D01*
X0184662Y0094731D01*
X0183194Y0080736D02*
X0183561Y0080369D01*
X0183194Y0079627D02*
X0183194Y0078526D01*
X0183561Y0078159D01*
X0120000Y0132200D02*
X0085000Y0132200D01*
D14*
X0056553Y0089665D02*
X0055785Y0089665D01*
X0055018Y0088898D01*
X0055018Y0087363D01*
X0055785Y0086596D01*
X0057320Y0086596D01*
X0058087Y0087363D01*
X0058087Y0088898D01*
X0056553Y0089665D02*
X0056553Y0086596D01*
X0055018Y0085061D02*
X0058087Y0083527D01*
X0055018Y0081992D01*
X0055018Y0079690D02*
X0058087Y0079690D01*
X0058087Y0078923D02*
X0058087Y0080457D01*
X0055018Y0079690D02*
X0055018Y0078923D01*
X0055018Y0077388D02*
X0055018Y0076621D01*
X0056553Y0075086D01*
X0058087Y0075086D02*
X0055018Y0075086D01*
X0054251Y0073551D02*
X0053483Y0072784D01*
X0053483Y0070482D01*
X0058087Y0070482D01*
X0058087Y0072784D01*
X0057320Y0073551D01*
X0054251Y0073551D01*
X0053483Y0079690D02*
X0052716Y0079690D01*
X0058087Y0064344D02*
X0058087Y0062809D01*
X0058087Y0063576D02*
X0053483Y0063576D01*
X0053483Y0062809D01*
X0055018Y0060507D02*
X0055785Y0061274D01*
X0058087Y0061274D01*
X0058087Y0058972D01*
X0057320Y0058205D01*
X0056553Y0058972D01*
X0056553Y0061274D01*
X0055018Y0060507D02*
X0055018Y0058972D01*
X0055785Y0056670D02*
X0058087Y0056670D01*
X0058087Y0053601D02*
X0055018Y0053601D01*
X0055018Y0055903D01*
X0055785Y0056670D01*
X0055018Y0052066D02*
X0055018Y0051299D01*
X0056553Y0049764D01*
X0056553Y0048230D02*
X0055785Y0048230D01*
X0055018Y0047463D01*
X0055018Y0045928D01*
X0055785Y0045161D01*
X0057320Y0045161D01*
X0058087Y0045928D01*
X0058087Y0047463D01*
X0056553Y0048230D02*
X0056553Y0045161D01*
X0058087Y0043626D02*
X0057320Y0042859D01*
X0054251Y0042859D01*
X0055018Y0043626D02*
X0055018Y0042091D01*
X0055785Y0040557D02*
X0058087Y0040557D01*
X0058087Y0037487D02*
X0055018Y0037487D01*
X0055018Y0039789D01*
X0055785Y0040557D01*
X0053483Y0035953D02*
X0053483Y0034418D01*
X0053483Y0035185D02*
X0058087Y0035185D01*
X0058087Y0034418D02*
X0058087Y0035953D01*
X0058087Y0028280D02*
X0055785Y0028280D01*
X0055018Y0027512D01*
X0055018Y0025978D01*
X0056553Y0025978D02*
X0056553Y0028280D01*
X0058087Y0028280D02*
X0058087Y0025978D01*
X0057320Y0025210D01*
X0056553Y0025978D01*
X0058087Y0023676D02*
X0058087Y0021374D01*
X0057320Y0020606D01*
X0055785Y0020606D01*
X0055018Y0021374D01*
X0055018Y0023676D01*
X0058855Y0023676D01*
X0059622Y0022908D01*
X0059622Y0022141D01*
X0058087Y0019072D02*
X0058087Y0017537D01*
X0058087Y0018304D02*
X0055018Y0018304D01*
X0055018Y0017537D01*
X0053483Y0018304D02*
X0052716Y0018304D01*
X0055018Y0015235D02*
X0055785Y0016002D01*
X0058087Y0016002D01*
X0058087Y0014468D02*
X0055785Y0014468D01*
X0055018Y0015235D01*
X0055785Y0014468D02*
X0055018Y0013700D01*
X0055018Y0012933D01*
X0058087Y0012933D01*
X0058087Y0011398D02*
X0055018Y0011398D01*
X0053483Y0009864D01*
X0055018Y0008329D01*
X0058087Y0008329D01*
X0055785Y0008329D02*
X0055785Y0011398D01*
X0055018Y0049764D02*
X0058087Y0049764D01*
X0165196Y0053527D02*
X0165196Y0055829D01*
X0165963Y0056596D01*
X0167498Y0056596D01*
X0168265Y0055829D01*
X0168265Y0053527D01*
X0169800Y0053527D02*
X0165196Y0053527D01*
X0165196Y0058131D02*
X0165196Y0059665D01*
X0165196Y0058898D02*
X0169800Y0058898D01*
X0169800Y0058131D02*
X0169800Y0059665D01*
X0169800Y0047388D02*
X0169800Y0045086D01*
X0169033Y0044319D01*
X0166731Y0044319D01*
X0166731Y0042784D02*
X0166731Y0042017D01*
X0168265Y0040482D01*
X0166731Y0040482D02*
X0169800Y0040482D01*
X0166731Y0038948D02*
X0166731Y0038180D01*
X0168265Y0036646D01*
X0166731Y0036646D02*
X0169800Y0036646D01*
X0168265Y0035111D02*
X0168265Y0032042D01*
X0167498Y0032042D02*
X0166731Y0032809D01*
X0166731Y0034344D01*
X0167498Y0035111D01*
X0168265Y0035111D01*
X0169800Y0034344D02*
X0169800Y0032809D01*
X0169033Y0032042D01*
X0167498Y0032042D01*
X0167498Y0030507D02*
X0166731Y0029740D01*
X0166731Y0027438D01*
X0165196Y0027438D02*
X0169800Y0027438D01*
X0169800Y0029740D01*
X0169033Y0030507D01*
X0167498Y0030507D01*
X0167498Y0025903D02*
X0169033Y0025903D01*
X0169800Y0025136D01*
X0169800Y0022834D01*
X0171335Y0022834D02*
X0166731Y0022834D01*
X0166731Y0025136D01*
X0167498Y0025903D01*
X0166731Y0021299D02*
X0166731Y0018997D01*
X0167498Y0018230D01*
X0168265Y0018997D01*
X0168265Y0020532D01*
X0169033Y0021299D01*
X0169800Y0020532D01*
X0169800Y0018230D01*
X0169800Y0016695D02*
X0167498Y0016695D01*
X0166731Y0015928D01*
X0166731Y0014393D01*
X0168265Y0014393D02*
X0168265Y0016695D01*
X0169800Y0016695D02*
X0169800Y0014393D01*
X0169033Y0013626D01*
X0168265Y0014393D01*
X0167498Y0012091D02*
X0165963Y0012091D01*
X0165196Y0011324D01*
X0165196Y0009022D01*
X0169800Y0009022D01*
X0168265Y0009022D02*
X0168265Y0011324D01*
X0167498Y0012091D01*
X0168265Y0010557D02*
X0169800Y0012091D01*
X0171335Y0045853D02*
X0171335Y0046621D01*
X0170567Y0047388D01*
X0166731Y0047388D01*
X0085768Y0192732D02*
X0073563Y0192732D01*
X0069232Y0197063D01*
X0069232Y0204937D02*
X0073563Y0209268D01*
X0085768Y0209268D01*
X0085768Y0204346D01*
X0085768Y0197654D02*
X0085768Y0192732D01*
X0084389Y0204346D02*
X0084306Y0204513D01*
X0084219Y0204677D01*
X0084127Y0204840D01*
X0084032Y0205000D01*
X0083933Y0205157D01*
X0083830Y0205312D01*
X0083723Y0205465D01*
X0083612Y0205615D01*
X0083498Y0205762D01*
X0083381Y0205907D01*
X0083260Y0206048D01*
X0083135Y0206187D01*
X0083008Y0206322D01*
X0082877Y0206455D01*
X0082742Y0206584D01*
X0082605Y0206710D01*
X0082465Y0206832D01*
X0082321Y0206951D01*
X0082175Y0207067D01*
X0082026Y0207178D01*
X0081875Y0207287D01*
X0081721Y0207391D01*
X0081564Y0207492D01*
X0081405Y0207589D01*
X0081244Y0207682D01*
X0081080Y0207771D01*
X0080914Y0207856D01*
X0080747Y0207937D01*
X0080577Y0208014D01*
X0080405Y0208087D01*
X0080232Y0208155D01*
X0080057Y0208219D01*
X0079881Y0208279D01*
X0079703Y0208335D01*
X0079524Y0208387D01*
X0079344Y0208434D01*
X0079163Y0208476D01*
X0078981Y0208515D01*
X0078797Y0208548D01*
X0078614Y0208578D01*
X0078429Y0208602D01*
X0078244Y0208623D01*
X0078058Y0208639D01*
X0077872Y0208650D01*
X0077686Y0208657D01*
X0077500Y0208659D01*
X0077314Y0208657D01*
X0077128Y0208650D01*
X0076942Y0208639D01*
X0076756Y0208623D01*
X0076571Y0208602D01*
X0076386Y0208578D01*
X0076203Y0208548D01*
X0076019Y0208515D01*
X0075837Y0208476D01*
X0075656Y0208434D01*
X0075476Y0208387D01*
X0075297Y0208335D01*
X0075119Y0208279D01*
X0074943Y0208219D01*
X0074768Y0208155D01*
X0074595Y0208087D01*
X0074423Y0208014D01*
X0074253Y0207937D01*
X0074086Y0207856D01*
X0073920Y0207771D01*
X0073756Y0207682D01*
X0073595Y0207589D01*
X0073436Y0207492D01*
X0073279Y0207391D01*
X0073125Y0207287D01*
X0072974Y0207178D01*
X0072825Y0207067D01*
X0072679Y0206951D01*
X0072535Y0206832D01*
X0072395Y0206710D01*
X0072258Y0206584D01*
X0072123Y0206455D01*
X0071992Y0206322D01*
X0071865Y0206187D01*
X0071740Y0206048D01*
X0071619Y0205907D01*
X0071502Y0205762D01*
X0071388Y0205615D01*
X0071277Y0205465D01*
X0071170Y0205312D01*
X0071067Y0205157D01*
X0070968Y0205000D01*
X0070873Y0204840D01*
X0070781Y0204677D01*
X0070694Y0204513D01*
X0070611Y0204346D01*
X0070611Y0197654D02*
X0070694Y0197487D01*
X0070781Y0197323D01*
X0070873Y0197160D01*
X0070968Y0197000D01*
X0071067Y0196843D01*
X0071170Y0196688D01*
X0071277Y0196535D01*
X0071388Y0196385D01*
X0071502Y0196238D01*
X0071619Y0196093D01*
X0071740Y0195952D01*
X0071865Y0195813D01*
X0071992Y0195678D01*
X0072123Y0195545D01*
X0072258Y0195416D01*
X0072395Y0195290D01*
X0072535Y0195168D01*
X0072679Y0195049D01*
X0072825Y0194933D01*
X0072974Y0194822D01*
X0073125Y0194713D01*
X0073279Y0194609D01*
X0073436Y0194508D01*
X0073595Y0194411D01*
X0073756Y0194318D01*
X0073920Y0194229D01*
X0074086Y0194144D01*
X0074253Y0194063D01*
X0074423Y0193986D01*
X0074595Y0193913D01*
X0074768Y0193845D01*
X0074943Y0193781D01*
X0075119Y0193721D01*
X0075297Y0193665D01*
X0075476Y0193613D01*
X0075656Y0193566D01*
X0075837Y0193524D01*
X0076019Y0193485D01*
X0076203Y0193452D01*
X0076386Y0193422D01*
X0076571Y0193398D01*
X0076756Y0193377D01*
X0076942Y0193361D01*
X0077128Y0193350D01*
X0077314Y0193343D01*
X0077500Y0193341D01*
X0077686Y0193343D01*
X0077872Y0193350D01*
X0078058Y0193361D01*
X0078244Y0193377D01*
X0078429Y0193398D01*
X0078614Y0193422D01*
X0078797Y0193452D01*
X0078981Y0193485D01*
X0079163Y0193524D01*
X0079344Y0193566D01*
X0079524Y0193613D01*
X0079703Y0193665D01*
X0079881Y0193721D01*
X0080057Y0193781D01*
X0080232Y0193845D01*
X0080405Y0193913D01*
X0080577Y0193986D01*
X0080747Y0194063D01*
X0080914Y0194144D01*
X0081080Y0194229D01*
X0081244Y0194318D01*
X0081405Y0194411D01*
X0081564Y0194508D01*
X0081721Y0194609D01*
X0081875Y0194713D01*
X0082026Y0194822D01*
X0082175Y0194933D01*
X0082321Y0195049D01*
X0082465Y0195168D01*
X0082605Y0195290D01*
X0082742Y0195416D01*
X0082877Y0195545D01*
X0083008Y0195678D01*
X0083135Y0195813D01*
X0083260Y0195952D01*
X0083381Y0196093D01*
X0083498Y0196238D01*
X0083612Y0196385D01*
X0083723Y0196535D01*
X0083830Y0196688D01*
X0083933Y0196843D01*
X0084032Y0197000D01*
X0084127Y0197160D01*
X0084219Y0197323D01*
X0084306Y0197487D01*
X0084389Y0197654D01*
D15*
X0093266Y0204249D02*
X0094266Y0205250D01*
X0094266Y0205500D01*
X0094016Y0205750D01*
X0093516Y0205750D01*
X0093266Y0205500D01*
X0093266Y0204249D02*
X0094266Y0204249D01*
X0094739Y0204249D02*
X0094739Y0205750D01*
X0095489Y0205250D02*
X0094739Y0204750D01*
X0095489Y0204249D01*
X0095966Y0204249D02*
X0095966Y0204499D01*
X0096967Y0205500D01*
X0096967Y0205750D01*
X0095966Y0205750D01*
X0104184Y0205394D02*
X0104934Y0205394D01*
X0105185Y0205143D01*
X0105185Y0204893D01*
X0104934Y0204643D01*
X0104184Y0204643D01*
X0104184Y0206144D01*
X0104934Y0206144D01*
X0105185Y0205894D01*
X0105185Y0205644D01*
X0104934Y0205394D01*
X0105657Y0205894D02*
X0105907Y0206144D01*
X0106408Y0206144D01*
X0106658Y0205894D01*
X0106658Y0205644D01*
X0106408Y0205394D01*
X0106658Y0205143D01*
X0106658Y0204893D01*
X0106408Y0204643D01*
X0105907Y0204643D01*
X0105657Y0204893D01*
X0106157Y0205394D02*
X0106408Y0205394D01*
X0107130Y0205394D02*
X0108131Y0205394D01*
X0108603Y0205894D02*
X0108603Y0204893D01*
X0109604Y0205894D01*
X0109604Y0204893D01*
X0109354Y0204643D01*
X0108854Y0204643D01*
X0108603Y0204893D01*
X0107881Y0204643D02*
X0107881Y0206144D01*
X0107130Y0205394D01*
X0108603Y0205894D02*
X0108854Y0206144D01*
X0109354Y0206144D01*
X0109604Y0205894D01*
X0110077Y0205644D02*
X0110577Y0206144D01*
X0111078Y0205644D01*
X0111078Y0204643D01*
X0111078Y0205394D02*
X0110077Y0205394D01*
X0110077Y0205644D02*
X0110077Y0204643D01*
X0116782Y0204544D02*
X0117533Y0204544D01*
X0117783Y0204795D01*
X0117783Y0205045D01*
X0117533Y0205295D01*
X0116782Y0205295D01*
X0116782Y0204544D02*
X0116782Y0206046D01*
X0117533Y0206046D01*
X0117783Y0205796D01*
X0117783Y0205545D01*
X0117533Y0205295D01*
X0118255Y0204795D02*
X0118506Y0204544D01*
X0119006Y0204544D01*
X0119256Y0204795D01*
X0119256Y0205045D01*
X0119006Y0205295D01*
X0118756Y0205295D01*
X0119006Y0205295D02*
X0119256Y0205545D01*
X0119256Y0205796D01*
X0119006Y0206046D01*
X0118506Y0206046D01*
X0118255Y0205796D01*
X0119729Y0205295D02*
X0120729Y0205295D01*
X0121202Y0204795D02*
X0121202Y0205796D01*
X0121452Y0206046D01*
X0121953Y0206046D01*
X0122203Y0205796D01*
X0121202Y0204795D01*
X0121452Y0204544D01*
X0121953Y0204544D01*
X0122203Y0204795D01*
X0122203Y0205796D01*
X0122675Y0205545D02*
X0123176Y0206046D01*
X0123676Y0205545D01*
X0123676Y0204544D01*
X0123676Y0205295D02*
X0122675Y0205295D01*
X0122675Y0205545D02*
X0122675Y0204544D01*
X0120479Y0204544D02*
X0120479Y0206046D01*
X0119729Y0205295D01*
X0129381Y0205197D02*
X0130131Y0205197D01*
X0130381Y0204946D01*
X0130381Y0204696D01*
X0130131Y0204446D01*
X0129381Y0204446D01*
X0129381Y0205947D01*
X0130131Y0205947D01*
X0130381Y0205697D01*
X0130381Y0205447D01*
X0130131Y0205197D01*
X0130854Y0205697D02*
X0131104Y0205947D01*
X0131604Y0205947D01*
X0131855Y0205697D01*
X0131855Y0205447D01*
X0131604Y0205197D01*
X0131855Y0204946D01*
X0131855Y0204696D01*
X0131604Y0204446D01*
X0131104Y0204446D01*
X0130854Y0204696D01*
X0131354Y0205197D02*
X0131604Y0205197D01*
X0132327Y0205197D02*
X0133328Y0205197D01*
X0133800Y0205697D02*
X0133800Y0204696D01*
X0134801Y0205697D01*
X0134801Y0204696D01*
X0134551Y0204446D01*
X0134051Y0204446D01*
X0133800Y0204696D01*
X0133078Y0204446D02*
X0133078Y0205947D01*
X0132327Y0205197D01*
X0133800Y0205697D02*
X0134051Y0205947D01*
X0134551Y0205947D01*
X0134801Y0205697D01*
X0135274Y0205447D02*
X0135774Y0205947D01*
X0136274Y0205447D01*
X0136274Y0204446D01*
X0136274Y0205197D02*
X0135274Y0205197D01*
X0135274Y0205447D02*
X0135274Y0204446D01*
X0141585Y0204348D02*
X0142336Y0204348D01*
X0142586Y0204598D01*
X0142586Y0204848D01*
X0142336Y0205098D01*
X0141585Y0205098D01*
X0141585Y0204348D02*
X0141585Y0205849D01*
X0142336Y0205849D01*
X0142586Y0205599D01*
X0142586Y0205348D01*
X0142336Y0205098D01*
X0143059Y0204598D02*
X0143309Y0204348D01*
X0143809Y0204348D01*
X0144059Y0204598D01*
X0144059Y0204848D01*
X0143809Y0205098D01*
X0143559Y0205098D01*
X0143809Y0205098D02*
X0144059Y0205348D01*
X0144059Y0205599D01*
X0143809Y0205849D01*
X0143309Y0205849D01*
X0143059Y0205599D01*
X0144532Y0205098D02*
X0145533Y0205098D01*
X0146005Y0204598D02*
X0147006Y0205599D01*
X0147006Y0204598D01*
X0146756Y0204348D01*
X0146255Y0204348D01*
X0146005Y0204598D01*
X0146005Y0205599D01*
X0146255Y0205849D01*
X0146756Y0205849D01*
X0147006Y0205599D01*
X0147478Y0205348D02*
X0147478Y0204348D01*
X0147478Y0205098D02*
X0148479Y0205098D01*
X0148479Y0205348D02*
X0148479Y0204348D01*
X0148479Y0205348D02*
X0147979Y0205849D01*
X0147478Y0205348D01*
X0145282Y0205849D02*
X0145282Y0204348D01*
X0144532Y0205098D02*
X0145282Y0205849D01*
X0163231Y0181715D02*
X0163731Y0181715D01*
X0163981Y0181465D01*
X0163981Y0181215D01*
X0163731Y0180964D01*
X0163981Y0180714D01*
X0163981Y0180464D01*
X0163731Y0180214D01*
X0163231Y0180214D01*
X0162981Y0180464D01*
X0163481Y0180964D02*
X0163731Y0180964D01*
X0164454Y0180464D02*
X0164704Y0180214D01*
X0165205Y0180214D01*
X0165455Y0180464D01*
X0165455Y0180714D01*
X0165205Y0180964D01*
X0164954Y0180964D01*
X0165205Y0180964D02*
X0165455Y0181215D01*
X0165455Y0181465D01*
X0165205Y0181715D01*
X0164704Y0181715D01*
X0164454Y0181465D01*
X0163231Y0181715D02*
X0162981Y0181465D01*
X0165927Y0181465D02*
X0166177Y0181715D01*
X0166678Y0181715D01*
X0166928Y0181465D01*
X0165927Y0180464D01*
X0166177Y0180214D01*
X0166678Y0180214D01*
X0166928Y0180464D01*
X0166928Y0181465D01*
X0165927Y0181465D02*
X0165927Y0180464D01*
X0105719Y0163984D02*
X0105719Y0162983D01*
X0105719Y0163734D02*
X0104719Y0163734D01*
X0104719Y0163984D02*
X0105219Y0164484D01*
X0105719Y0163984D01*
X0104719Y0163984D02*
X0104719Y0162983D01*
X0104246Y0163233D02*
X0103996Y0162983D01*
X0103496Y0162983D01*
X0103245Y0163233D01*
X0104246Y0164234D01*
X0104246Y0163233D01*
X0103245Y0163233D02*
X0103245Y0164234D01*
X0103496Y0164484D01*
X0103996Y0164484D01*
X0104246Y0164234D01*
X0102773Y0163734D02*
X0101772Y0163734D01*
X0102523Y0164484D01*
X0102523Y0162983D01*
X0101300Y0163233D02*
X0101049Y0162983D01*
X0100549Y0162983D01*
X0100299Y0163233D01*
X0099826Y0163233D02*
X0099576Y0162983D01*
X0098826Y0162983D01*
X0098826Y0164484D01*
X0099576Y0164484D01*
X0099826Y0164234D01*
X0099826Y0163984D01*
X0099576Y0163734D01*
X0098826Y0163734D01*
X0099576Y0163734D02*
X0099826Y0163483D01*
X0099826Y0163233D01*
X0100799Y0163734D02*
X0101049Y0163734D01*
X0101300Y0163483D01*
X0101300Y0163233D01*
X0101049Y0163734D02*
X0101300Y0163984D01*
X0101300Y0164234D01*
X0101049Y0164484D01*
X0100549Y0164484D01*
X0100299Y0164234D01*
X0080714Y0172912D02*
X0079713Y0173913D01*
X0079463Y0173913D01*
X0079213Y0173663D01*
X0079213Y0173162D01*
X0079463Y0172912D01*
X0080714Y0172912D02*
X0080714Y0173913D01*
X0080714Y0174385D02*
X0079713Y0175386D01*
X0079463Y0175386D01*
X0079213Y0175136D01*
X0079213Y0174636D01*
X0079463Y0174385D01*
X0080714Y0174385D02*
X0080714Y0175386D01*
X0080464Y0175859D02*
X0079463Y0176860D01*
X0080464Y0176860D01*
X0080714Y0176609D01*
X0080714Y0176109D01*
X0080464Y0175859D01*
X0079463Y0175859D01*
X0079213Y0176109D01*
X0079213Y0176609D01*
X0079463Y0176860D01*
X0079713Y0177332D02*
X0079713Y0178083D01*
X0079963Y0178333D01*
X0080464Y0178333D01*
X0080714Y0178083D01*
X0080714Y0177332D01*
X0081214Y0177332D02*
X0079713Y0177332D01*
X0079963Y0178805D02*
X0079963Y0179306D01*
X0079463Y0179055D02*
X0079213Y0179306D01*
X0079463Y0179055D02*
X0080714Y0179055D01*
X0070714Y0177582D02*
X0070464Y0177582D01*
X0069463Y0178583D01*
X0069213Y0178583D01*
X0069213Y0177582D01*
X0069713Y0177105D02*
X0070213Y0176354D01*
X0070714Y0177105D01*
X0070714Y0176354D02*
X0069213Y0176354D01*
X0069213Y0175631D02*
X0069963Y0174881D01*
X0069963Y0175882D01*
X0069213Y0175631D02*
X0070714Y0175631D01*
X0071549Y0151078D02*
X0071549Y0150077D01*
X0073050Y0150077D01*
X0073050Y0149604D02*
X0072299Y0149604D01*
X0072049Y0149354D01*
X0072049Y0148603D01*
X0073050Y0148603D01*
X0072800Y0148131D02*
X0073050Y0147881D01*
X0073050Y0147380D01*
X0072800Y0147130D01*
X0071799Y0148131D01*
X0072800Y0148131D01*
X0072800Y0147130D02*
X0071799Y0147130D01*
X0071549Y0147380D01*
X0071549Y0147881D01*
X0071799Y0148131D01*
X0071799Y0146658D02*
X0072800Y0145657D01*
X0073050Y0145907D01*
X0073050Y0146408D01*
X0072800Y0146658D01*
X0071799Y0146658D01*
X0071549Y0146408D01*
X0071549Y0145907D01*
X0071799Y0145657D01*
X0072800Y0145657D01*
X0073050Y0145185D02*
X0073050Y0144184D01*
X0073050Y0144684D02*
X0071549Y0144684D01*
X0072049Y0144184D01*
X0072299Y0150077D02*
X0072299Y0150577D01*
X0077956Y0091558D02*
X0077956Y0090056D01*
X0078456Y0090056D02*
X0077455Y0090056D01*
X0077455Y0091057D02*
X0077956Y0091558D01*
X0078929Y0091558D02*
X0078929Y0090056D01*
X0078929Y0090557D02*
X0079679Y0091057D01*
X0078929Y0090557D02*
X0079679Y0090056D01*
X0078929Y0081558D02*
X0078929Y0080056D01*
X0078456Y0080056D02*
X0077455Y0080056D01*
X0077956Y0080056D02*
X0077956Y0081558D01*
X0077455Y0081057D01*
X0078929Y0080557D02*
X0079679Y0081057D01*
X0078929Y0080557D02*
X0079679Y0080056D01*
X0078929Y0071558D02*
X0078929Y0070056D01*
X0078456Y0070056D02*
X0077455Y0070056D01*
X0077956Y0070056D02*
X0077956Y0071558D01*
X0077455Y0071057D01*
X0078929Y0070557D02*
X0079679Y0071057D01*
X0078929Y0070557D02*
X0079679Y0070056D01*
X0078535Y0061951D02*
X0078535Y0060450D01*
X0078062Y0060450D02*
X0077062Y0060450D01*
X0077562Y0060450D02*
X0077562Y0061951D01*
X0077062Y0061451D01*
X0078535Y0060950D02*
X0079286Y0061451D01*
X0078535Y0060950D02*
X0079286Y0060450D01*
X0078535Y0051951D02*
X0078535Y0050450D01*
X0078062Y0050450D02*
X0077062Y0050450D01*
X0077562Y0050450D02*
X0077562Y0051951D01*
X0077062Y0051451D01*
X0078535Y0050950D02*
X0079286Y0051451D01*
X0078535Y0050950D02*
X0079286Y0050450D01*
X0121352Y0051028D02*
X0121352Y0051529D01*
X0121602Y0051779D01*
X0122603Y0050778D01*
X0122853Y0051028D01*
X0122853Y0051529D01*
X0122603Y0051779D01*
X0121602Y0051779D01*
X0121352Y0052251D02*
X0122853Y0052251D01*
X0122353Y0052251D02*
X0121852Y0053002D01*
X0122353Y0052251D02*
X0122853Y0053002D01*
X0122603Y0050778D02*
X0121602Y0050778D01*
X0121352Y0051028D01*
X0121352Y0049805D02*
X0122853Y0049805D01*
X0122853Y0049305D02*
X0122853Y0050306D01*
X0121852Y0049305D02*
X0121352Y0049805D01*
X0121866Y0044814D02*
X0122116Y0044814D01*
X0122366Y0044564D01*
X0122366Y0044063D01*
X0122116Y0043813D01*
X0121866Y0043813D01*
X0121616Y0044063D01*
X0121616Y0044564D01*
X0121866Y0044814D01*
X0122366Y0044564D02*
X0122617Y0044814D01*
X0122867Y0044814D01*
X0123117Y0044564D01*
X0123117Y0044063D01*
X0122867Y0043813D01*
X0122617Y0043813D01*
X0122366Y0044063D01*
X0122366Y0043341D02*
X0122366Y0042340D01*
X0121616Y0043090D01*
X0123117Y0043090D01*
X0123117Y0041867D02*
X0123117Y0040866D01*
X0123117Y0041367D02*
X0121616Y0041367D01*
X0122116Y0040866D01*
X0122366Y0040394D02*
X0122366Y0039393D01*
X0121616Y0040144D01*
X0123117Y0040144D01*
X0123117Y0038921D02*
X0121616Y0038921D01*
X0121616Y0037920D02*
X0123117Y0038921D01*
X0123117Y0037920D02*
X0121616Y0037920D01*
X0121616Y0036947D02*
X0123117Y0036947D01*
X0123117Y0036447D02*
X0123117Y0037448D01*
X0122116Y0036447D02*
X0121616Y0036947D01*
X0121715Y0059802D02*
X0121715Y0060553D01*
X0121965Y0060803D01*
X0122216Y0060803D01*
X0122466Y0060553D01*
X0122466Y0060052D01*
X0122216Y0059802D01*
X0121715Y0059802D01*
X0121215Y0060302D01*
X0120964Y0060803D01*
X0120964Y0061275D02*
X0122466Y0061275D01*
X0121965Y0061275D02*
X0121465Y0062026D01*
X0121465Y0062503D02*
X0121215Y0062503D01*
X0120964Y0062753D01*
X0120964Y0063254D01*
X0121215Y0063504D01*
X0121465Y0063504D01*
X0121715Y0063254D01*
X0121715Y0062753D01*
X0121465Y0062503D01*
X0121715Y0062753D02*
X0121965Y0062503D01*
X0122216Y0062503D01*
X0122466Y0062753D01*
X0122466Y0063254D01*
X0122216Y0063504D01*
X0121965Y0063504D01*
X0121715Y0063254D01*
X0122466Y0062026D02*
X0121965Y0061275D01*
X0080711Y0222393D02*
X0079960Y0222893D01*
X0080711Y0223393D01*
X0079960Y0223894D02*
X0079960Y0222393D01*
X0079488Y0222393D02*
X0078487Y0222393D01*
X0078987Y0222393D02*
X0078987Y0223894D01*
X0078487Y0223393D01*
D16*
X0101791Y0200055D02*
X0103563Y0200055D01*
X0101791Y0200055D02*
X0101791Y0181945D01*
X0103563Y0181945D01*
X0106437Y0174937D02*
X0106437Y0167063D01*
X0111555Y0167063D02*
X0111555Y0165291D01*
X0093445Y0165291D01*
X0093445Y0167063D01*
X0093445Y0174937D02*
X0093445Y0176709D01*
X0111555Y0176709D01*
X0111555Y0174937D01*
X0111437Y0181945D02*
X0113209Y0181945D01*
X0113209Y0200055D01*
X0111437Y0200055D01*
X0114291Y0200055D02*
X0116063Y0200055D01*
X0114291Y0200055D02*
X0114291Y0181945D01*
X0116063Y0181945D01*
X0123937Y0181945D02*
X0125709Y0181945D01*
X0125709Y0200055D01*
X0123937Y0200055D01*
X0126791Y0200055D02*
X0128563Y0200055D01*
X0126791Y0200055D02*
X0126791Y0181945D01*
X0128563Y0181945D01*
X0136437Y0181945D02*
X0138209Y0181945D01*
X0138209Y0200055D01*
X0136437Y0200055D01*
X0139291Y0200055D02*
X0141063Y0200055D01*
X0139291Y0200055D02*
X0139291Y0181945D01*
X0141063Y0181945D01*
X0148937Y0181945D02*
X0150709Y0181945D01*
X0150709Y0200055D01*
X0148937Y0200055D01*
X0148937Y0194937D02*
X0141063Y0194937D01*
X0136437Y0194937D02*
X0128563Y0194937D01*
X0123937Y0194937D02*
X0116063Y0194937D01*
X0111437Y0194937D02*
X0103563Y0194937D01*
X0155551Y0192063D02*
X0155551Y0199937D01*
X0161063Y0199937D01*
X0163819Y0198756D02*
X0163819Y0196000D01*
X0166181Y0198362D01*
X0166181Y0193638D01*
X0163819Y0196000D01*
X0163819Y0193244D01*
X0161063Y0192063D02*
X0155551Y0192063D01*
X0168937Y0192063D02*
X0174449Y0192063D01*
X0174449Y0199937D01*
X0168937Y0199937D01*
X0137618Y0044051D02*
X0134469Y0044051D01*
X0134469Y0037949D01*
X0127382Y0037949D01*
X0127382Y0044051D02*
X0134469Y0044051D01*
X0134469Y0037949D02*
X0137618Y0037949D01*
D17*
X0117763Y0136144D02*
X0115511Y0136144D01*
X0115511Y0140648D01*
X0117763Y0140648D01*
X0118514Y0139897D01*
X0118514Y0136894D01*
X0117763Y0136144D01*
X0113910Y0136894D02*
X0113910Y0137645D01*
X0113159Y0138396D01*
X0110907Y0138396D01*
X0110907Y0136894D01*
X0111658Y0136144D01*
X0113159Y0136144D01*
X0113910Y0136894D01*
X0112409Y0139897D02*
X0110907Y0138396D01*
X0112409Y0139897D02*
X0113910Y0140648D01*
X0109306Y0139897D02*
X0109306Y0136894D01*
X0108555Y0136144D01*
X0107054Y0136144D01*
X0106303Y0136894D01*
X0109306Y0139897D01*
X0108555Y0140648D01*
X0107054Y0140648D01*
X0106303Y0139897D01*
X0106303Y0136894D01*
X0104702Y0136894D02*
X0103951Y0136144D01*
X0102450Y0136144D01*
X0101700Y0136894D01*
X0102450Y0138396D02*
X0103951Y0138396D01*
X0104702Y0137645D01*
X0104702Y0136894D01*
X0104702Y0139897D02*
X0103951Y0140648D01*
X0102450Y0140648D01*
X0101700Y0139897D01*
X0101700Y0139146D01*
X0102450Y0138396D01*
X0100098Y0136144D02*
X0097096Y0136144D01*
X0097096Y0140648D01*
X0095494Y0138396D02*
X0092492Y0138396D01*
X0094744Y0140648D01*
X0094744Y0136144D01*
X0090890Y0139897D02*
X0087888Y0136894D01*
X0087888Y0136144D01*
X0087888Y0140648D02*
X0090890Y0140648D01*
X0090890Y0139897D01*
D18*
X0025000Y0191000D02*
X0002500Y0191000D01*
X0002500Y0201000D02*
X0025000Y0201000D01*
X0025000Y0211000D02*
X0002500Y0211000D01*
X0002500Y0221000D02*
X0025000Y0221000D01*
D19*
X0026500Y0221000D03*
X0026500Y0211000D03*
X0026500Y0201000D03*
X0026500Y0191000D03*
D20*
X0039500Y0191000D03*
X0039500Y0201000D03*
X0039500Y0211000D03*
X0039500Y0221000D03*
D21*
X0147500Y0131000D03*
X0147500Y0121000D03*
X0147500Y0111000D03*
X0147500Y0101000D03*
X0147500Y0091000D03*
X0147500Y0081000D03*
X0147500Y0071000D03*
X0147500Y0061000D03*
X0147500Y0051000D03*
X0147500Y0041000D03*
X0147500Y0031000D03*
X0147500Y0021000D03*
X0147500Y0011000D03*
X0157500Y0011000D03*
X0157500Y0021000D03*
X0157500Y0031000D03*
X0157500Y0041000D03*
X0157500Y0051000D03*
X0157500Y0061000D03*
X0157500Y0071000D03*
X0157500Y0081000D03*
X0157500Y0091000D03*
X0157500Y0101000D03*
X0157500Y0111000D03*
X0157500Y0121000D03*
X0157500Y0131000D03*
D22*
X0068750Y0233500D03*
M02*
