G75*
%MOIN*%
%OFA0B0*%
%FSLAX25Y25*%
%IPPOS*%
%LPD*%
%AMOC8*
5,1,8,0,0,1.08239X$1,22.5*
%
%ADD10C,0.00000*%
%ADD11C,0.00800*%
%ADD12C,0.00100*%
D10*
X0027500Y0001000D02*
X0027500Y0245961D01*
X0192500Y0246000D01*
X0192500Y0001000D01*
X0027500Y0001000D01*
X0104271Y0011000D02*
X0104273Y0011153D01*
X0104279Y0011307D01*
X0104289Y0011460D01*
X0104303Y0011612D01*
X0104321Y0011765D01*
X0104343Y0011916D01*
X0104368Y0012067D01*
X0104398Y0012218D01*
X0104432Y0012368D01*
X0104469Y0012516D01*
X0104510Y0012664D01*
X0104555Y0012810D01*
X0104604Y0012956D01*
X0104657Y0013100D01*
X0104713Y0013242D01*
X0104773Y0013383D01*
X0104837Y0013523D01*
X0104904Y0013661D01*
X0104975Y0013797D01*
X0105050Y0013931D01*
X0105127Y0014063D01*
X0105209Y0014193D01*
X0105293Y0014321D01*
X0105381Y0014447D01*
X0105472Y0014570D01*
X0105566Y0014691D01*
X0105664Y0014809D01*
X0105764Y0014925D01*
X0105868Y0015038D01*
X0105974Y0015149D01*
X0106083Y0015257D01*
X0106195Y0015362D01*
X0106309Y0015463D01*
X0106427Y0015562D01*
X0106546Y0015658D01*
X0106668Y0015751D01*
X0106793Y0015840D01*
X0106920Y0015927D01*
X0107049Y0016009D01*
X0107180Y0016089D01*
X0107313Y0016165D01*
X0107448Y0016238D01*
X0107585Y0016307D01*
X0107724Y0016372D01*
X0107864Y0016434D01*
X0108006Y0016492D01*
X0108149Y0016547D01*
X0108294Y0016598D01*
X0108440Y0016645D01*
X0108587Y0016688D01*
X0108735Y0016727D01*
X0108884Y0016763D01*
X0109034Y0016794D01*
X0109185Y0016822D01*
X0109336Y0016846D01*
X0109489Y0016866D01*
X0109641Y0016882D01*
X0109794Y0016894D01*
X0109947Y0016902D01*
X0110100Y0016906D01*
X0110254Y0016906D01*
X0110407Y0016902D01*
X0110560Y0016894D01*
X0110713Y0016882D01*
X0110865Y0016866D01*
X0111018Y0016846D01*
X0111169Y0016822D01*
X0111320Y0016794D01*
X0111470Y0016763D01*
X0111619Y0016727D01*
X0111767Y0016688D01*
X0111914Y0016645D01*
X0112060Y0016598D01*
X0112205Y0016547D01*
X0112348Y0016492D01*
X0112490Y0016434D01*
X0112630Y0016372D01*
X0112769Y0016307D01*
X0112906Y0016238D01*
X0113041Y0016165D01*
X0113174Y0016089D01*
X0113305Y0016009D01*
X0113434Y0015927D01*
X0113561Y0015840D01*
X0113686Y0015751D01*
X0113808Y0015658D01*
X0113927Y0015562D01*
X0114045Y0015463D01*
X0114159Y0015362D01*
X0114271Y0015257D01*
X0114380Y0015149D01*
X0114486Y0015038D01*
X0114590Y0014925D01*
X0114690Y0014809D01*
X0114788Y0014691D01*
X0114882Y0014570D01*
X0114973Y0014447D01*
X0115061Y0014321D01*
X0115145Y0014193D01*
X0115227Y0014063D01*
X0115304Y0013931D01*
X0115379Y0013797D01*
X0115450Y0013661D01*
X0115517Y0013523D01*
X0115581Y0013383D01*
X0115641Y0013242D01*
X0115697Y0013100D01*
X0115750Y0012956D01*
X0115799Y0012810D01*
X0115844Y0012664D01*
X0115885Y0012516D01*
X0115922Y0012368D01*
X0115956Y0012218D01*
X0115986Y0012067D01*
X0116011Y0011916D01*
X0116033Y0011765D01*
X0116051Y0011612D01*
X0116065Y0011460D01*
X0116075Y0011307D01*
X0116081Y0011153D01*
X0116083Y0011000D01*
X0116081Y0010847D01*
X0116075Y0010693D01*
X0116065Y0010540D01*
X0116051Y0010388D01*
X0116033Y0010235D01*
X0116011Y0010084D01*
X0115986Y0009933D01*
X0115956Y0009782D01*
X0115922Y0009632D01*
X0115885Y0009484D01*
X0115844Y0009336D01*
X0115799Y0009190D01*
X0115750Y0009044D01*
X0115697Y0008900D01*
X0115641Y0008758D01*
X0115581Y0008617D01*
X0115517Y0008477D01*
X0115450Y0008339D01*
X0115379Y0008203D01*
X0115304Y0008069D01*
X0115227Y0007937D01*
X0115145Y0007807D01*
X0115061Y0007679D01*
X0114973Y0007553D01*
X0114882Y0007430D01*
X0114788Y0007309D01*
X0114690Y0007191D01*
X0114590Y0007075D01*
X0114486Y0006962D01*
X0114380Y0006851D01*
X0114271Y0006743D01*
X0114159Y0006638D01*
X0114045Y0006537D01*
X0113927Y0006438D01*
X0113808Y0006342D01*
X0113686Y0006249D01*
X0113561Y0006160D01*
X0113434Y0006073D01*
X0113305Y0005991D01*
X0113174Y0005911D01*
X0113041Y0005835D01*
X0112906Y0005762D01*
X0112769Y0005693D01*
X0112630Y0005628D01*
X0112490Y0005566D01*
X0112348Y0005508D01*
X0112205Y0005453D01*
X0112060Y0005402D01*
X0111914Y0005355D01*
X0111767Y0005312D01*
X0111619Y0005273D01*
X0111470Y0005237D01*
X0111320Y0005206D01*
X0111169Y0005178D01*
X0111018Y0005154D01*
X0110865Y0005134D01*
X0110713Y0005118D01*
X0110560Y0005106D01*
X0110407Y0005098D01*
X0110254Y0005094D01*
X0110100Y0005094D01*
X0109947Y0005098D01*
X0109794Y0005106D01*
X0109641Y0005118D01*
X0109489Y0005134D01*
X0109336Y0005154D01*
X0109185Y0005178D01*
X0109034Y0005206D01*
X0108884Y0005237D01*
X0108735Y0005273D01*
X0108587Y0005312D01*
X0108440Y0005355D01*
X0108294Y0005402D01*
X0108149Y0005453D01*
X0108006Y0005508D01*
X0107864Y0005566D01*
X0107724Y0005628D01*
X0107585Y0005693D01*
X0107448Y0005762D01*
X0107313Y0005835D01*
X0107180Y0005911D01*
X0107049Y0005991D01*
X0106920Y0006073D01*
X0106793Y0006160D01*
X0106668Y0006249D01*
X0106546Y0006342D01*
X0106427Y0006438D01*
X0106309Y0006537D01*
X0106195Y0006638D01*
X0106083Y0006743D01*
X0105974Y0006851D01*
X0105868Y0006962D01*
X0105764Y0007075D01*
X0105664Y0007191D01*
X0105566Y0007309D01*
X0105472Y0007430D01*
X0105381Y0007553D01*
X0105293Y0007679D01*
X0105209Y0007807D01*
X0105127Y0007937D01*
X0105050Y0008069D01*
X0104975Y0008203D01*
X0104904Y0008339D01*
X0104837Y0008477D01*
X0104773Y0008617D01*
X0104713Y0008758D01*
X0104657Y0008900D01*
X0104604Y0009044D01*
X0104555Y0009190D01*
X0104510Y0009336D01*
X0104469Y0009484D01*
X0104432Y0009632D01*
X0104398Y0009782D01*
X0104368Y0009933D01*
X0104343Y0010084D01*
X0104321Y0010235D01*
X0104303Y0010388D01*
X0104289Y0010540D01*
X0104279Y0010693D01*
X0104273Y0010847D01*
X0104271Y0011000D01*
X0104271Y0235055D02*
X0104273Y0235208D01*
X0104279Y0235362D01*
X0104289Y0235515D01*
X0104303Y0235667D01*
X0104321Y0235820D01*
X0104343Y0235971D01*
X0104368Y0236122D01*
X0104398Y0236273D01*
X0104432Y0236423D01*
X0104469Y0236571D01*
X0104510Y0236719D01*
X0104555Y0236865D01*
X0104604Y0237011D01*
X0104657Y0237155D01*
X0104713Y0237297D01*
X0104773Y0237438D01*
X0104837Y0237578D01*
X0104904Y0237716D01*
X0104975Y0237852D01*
X0105050Y0237986D01*
X0105127Y0238118D01*
X0105209Y0238248D01*
X0105293Y0238376D01*
X0105381Y0238502D01*
X0105472Y0238625D01*
X0105566Y0238746D01*
X0105664Y0238864D01*
X0105764Y0238980D01*
X0105868Y0239093D01*
X0105974Y0239204D01*
X0106083Y0239312D01*
X0106195Y0239417D01*
X0106309Y0239518D01*
X0106427Y0239617D01*
X0106546Y0239713D01*
X0106668Y0239806D01*
X0106793Y0239895D01*
X0106920Y0239982D01*
X0107049Y0240064D01*
X0107180Y0240144D01*
X0107313Y0240220D01*
X0107448Y0240293D01*
X0107585Y0240362D01*
X0107724Y0240427D01*
X0107864Y0240489D01*
X0108006Y0240547D01*
X0108149Y0240602D01*
X0108294Y0240653D01*
X0108440Y0240700D01*
X0108587Y0240743D01*
X0108735Y0240782D01*
X0108884Y0240818D01*
X0109034Y0240849D01*
X0109185Y0240877D01*
X0109336Y0240901D01*
X0109489Y0240921D01*
X0109641Y0240937D01*
X0109794Y0240949D01*
X0109947Y0240957D01*
X0110100Y0240961D01*
X0110254Y0240961D01*
X0110407Y0240957D01*
X0110560Y0240949D01*
X0110713Y0240937D01*
X0110865Y0240921D01*
X0111018Y0240901D01*
X0111169Y0240877D01*
X0111320Y0240849D01*
X0111470Y0240818D01*
X0111619Y0240782D01*
X0111767Y0240743D01*
X0111914Y0240700D01*
X0112060Y0240653D01*
X0112205Y0240602D01*
X0112348Y0240547D01*
X0112490Y0240489D01*
X0112630Y0240427D01*
X0112769Y0240362D01*
X0112906Y0240293D01*
X0113041Y0240220D01*
X0113174Y0240144D01*
X0113305Y0240064D01*
X0113434Y0239982D01*
X0113561Y0239895D01*
X0113686Y0239806D01*
X0113808Y0239713D01*
X0113927Y0239617D01*
X0114045Y0239518D01*
X0114159Y0239417D01*
X0114271Y0239312D01*
X0114380Y0239204D01*
X0114486Y0239093D01*
X0114590Y0238980D01*
X0114690Y0238864D01*
X0114788Y0238746D01*
X0114882Y0238625D01*
X0114973Y0238502D01*
X0115061Y0238376D01*
X0115145Y0238248D01*
X0115227Y0238118D01*
X0115304Y0237986D01*
X0115379Y0237852D01*
X0115450Y0237716D01*
X0115517Y0237578D01*
X0115581Y0237438D01*
X0115641Y0237297D01*
X0115697Y0237155D01*
X0115750Y0237011D01*
X0115799Y0236865D01*
X0115844Y0236719D01*
X0115885Y0236571D01*
X0115922Y0236423D01*
X0115956Y0236273D01*
X0115986Y0236122D01*
X0116011Y0235971D01*
X0116033Y0235820D01*
X0116051Y0235667D01*
X0116065Y0235515D01*
X0116075Y0235362D01*
X0116081Y0235208D01*
X0116083Y0235055D01*
X0116081Y0234902D01*
X0116075Y0234748D01*
X0116065Y0234595D01*
X0116051Y0234443D01*
X0116033Y0234290D01*
X0116011Y0234139D01*
X0115986Y0233988D01*
X0115956Y0233837D01*
X0115922Y0233687D01*
X0115885Y0233539D01*
X0115844Y0233391D01*
X0115799Y0233245D01*
X0115750Y0233099D01*
X0115697Y0232955D01*
X0115641Y0232813D01*
X0115581Y0232672D01*
X0115517Y0232532D01*
X0115450Y0232394D01*
X0115379Y0232258D01*
X0115304Y0232124D01*
X0115227Y0231992D01*
X0115145Y0231862D01*
X0115061Y0231734D01*
X0114973Y0231608D01*
X0114882Y0231485D01*
X0114788Y0231364D01*
X0114690Y0231246D01*
X0114590Y0231130D01*
X0114486Y0231017D01*
X0114380Y0230906D01*
X0114271Y0230798D01*
X0114159Y0230693D01*
X0114045Y0230592D01*
X0113927Y0230493D01*
X0113808Y0230397D01*
X0113686Y0230304D01*
X0113561Y0230215D01*
X0113434Y0230128D01*
X0113305Y0230046D01*
X0113174Y0229966D01*
X0113041Y0229890D01*
X0112906Y0229817D01*
X0112769Y0229748D01*
X0112630Y0229683D01*
X0112490Y0229621D01*
X0112348Y0229563D01*
X0112205Y0229508D01*
X0112060Y0229457D01*
X0111914Y0229410D01*
X0111767Y0229367D01*
X0111619Y0229328D01*
X0111470Y0229292D01*
X0111320Y0229261D01*
X0111169Y0229233D01*
X0111018Y0229209D01*
X0110865Y0229189D01*
X0110713Y0229173D01*
X0110560Y0229161D01*
X0110407Y0229153D01*
X0110254Y0229149D01*
X0110100Y0229149D01*
X0109947Y0229153D01*
X0109794Y0229161D01*
X0109641Y0229173D01*
X0109489Y0229189D01*
X0109336Y0229209D01*
X0109185Y0229233D01*
X0109034Y0229261D01*
X0108884Y0229292D01*
X0108735Y0229328D01*
X0108587Y0229367D01*
X0108440Y0229410D01*
X0108294Y0229457D01*
X0108149Y0229508D01*
X0108006Y0229563D01*
X0107864Y0229621D01*
X0107724Y0229683D01*
X0107585Y0229748D01*
X0107448Y0229817D01*
X0107313Y0229890D01*
X0107180Y0229966D01*
X0107049Y0230046D01*
X0106920Y0230128D01*
X0106793Y0230215D01*
X0106668Y0230304D01*
X0106546Y0230397D01*
X0106427Y0230493D01*
X0106309Y0230592D01*
X0106195Y0230693D01*
X0106083Y0230798D01*
X0105974Y0230906D01*
X0105868Y0231017D01*
X0105764Y0231130D01*
X0105664Y0231246D01*
X0105566Y0231364D01*
X0105472Y0231485D01*
X0105381Y0231608D01*
X0105293Y0231734D01*
X0105209Y0231862D01*
X0105127Y0231992D01*
X0105050Y0232124D01*
X0104975Y0232258D01*
X0104904Y0232394D01*
X0104837Y0232532D01*
X0104773Y0232672D01*
X0104713Y0232813D01*
X0104657Y0232955D01*
X0104604Y0233099D01*
X0104555Y0233245D01*
X0104510Y0233391D01*
X0104469Y0233539D01*
X0104432Y0233687D01*
X0104398Y0233837D01*
X0104368Y0233988D01*
X0104343Y0234139D01*
X0104321Y0234290D01*
X0104303Y0234443D01*
X0104289Y0234595D01*
X0104279Y0234748D01*
X0104273Y0234902D01*
X0104271Y0235055D01*
D11*
X0121791Y0147555D02*
X0121791Y0129445D01*
X0123563Y0129445D01*
X0131437Y0129445D02*
X0133209Y0129445D01*
X0133209Y0147555D01*
X0131437Y0147555D01*
X0131437Y0142437D02*
X0123563Y0142437D01*
X0123563Y0147555D02*
X0121791Y0147555D01*
D12*
X0124379Y0150660D02*
X0124379Y0151661D01*
X0124879Y0152162D01*
X0125380Y0151661D01*
X0125380Y0150660D01*
X0125852Y0150910D02*
X0126102Y0150660D01*
X0126603Y0150660D01*
X0126853Y0150910D01*
X0125852Y0151911D01*
X0125852Y0150910D01*
X0125380Y0151411D02*
X0124379Y0151411D01*
X0125852Y0151911D02*
X0126102Y0152162D01*
X0126603Y0152162D01*
X0126853Y0151911D01*
X0126853Y0150910D01*
X0127325Y0151411D02*
X0128326Y0151411D01*
X0127576Y0152162D01*
X0127576Y0150660D01*
X0128799Y0150910D02*
X0129049Y0150660D01*
X0129549Y0150660D01*
X0129800Y0150910D01*
X0130272Y0150910D02*
X0130522Y0150660D01*
X0131273Y0150660D01*
X0131273Y0152162D01*
X0130522Y0152162D01*
X0130272Y0151911D01*
X0130272Y0151661D01*
X0130522Y0151411D01*
X0131273Y0151411D01*
X0130522Y0151411D02*
X0130272Y0151161D01*
X0130272Y0150910D01*
X0129299Y0151411D02*
X0129049Y0151411D01*
X0128799Y0151161D01*
X0128799Y0150910D01*
X0129049Y0151411D02*
X0128799Y0151661D01*
X0128799Y0151911D01*
X0129049Y0152162D01*
X0129549Y0152162D01*
X0129800Y0151911D01*
X0150311Y0143658D02*
X0150311Y0143407D01*
X0151312Y0142407D01*
X0151312Y0142156D01*
X0151789Y0142156D02*
X0152540Y0142657D01*
X0151789Y0143157D01*
X0151312Y0143658D02*
X0150311Y0143658D01*
X0152540Y0143658D02*
X0152540Y0142156D01*
X0153262Y0142156D02*
X0153262Y0143658D01*
X0154013Y0142907D01*
X0153012Y0142907D01*
X0134050Y0115764D02*
X0134800Y0115013D01*
X0133800Y0115013D01*
X0133327Y0114763D02*
X0132577Y0115263D01*
X0132099Y0115764D02*
X0131099Y0115764D01*
X0131099Y0115514D01*
X0132099Y0114513D01*
X0132099Y0114263D01*
X0132577Y0114263D02*
X0133327Y0114763D01*
X0133327Y0114263D02*
X0133327Y0115764D01*
X0134050Y0115764D02*
X0134050Y0114263D01*
X0133800Y0088658D02*
X0134300Y0088407D01*
X0134800Y0087907D01*
X0134050Y0087907D01*
X0133800Y0087657D01*
X0133800Y0087407D01*
X0134050Y0087156D01*
X0134550Y0087156D01*
X0134800Y0087407D01*
X0134800Y0087907D01*
X0133327Y0087657D02*
X0132577Y0088157D01*
X0132099Y0088157D02*
X0132099Y0088407D01*
X0131849Y0088658D01*
X0131349Y0088658D01*
X0131099Y0088407D01*
X0131099Y0088157D01*
X0131349Y0087907D01*
X0131849Y0087907D01*
X0132099Y0088157D01*
X0131849Y0087907D02*
X0132099Y0087657D01*
X0132099Y0087407D01*
X0131849Y0087156D01*
X0131349Y0087156D01*
X0131099Y0087407D01*
X0131099Y0087657D01*
X0131349Y0087907D01*
X0132577Y0087156D02*
X0133327Y0087657D01*
X0133327Y0087156D02*
X0133327Y0088658D01*
X0133753Y0082051D02*
X0133503Y0081801D01*
X0134503Y0080800D01*
X0134253Y0080550D01*
X0133753Y0080550D01*
X0133503Y0080800D01*
X0133503Y0081801D01*
X0133753Y0082051D02*
X0134253Y0082051D01*
X0134503Y0081801D01*
X0134503Y0080800D01*
X0134976Y0080550D02*
X0135977Y0080550D01*
X0134976Y0081551D01*
X0134976Y0081801D01*
X0135226Y0082051D01*
X0135727Y0082051D01*
X0135977Y0081801D01*
X0136449Y0081801D02*
X0136449Y0081301D01*
X0136699Y0081050D01*
X0137450Y0081050D01*
X0137450Y0080550D02*
X0137450Y0082051D01*
X0136699Y0082051D01*
X0136449Y0081801D01*
X0136950Y0081050D02*
X0136449Y0080550D01*
X0133800Y0070764D02*
X0134300Y0070514D01*
X0134800Y0070013D01*
X0134050Y0070013D01*
X0133800Y0069763D01*
X0133800Y0069513D01*
X0134050Y0069263D01*
X0134550Y0069263D01*
X0134800Y0069513D01*
X0134800Y0070013D01*
X0133327Y0069763D02*
X0132577Y0070263D01*
X0132099Y0070263D02*
X0132099Y0070514D01*
X0131849Y0070764D01*
X0131349Y0070764D01*
X0131099Y0070514D01*
X0131099Y0070263D01*
X0131349Y0070013D01*
X0131849Y0070013D01*
X0132099Y0070263D01*
X0131849Y0070013D02*
X0132099Y0069763D01*
X0132099Y0069513D01*
X0131849Y0069263D01*
X0131349Y0069263D01*
X0131099Y0069513D01*
X0131099Y0069763D01*
X0131349Y0070013D01*
X0132577Y0069263D02*
X0133327Y0069763D01*
X0133327Y0069263D02*
X0133327Y0070764D01*
X0132855Y0025606D02*
X0133355Y0025356D01*
X0133856Y0024856D01*
X0133105Y0024856D01*
X0132855Y0024606D01*
X0132855Y0024355D01*
X0133105Y0024105D01*
X0133605Y0024105D01*
X0133856Y0024355D01*
X0133856Y0024856D01*
X0132382Y0024606D02*
X0131632Y0025106D01*
X0131155Y0025106D02*
X0131155Y0025356D01*
X0130904Y0025606D01*
X0130404Y0025606D01*
X0130154Y0025356D01*
X0130154Y0025106D01*
X0130404Y0024856D01*
X0130904Y0024856D01*
X0131155Y0025106D01*
X0130904Y0024856D02*
X0131155Y0024606D01*
X0131155Y0024355D01*
X0130904Y0024105D01*
X0130404Y0024105D01*
X0130154Y0024355D01*
X0130154Y0024606D01*
X0130404Y0024856D01*
X0131632Y0024105D02*
X0132382Y0024606D01*
X0132382Y0024105D02*
X0132382Y0025606D01*
X0182643Y0039449D02*
X0182643Y0039949D01*
X0182893Y0040199D01*
X0183143Y0040199D01*
X0183394Y0039949D01*
X0183394Y0039199D01*
X0182893Y0039199D01*
X0182643Y0039449D01*
X0183394Y0039199D02*
X0183894Y0039699D01*
X0184144Y0040199D01*
X0184144Y0040672D02*
X0182643Y0040672D01*
X0183143Y0040672D02*
X0183644Y0041423D01*
X0183644Y0041900D02*
X0183894Y0041900D01*
X0184144Y0042150D01*
X0184144Y0042650D01*
X0183894Y0042900D01*
X0183644Y0042900D01*
X0183394Y0042650D01*
X0183394Y0042150D01*
X0183644Y0041900D01*
X0183394Y0042150D02*
X0183143Y0041900D01*
X0182893Y0041900D01*
X0182643Y0042150D01*
X0182643Y0042650D01*
X0182893Y0042900D01*
X0183143Y0042900D01*
X0183394Y0042650D01*
X0182643Y0041423D02*
X0183143Y0040672D01*
X0183291Y0049147D02*
X0183291Y0049898D01*
X0183041Y0050148D01*
X0182791Y0050148D01*
X0182541Y0049898D01*
X0182541Y0049398D01*
X0182791Y0049147D01*
X0183291Y0049147D01*
X0183792Y0049648D01*
X0184042Y0050148D01*
X0184042Y0050621D02*
X0182541Y0050621D01*
X0183041Y0050621D02*
X0183541Y0051371D01*
X0183541Y0051848D02*
X0183792Y0051848D01*
X0184042Y0052099D01*
X0184042Y0052599D01*
X0183792Y0052849D01*
X0183541Y0052849D01*
X0183291Y0052599D01*
X0183291Y0052099D01*
X0183541Y0051848D01*
X0183291Y0052099D02*
X0183041Y0051848D01*
X0182791Y0051848D01*
X0182541Y0052099D01*
X0182541Y0052599D01*
X0182791Y0052849D01*
X0183041Y0052849D01*
X0183291Y0052599D01*
X0182541Y0051371D02*
X0183041Y0050621D01*
X0182893Y0059277D02*
X0182643Y0059528D01*
X0182643Y0060028D01*
X0182893Y0060278D01*
X0183143Y0060278D01*
X0183394Y0060028D01*
X0183394Y0059277D01*
X0182893Y0059277D01*
X0183394Y0059277D02*
X0183894Y0059778D01*
X0184144Y0060278D01*
X0184144Y0060751D02*
X0182643Y0060751D01*
X0183143Y0060751D02*
X0183644Y0061501D01*
X0183644Y0061978D02*
X0183894Y0061978D01*
X0184144Y0062229D01*
X0184144Y0062729D01*
X0183894Y0062979D01*
X0183644Y0062979D01*
X0183394Y0062729D01*
X0183394Y0062229D01*
X0183644Y0061978D01*
X0183394Y0062229D02*
X0183143Y0061978D01*
X0182893Y0061978D01*
X0182643Y0062229D01*
X0182643Y0062729D01*
X0182893Y0062979D01*
X0183143Y0062979D01*
X0183394Y0062729D01*
X0182643Y0061501D02*
X0183143Y0060751D01*
X0182307Y0103832D02*
X0182307Y0104833D01*
X0182057Y0105306D02*
X0182557Y0106056D01*
X0183058Y0106533D02*
X0183058Y0107534D01*
X0182807Y0107534D01*
X0181807Y0106533D01*
X0181556Y0106533D01*
X0181556Y0106056D02*
X0182057Y0105306D01*
X0181556Y0105306D02*
X0183058Y0105306D01*
X0183058Y0104583D02*
X0182307Y0103832D01*
X0181556Y0104583D02*
X0183058Y0104583D01*
X0173058Y0104583D02*
X0172307Y0103832D01*
X0172307Y0104833D01*
X0172057Y0105306D02*
X0172557Y0106056D01*
X0173058Y0106533D02*
X0173058Y0107534D01*
X0172807Y0107534D01*
X0171807Y0106533D01*
X0171556Y0106533D01*
X0171556Y0106056D02*
X0172057Y0105306D01*
X0171556Y0105306D02*
X0173058Y0105306D01*
X0173058Y0104583D02*
X0171556Y0104583D01*
X0080450Y0091301D02*
X0080200Y0091551D01*
X0079699Y0091551D01*
X0079449Y0091301D01*
X0079449Y0091051D01*
X0080450Y0090050D01*
X0079449Y0090050D01*
X0078977Y0090050D02*
X0078977Y0091551D01*
X0078226Y0091051D02*
X0078977Y0090550D01*
X0078226Y0090050D01*
X0077749Y0090050D02*
X0077749Y0090300D01*
X0076748Y0091301D01*
X0076748Y0091551D01*
X0077749Y0091551D01*
X0077749Y0081551D02*
X0076748Y0081551D01*
X0076748Y0081301D01*
X0077749Y0080300D01*
X0077749Y0080050D01*
X0078226Y0080050D02*
X0078977Y0080550D01*
X0078226Y0081051D01*
X0078977Y0081551D02*
X0078977Y0080050D01*
X0079449Y0080050D02*
X0080450Y0080050D01*
X0079449Y0081051D01*
X0079449Y0081301D01*
X0079699Y0081551D01*
X0080200Y0081551D01*
X0080450Y0081301D01*
X0080200Y0071551D02*
X0080450Y0071301D01*
X0080200Y0071551D02*
X0079699Y0071551D01*
X0079449Y0071301D01*
X0079449Y0071051D01*
X0080450Y0070050D01*
X0079449Y0070050D01*
X0078977Y0070050D02*
X0078977Y0071551D01*
X0078226Y0071051D02*
X0078977Y0070550D01*
X0078226Y0070050D01*
X0077749Y0070050D02*
X0077749Y0070300D01*
X0076748Y0071301D01*
X0076748Y0071551D01*
X0077749Y0071551D01*
X0077749Y0061551D02*
X0076748Y0061551D01*
X0076748Y0061301D01*
X0077749Y0060300D01*
X0077749Y0060050D01*
X0078226Y0060050D02*
X0078977Y0060550D01*
X0078226Y0061051D01*
X0078977Y0061551D02*
X0078977Y0060050D01*
X0079449Y0060050D02*
X0080450Y0060050D01*
X0079449Y0061051D01*
X0079449Y0061301D01*
X0079699Y0061551D01*
X0080200Y0061551D01*
X0080450Y0061301D01*
X0072450Y0027051D02*
X0071699Y0027051D01*
X0071449Y0026801D01*
X0071449Y0026301D01*
X0071699Y0026050D01*
X0072450Y0026050D01*
X0072450Y0025550D02*
X0072450Y0027051D01*
X0071950Y0026050D02*
X0071449Y0025550D01*
X0070977Y0025550D02*
X0069976Y0025550D01*
X0069503Y0025550D02*
X0068503Y0026551D01*
X0068503Y0026801D01*
X0068753Y0027051D01*
X0069253Y0027051D01*
X0069503Y0026801D01*
X0070476Y0027051D02*
X0070476Y0025550D01*
X0069503Y0025550D02*
X0068503Y0025550D01*
X0070476Y0027051D02*
X0070977Y0026551D01*
X0071477Y0016551D02*
X0071477Y0015050D01*
X0071949Y0015050D02*
X0072950Y0015050D01*
X0071949Y0016051D01*
X0071949Y0016301D01*
X0072199Y0016551D01*
X0072700Y0016551D01*
X0072950Y0016301D01*
X0071477Y0015550D02*
X0070726Y0016051D01*
X0070249Y0016551D02*
X0069248Y0016551D01*
X0069248Y0016301D01*
X0070249Y0015300D01*
X0070249Y0015050D01*
X0070726Y0015050D02*
X0071477Y0015550D01*
X0071434Y0102707D02*
X0070433Y0103708D01*
X0070433Y0103959D01*
X0070684Y0104209D01*
X0071184Y0104209D01*
X0071434Y0103959D01*
X0071434Y0102707D02*
X0070433Y0102707D01*
X0069961Y0102707D02*
X0069961Y0104209D01*
X0069210Y0103708D02*
X0069961Y0103208D01*
X0069210Y0102707D01*
X0068733Y0102707D02*
X0068733Y0102958D01*
X0067732Y0103959D01*
X0067732Y0104209D01*
X0068733Y0104209D01*
X0061592Y0103945D02*
X0061091Y0104445D01*
X0061091Y0102944D01*
X0060591Y0102944D02*
X0061592Y0102944D01*
X0060118Y0102944D02*
X0060118Y0104445D01*
X0059368Y0103945D02*
X0060118Y0103444D01*
X0059368Y0102944D01*
M02*
