G75*
%MOIN*%
%OFA0B0*%
%FSLAX25Y25*%
%IPPOS*%
%LPD*%
%AMOC8*
5,1,8,0,0,1.08239X$1,22.5*
%
%ADD10C,0.00000*%
%ADD11C,0.06000*%
%ADD12R,0.05512X0.08661*%
%ADD13R,0.06299X0.07087*%
%ADD14R,0.07087X0.06299*%
%ADD15C,0.06600*%
%ADD16R,0.03543X0.03740*%
%ADD17R,0.02600X0.08000*%
%ADD18OC8,0.06000*%
%ADD19R,0.06000X0.06000*%
%ADD20OC8,0.05200*%
%ADD21C,0.05200*%
%ADD22C,0.01600*%
%ADD23R,0.04724X0.04724*%
%ADD24R,0.03562X0.03562*%
%ADD25C,0.01200*%
D10*
X0027500Y0001000D02*
X0027500Y0245961D01*
X0192500Y0246000D01*
X0192500Y0001000D01*
X0027500Y0001000D01*
X0104271Y0011000D02*
X0104273Y0011153D01*
X0104279Y0011307D01*
X0104289Y0011460D01*
X0104303Y0011612D01*
X0104321Y0011765D01*
X0104343Y0011916D01*
X0104368Y0012067D01*
X0104398Y0012218D01*
X0104432Y0012368D01*
X0104469Y0012516D01*
X0104510Y0012664D01*
X0104555Y0012810D01*
X0104604Y0012956D01*
X0104657Y0013100D01*
X0104713Y0013242D01*
X0104773Y0013383D01*
X0104837Y0013523D01*
X0104904Y0013661D01*
X0104975Y0013797D01*
X0105050Y0013931D01*
X0105127Y0014063D01*
X0105209Y0014193D01*
X0105293Y0014321D01*
X0105381Y0014447D01*
X0105472Y0014570D01*
X0105566Y0014691D01*
X0105664Y0014809D01*
X0105764Y0014925D01*
X0105868Y0015038D01*
X0105974Y0015149D01*
X0106083Y0015257D01*
X0106195Y0015362D01*
X0106309Y0015463D01*
X0106427Y0015562D01*
X0106546Y0015658D01*
X0106668Y0015751D01*
X0106793Y0015840D01*
X0106920Y0015927D01*
X0107049Y0016009D01*
X0107180Y0016089D01*
X0107313Y0016165D01*
X0107448Y0016238D01*
X0107585Y0016307D01*
X0107724Y0016372D01*
X0107864Y0016434D01*
X0108006Y0016492D01*
X0108149Y0016547D01*
X0108294Y0016598D01*
X0108440Y0016645D01*
X0108587Y0016688D01*
X0108735Y0016727D01*
X0108884Y0016763D01*
X0109034Y0016794D01*
X0109185Y0016822D01*
X0109336Y0016846D01*
X0109489Y0016866D01*
X0109641Y0016882D01*
X0109794Y0016894D01*
X0109947Y0016902D01*
X0110100Y0016906D01*
X0110254Y0016906D01*
X0110407Y0016902D01*
X0110560Y0016894D01*
X0110713Y0016882D01*
X0110865Y0016866D01*
X0111018Y0016846D01*
X0111169Y0016822D01*
X0111320Y0016794D01*
X0111470Y0016763D01*
X0111619Y0016727D01*
X0111767Y0016688D01*
X0111914Y0016645D01*
X0112060Y0016598D01*
X0112205Y0016547D01*
X0112348Y0016492D01*
X0112490Y0016434D01*
X0112630Y0016372D01*
X0112769Y0016307D01*
X0112906Y0016238D01*
X0113041Y0016165D01*
X0113174Y0016089D01*
X0113305Y0016009D01*
X0113434Y0015927D01*
X0113561Y0015840D01*
X0113686Y0015751D01*
X0113808Y0015658D01*
X0113927Y0015562D01*
X0114045Y0015463D01*
X0114159Y0015362D01*
X0114271Y0015257D01*
X0114380Y0015149D01*
X0114486Y0015038D01*
X0114590Y0014925D01*
X0114690Y0014809D01*
X0114788Y0014691D01*
X0114882Y0014570D01*
X0114973Y0014447D01*
X0115061Y0014321D01*
X0115145Y0014193D01*
X0115227Y0014063D01*
X0115304Y0013931D01*
X0115379Y0013797D01*
X0115450Y0013661D01*
X0115517Y0013523D01*
X0115581Y0013383D01*
X0115641Y0013242D01*
X0115697Y0013100D01*
X0115750Y0012956D01*
X0115799Y0012810D01*
X0115844Y0012664D01*
X0115885Y0012516D01*
X0115922Y0012368D01*
X0115956Y0012218D01*
X0115986Y0012067D01*
X0116011Y0011916D01*
X0116033Y0011765D01*
X0116051Y0011612D01*
X0116065Y0011460D01*
X0116075Y0011307D01*
X0116081Y0011153D01*
X0116083Y0011000D01*
X0116081Y0010847D01*
X0116075Y0010693D01*
X0116065Y0010540D01*
X0116051Y0010388D01*
X0116033Y0010235D01*
X0116011Y0010084D01*
X0115986Y0009933D01*
X0115956Y0009782D01*
X0115922Y0009632D01*
X0115885Y0009484D01*
X0115844Y0009336D01*
X0115799Y0009190D01*
X0115750Y0009044D01*
X0115697Y0008900D01*
X0115641Y0008758D01*
X0115581Y0008617D01*
X0115517Y0008477D01*
X0115450Y0008339D01*
X0115379Y0008203D01*
X0115304Y0008069D01*
X0115227Y0007937D01*
X0115145Y0007807D01*
X0115061Y0007679D01*
X0114973Y0007553D01*
X0114882Y0007430D01*
X0114788Y0007309D01*
X0114690Y0007191D01*
X0114590Y0007075D01*
X0114486Y0006962D01*
X0114380Y0006851D01*
X0114271Y0006743D01*
X0114159Y0006638D01*
X0114045Y0006537D01*
X0113927Y0006438D01*
X0113808Y0006342D01*
X0113686Y0006249D01*
X0113561Y0006160D01*
X0113434Y0006073D01*
X0113305Y0005991D01*
X0113174Y0005911D01*
X0113041Y0005835D01*
X0112906Y0005762D01*
X0112769Y0005693D01*
X0112630Y0005628D01*
X0112490Y0005566D01*
X0112348Y0005508D01*
X0112205Y0005453D01*
X0112060Y0005402D01*
X0111914Y0005355D01*
X0111767Y0005312D01*
X0111619Y0005273D01*
X0111470Y0005237D01*
X0111320Y0005206D01*
X0111169Y0005178D01*
X0111018Y0005154D01*
X0110865Y0005134D01*
X0110713Y0005118D01*
X0110560Y0005106D01*
X0110407Y0005098D01*
X0110254Y0005094D01*
X0110100Y0005094D01*
X0109947Y0005098D01*
X0109794Y0005106D01*
X0109641Y0005118D01*
X0109489Y0005134D01*
X0109336Y0005154D01*
X0109185Y0005178D01*
X0109034Y0005206D01*
X0108884Y0005237D01*
X0108735Y0005273D01*
X0108587Y0005312D01*
X0108440Y0005355D01*
X0108294Y0005402D01*
X0108149Y0005453D01*
X0108006Y0005508D01*
X0107864Y0005566D01*
X0107724Y0005628D01*
X0107585Y0005693D01*
X0107448Y0005762D01*
X0107313Y0005835D01*
X0107180Y0005911D01*
X0107049Y0005991D01*
X0106920Y0006073D01*
X0106793Y0006160D01*
X0106668Y0006249D01*
X0106546Y0006342D01*
X0106427Y0006438D01*
X0106309Y0006537D01*
X0106195Y0006638D01*
X0106083Y0006743D01*
X0105974Y0006851D01*
X0105868Y0006962D01*
X0105764Y0007075D01*
X0105664Y0007191D01*
X0105566Y0007309D01*
X0105472Y0007430D01*
X0105381Y0007553D01*
X0105293Y0007679D01*
X0105209Y0007807D01*
X0105127Y0007937D01*
X0105050Y0008069D01*
X0104975Y0008203D01*
X0104904Y0008339D01*
X0104837Y0008477D01*
X0104773Y0008617D01*
X0104713Y0008758D01*
X0104657Y0008900D01*
X0104604Y0009044D01*
X0104555Y0009190D01*
X0104510Y0009336D01*
X0104469Y0009484D01*
X0104432Y0009632D01*
X0104398Y0009782D01*
X0104368Y0009933D01*
X0104343Y0010084D01*
X0104321Y0010235D01*
X0104303Y0010388D01*
X0104289Y0010540D01*
X0104279Y0010693D01*
X0104273Y0010847D01*
X0104271Y0011000D01*
X0104271Y0235055D02*
X0104273Y0235208D01*
X0104279Y0235362D01*
X0104289Y0235515D01*
X0104303Y0235667D01*
X0104321Y0235820D01*
X0104343Y0235971D01*
X0104368Y0236122D01*
X0104398Y0236273D01*
X0104432Y0236423D01*
X0104469Y0236571D01*
X0104510Y0236719D01*
X0104555Y0236865D01*
X0104604Y0237011D01*
X0104657Y0237155D01*
X0104713Y0237297D01*
X0104773Y0237438D01*
X0104837Y0237578D01*
X0104904Y0237716D01*
X0104975Y0237852D01*
X0105050Y0237986D01*
X0105127Y0238118D01*
X0105209Y0238248D01*
X0105293Y0238376D01*
X0105381Y0238502D01*
X0105472Y0238625D01*
X0105566Y0238746D01*
X0105664Y0238864D01*
X0105764Y0238980D01*
X0105868Y0239093D01*
X0105974Y0239204D01*
X0106083Y0239312D01*
X0106195Y0239417D01*
X0106309Y0239518D01*
X0106427Y0239617D01*
X0106546Y0239713D01*
X0106668Y0239806D01*
X0106793Y0239895D01*
X0106920Y0239982D01*
X0107049Y0240064D01*
X0107180Y0240144D01*
X0107313Y0240220D01*
X0107448Y0240293D01*
X0107585Y0240362D01*
X0107724Y0240427D01*
X0107864Y0240489D01*
X0108006Y0240547D01*
X0108149Y0240602D01*
X0108294Y0240653D01*
X0108440Y0240700D01*
X0108587Y0240743D01*
X0108735Y0240782D01*
X0108884Y0240818D01*
X0109034Y0240849D01*
X0109185Y0240877D01*
X0109336Y0240901D01*
X0109489Y0240921D01*
X0109641Y0240937D01*
X0109794Y0240949D01*
X0109947Y0240957D01*
X0110100Y0240961D01*
X0110254Y0240961D01*
X0110407Y0240957D01*
X0110560Y0240949D01*
X0110713Y0240937D01*
X0110865Y0240921D01*
X0111018Y0240901D01*
X0111169Y0240877D01*
X0111320Y0240849D01*
X0111470Y0240818D01*
X0111619Y0240782D01*
X0111767Y0240743D01*
X0111914Y0240700D01*
X0112060Y0240653D01*
X0112205Y0240602D01*
X0112348Y0240547D01*
X0112490Y0240489D01*
X0112630Y0240427D01*
X0112769Y0240362D01*
X0112906Y0240293D01*
X0113041Y0240220D01*
X0113174Y0240144D01*
X0113305Y0240064D01*
X0113434Y0239982D01*
X0113561Y0239895D01*
X0113686Y0239806D01*
X0113808Y0239713D01*
X0113927Y0239617D01*
X0114045Y0239518D01*
X0114159Y0239417D01*
X0114271Y0239312D01*
X0114380Y0239204D01*
X0114486Y0239093D01*
X0114590Y0238980D01*
X0114690Y0238864D01*
X0114788Y0238746D01*
X0114882Y0238625D01*
X0114973Y0238502D01*
X0115061Y0238376D01*
X0115145Y0238248D01*
X0115227Y0238118D01*
X0115304Y0237986D01*
X0115379Y0237852D01*
X0115450Y0237716D01*
X0115517Y0237578D01*
X0115581Y0237438D01*
X0115641Y0237297D01*
X0115697Y0237155D01*
X0115750Y0237011D01*
X0115799Y0236865D01*
X0115844Y0236719D01*
X0115885Y0236571D01*
X0115922Y0236423D01*
X0115956Y0236273D01*
X0115986Y0236122D01*
X0116011Y0235971D01*
X0116033Y0235820D01*
X0116051Y0235667D01*
X0116065Y0235515D01*
X0116075Y0235362D01*
X0116081Y0235208D01*
X0116083Y0235055D01*
X0116081Y0234902D01*
X0116075Y0234748D01*
X0116065Y0234595D01*
X0116051Y0234443D01*
X0116033Y0234290D01*
X0116011Y0234139D01*
X0115986Y0233988D01*
X0115956Y0233837D01*
X0115922Y0233687D01*
X0115885Y0233539D01*
X0115844Y0233391D01*
X0115799Y0233245D01*
X0115750Y0233099D01*
X0115697Y0232955D01*
X0115641Y0232813D01*
X0115581Y0232672D01*
X0115517Y0232532D01*
X0115450Y0232394D01*
X0115379Y0232258D01*
X0115304Y0232124D01*
X0115227Y0231992D01*
X0115145Y0231862D01*
X0115061Y0231734D01*
X0114973Y0231608D01*
X0114882Y0231485D01*
X0114788Y0231364D01*
X0114690Y0231246D01*
X0114590Y0231130D01*
X0114486Y0231017D01*
X0114380Y0230906D01*
X0114271Y0230798D01*
X0114159Y0230693D01*
X0114045Y0230592D01*
X0113927Y0230493D01*
X0113808Y0230397D01*
X0113686Y0230304D01*
X0113561Y0230215D01*
X0113434Y0230128D01*
X0113305Y0230046D01*
X0113174Y0229966D01*
X0113041Y0229890D01*
X0112906Y0229817D01*
X0112769Y0229748D01*
X0112630Y0229683D01*
X0112490Y0229621D01*
X0112348Y0229563D01*
X0112205Y0229508D01*
X0112060Y0229457D01*
X0111914Y0229410D01*
X0111767Y0229367D01*
X0111619Y0229328D01*
X0111470Y0229292D01*
X0111320Y0229261D01*
X0111169Y0229233D01*
X0111018Y0229209D01*
X0110865Y0229189D01*
X0110713Y0229173D01*
X0110560Y0229161D01*
X0110407Y0229153D01*
X0110254Y0229149D01*
X0110100Y0229149D01*
X0109947Y0229153D01*
X0109794Y0229161D01*
X0109641Y0229173D01*
X0109489Y0229189D01*
X0109336Y0229209D01*
X0109185Y0229233D01*
X0109034Y0229261D01*
X0108884Y0229292D01*
X0108735Y0229328D01*
X0108587Y0229367D01*
X0108440Y0229410D01*
X0108294Y0229457D01*
X0108149Y0229508D01*
X0108006Y0229563D01*
X0107864Y0229621D01*
X0107724Y0229683D01*
X0107585Y0229748D01*
X0107448Y0229817D01*
X0107313Y0229890D01*
X0107180Y0229966D01*
X0107049Y0230046D01*
X0106920Y0230128D01*
X0106793Y0230215D01*
X0106668Y0230304D01*
X0106546Y0230397D01*
X0106427Y0230493D01*
X0106309Y0230592D01*
X0106195Y0230693D01*
X0106083Y0230798D01*
X0105974Y0230906D01*
X0105868Y0231017D01*
X0105764Y0231130D01*
X0105664Y0231246D01*
X0105566Y0231364D01*
X0105472Y0231485D01*
X0105381Y0231608D01*
X0105293Y0231734D01*
X0105209Y0231862D01*
X0105127Y0231992D01*
X0105050Y0232124D01*
X0104975Y0232258D01*
X0104904Y0232394D01*
X0104837Y0232532D01*
X0104773Y0232672D01*
X0104713Y0232813D01*
X0104657Y0232955D01*
X0104604Y0233099D01*
X0104555Y0233245D01*
X0104510Y0233391D01*
X0104469Y0233539D01*
X0104432Y0233687D01*
X0104398Y0233837D01*
X0104368Y0233988D01*
X0104343Y0234139D01*
X0104321Y0234290D01*
X0104303Y0234443D01*
X0104289Y0234595D01*
X0104279Y0234748D01*
X0104273Y0234902D01*
X0104271Y0235055D01*
D11*
X0048000Y0221000D02*
X0042000Y0221000D01*
X0042000Y0211000D02*
X0048000Y0211000D01*
X0048000Y0201000D02*
X0042000Y0201000D01*
X0042000Y0191000D02*
X0048000Y0191000D01*
X0169500Y0091000D02*
X0175500Y0091000D01*
X0175500Y0081000D02*
X0169500Y0081000D01*
X0169500Y0071000D02*
X0175500Y0071000D01*
D12*
X0062500Y0184701D03*
X0062500Y0197299D03*
D13*
X0069488Y0211000D03*
X0069488Y0221000D03*
X0080512Y0221000D03*
X0080512Y0211000D03*
X0080512Y0152250D03*
X0069488Y0152250D03*
X0073012Y0091000D03*
X0073012Y0081000D03*
X0073012Y0071000D03*
X0073012Y0061000D03*
X0073012Y0051000D03*
X0061988Y0051000D03*
X0061988Y0061000D03*
X0061988Y0071000D03*
X0061988Y0081000D03*
X0061988Y0091000D03*
X0126988Y0061000D03*
X0126988Y0051000D03*
X0138012Y0051000D03*
X0138012Y0061000D03*
X0169488Y0151000D03*
X0180512Y0151000D03*
D14*
X0085000Y0170488D03*
X0085000Y0181512D03*
X0075000Y0181512D03*
X0075000Y0170488D03*
D15*
X0107500Y0181000D03*
X0120000Y0181000D03*
X0132500Y0181000D03*
X0145000Y0181000D03*
X0157500Y0181000D03*
X0170000Y0181000D03*
X0170000Y0221000D03*
X0157500Y0221000D03*
X0145000Y0221000D03*
X0132500Y0221000D03*
X0120000Y0221000D03*
X0107500Y0221000D03*
D16*
X0126299Y0041000D03*
X0138701Y0041000D03*
D17*
X0117500Y0126400D03*
X0112500Y0126400D03*
X0107500Y0126400D03*
X0102500Y0126400D03*
X0097500Y0126400D03*
X0092500Y0126400D03*
X0087500Y0126400D03*
X0087500Y0150600D03*
X0092500Y0150600D03*
X0097500Y0150600D03*
X0102500Y0150600D03*
X0107500Y0150600D03*
X0112500Y0150600D03*
X0117500Y0150600D03*
D18*
X0147500Y0121000D03*
X0147500Y0111000D03*
X0147500Y0101000D03*
X0147500Y0091000D03*
X0147500Y0081000D03*
X0147500Y0071000D03*
X0147500Y0061000D03*
X0147500Y0051000D03*
X0147500Y0041000D03*
X0147500Y0031000D03*
X0147500Y0021000D03*
X0147500Y0011000D03*
X0157500Y0011000D03*
X0157500Y0021000D03*
X0157500Y0031000D03*
X0157500Y0041000D03*
X0157500Y0051000D03*
X0157500Y0061000D03*
X0157500Y0071000D03*
X0157500Y0081000D03*
X0157500Y0091000D03*
X0157500Y0101000D03*
X0157500Y0111000D03*
X0157500Y0121000D03*
X0157500Y0131000D03*
X0047500Y0131000D03*
X0047500Y0141000D03*
X0047500Y0151000D03*
X0047500Y0161000D03*
X0047500Y0171000D03*
X0037500Y0171000D03*
X0037500Y0161000D03*
X0037500Y0151000D03*
X0037500Y0141000D03*
X0037500Y0131000D03*
X0037500Y0121000D03*
X0037500Y0111000D03*
X0037500Y0101000D03*
X0037500Y0091000D03*
X0037500Y0081000D03*
X0037500Y0071000D03*
X0037500Y0061000D03*
X0037500Y0051000D03*
X0037500Y0041000D03*
X0037500Y0031000D03*
X0037500Y0021000D03*
X0037500Y0011000D03*
X0047500Y0011000D03*
X0047500Y0021000D03*
X0047500Y0031000D03*
X0047500Y0041000D03*
X0047500Y0051000D03*
X0047500Y0061000D03*
X0047500Y0071000D03*
X0047500Y0081000D03*
X0047500Y0091000D03*
X0047500Y0101000D03*
X0047500Y0111000D03*
X0047500Y0121000D03*
D19*
X0147500Y0131000D03*
D20*
X0170000Y0166000D03*
X0180000Y0166000D03*
D21*
X0090100Y0233500D02*
X0084900Y0233500D01*
X0060100Y0233500D02*
X0054900Y0233500D01*
D22*
X0051091Y0229717D02*
X0032500Y0229717D01*
X0032500Y0228119D02*
X0077315Y0228119D01*
X0077487Y0228533D02*
X0076981Y0227312D01*
X0076812Y0227312D01*
X0075794Y0226890D01*
X0075015Y0226112D01*
X0075000Y0226075D01*
X0074985Y0226112D01*
X0074206Y0226890D01*
X0073188Y0227312D01*
X0065788Y0227312D01*
X0064770Y0226890D01*
X0063992Y0226112D01*
X0063570Y0225094D01*
X0063570Y0224568D01*
X0061790Y0224568D01*
X0060479Y0224025D01*
X0059503Y0223050D01*
X0057668Y0223050D01*
X0056651Y0222628D01*
X0055872Y0221849D01*
X0055450Y0220832D01*
X0055450Y0216168D01*
X0055872Y0215151D01*
X0056651Y0214372D01*
X0057668Y0213950D01*
X0062332Y0213950D01*
X0063349Y0214372D01*
X0063570Y0214593D01*
X0063570Y0206906D01*
X0063992Y0205888D01*
X0064770Y0205110D01*
X0065357Y0204867D01*
X0065725Y0203979D01*
X0066729Y0202975D01*
X0068931Y0200772D01*
X0068931Y0192478D01*
X0067328Y0190875D01*
X0066824Y0191379D01*
X0066391Y0191558D01*
X0066696Y0191863D01*
X0066933Y0192274D01*
X0067056Y0192732D01*
X0067056Y0196721D01*
X0063078Y0196721D01*
X0063078Y0197877D01*
X0067056Y0197877D01*
X0067056Y0201867D01*
X0066933Y0202325D01*
X0066696Y0202735D01*
X0066361Y0203070D01*
X0065951Y0203307D01*
X0065493Y0203430D01*
X0063078Y0203430D01*
X0063078Y0197877D01*
X0061922Y0197877D01*
X0061922Y0196721D01*
X0057944Y0196721D01*
X0057944Y0194140D01*
X0056911Y0194568D01*
X0052589Y0194568D01*
X0051268Y0195890D01*
X0049746Y0196520D01*
X0049843Y0196552D01*
X0050516Y0196895D01*
X0051127Y0197339D01*
X0051661Y0197873D01*
X0052105Y0198484D01*
X0052448Y0199157D01*
X0052682Y0199876D01*
X0052800Y0200622D01*
X0052800Y0200800D01*
X0045200Y0200800D01*
X0045200Y0201200D01*
X0052800Y0201200D01*
X0052800Y0201378D01*
X0052682Y0202124D01*
X0052448Y0202843D01*
X0052105Y0203516D01*
X0051661Y0204127D01*
X0051127Y0204661D01*
X0050516Y0205105D01*
X0049843Y0205448D01*
X0049746Y0205480D01*
X0051268Y0206110D01*
X0052890Y0207732D01*
X0053768Y0209853D01*
X0053768Y0212147D01*
X0052890Y0214268D01*
X0051268Y0215890D01*
X0051003Y0216000D01*
X0051268Y0216110D01*
X0052890Y0217732D01*
X0053768Y0219853D01*
X0053768Y0222147D01*
X0052890Y0224268D01*
X0051268Y0225890D01*
X0049147Y0226768D01*
X0040853Y0226768D01*
X0038732Y0225890D01*
X0037110Y0224268D01*
X0036231Y0222147D01*
X0036231Y0219853D01*
X0037110Y0217732D01*
X0038732Y0216110D01*
X0038997Y0216000D01*
X0038732Y0215890D01*
X0037110Y0214268D01*
X0036231Y0212147D01*
X0036231Y0209853D01*
X0037110Y0207732D01*
X0038732Y0206110D01*
X0040254Y0205480D01*
X0040157Y0205448D01*
X0039484Y0205105D01*
X0038873Y0204661D01*
X0038339Y0204127D01*
X0037895Y0203516D01*
X0037552Y0202843D01*
X0037318Y0202124D01*
X0037200Y0201378D01*
X0037200Y0201200D01*
X0044800Y0201200D01*
X0044800Y0200800D01*
X0037200Y0200800D01*
X0037200Y0200622D01*
X0037318Y0199876D01*
X0037552Y0199157D01*
X0037895Y0198484D01*
X0038339Y0197873D01*
X0038873Y0197339D01*
X0039484Y0196895D01*
X0040157Y0196552D01*
X0040254Y0196520D01*
X0038732Y0195890D01*
X0037110Y0194268D01*
X0036231Y0192147D01*
X0036231Y0189853D01*
X0037110Y0187732D01*
X0038732Y0186110D01*
X0039131Y0185944D01*
X0039131Y0175800D01*
X0037700Y0175800D01*
X0037700Y0171200D01*
X0037300Y0171200D01*
X0037300Y0175800D01*
X0035512Y0175800D01*
X0032700Y0172988D01*
X0032700Y0171200D01*
X0037300Y0171200D01*
X0037300Y0170800D01*
X0037700Y0170800D01*
X0037700Y0166200D01*
X0039131Y0166200D01*
X0039131Y0165800D01*
X0037700Y0165800D01*
X0037700Y0161200D01*
X0037300Y0161200D01*
X0037300Y0165800D01*
X0035512Y0165800D01*
X0032700Y0162988D01*
X0032700Y0161200D01*
X0037300Y0161200D01*
X0037300Y0160800D01*
X0037700Y0160800D01*
X0037700Y0156200D01*
X0039131Y0156200D01*
X0039131Y0155800D01*
X0037700Y0155800D01*
X0037700Y0151200D01*
X0037300Y0151200D01*
X0037300Y0155800D01*
X0035512Y0155800D01*
X0032700Y0152988D01*
X0032700Y0151200D01*
X0037300Y0151200D01*
X0037300Y0150800D01*
X0037700Y0150800D01*
X0037700Y0146200D01*
X0039131Y0146200D01*
X0039131Y0145800D01*
X0037700Y0145800D01*
X0037700Y0141200D01*
X0037300Y0141200D01*
X0037300Y0145800D01*
X0035512Y0145800D01*
X0032700Y0142988D01*
X0032700Y0141200D01*
X0037300Y0141200D01*
X0037300Y0140800D01*
X0037700Y0140800D01*
X0037700Y0136200D01*
X0039131Y0136200D01*
X0039131Y0135800D01*
X0037700Y0135800D01*
X0037700Y0131200D01*
X0037300Y0131200D01*
X0037300Y0135800D01*
X0035512Y0135800D01*
X0032700Y0132988D01*
X0032700Y0131200D01*
X0037300Y0131200D01*
X0037300Y0130800D01*
X0037700Y0130800D01*
X0037700Y0126200D01*
X0039131Y0126200D01*
X0039131Y0125800D01*
X0037700Y0125800D01*
X0037700Y0121200D01*
X0037300Y0121200D01*
X0037300Y0125800D01*
X0035512Y0125800D01*
X0032700Y0122988D01*
X0032700Y0121200D01*
X0037300Y0121200D01*
X0037300Y0120800D01*
X0037700Y0120800D01*
X0037700Y0116200D01*
X0039131Y0116200D01*
X0039131Y0115800D01*
X0037700Y0115800D01*
X0037700Y0111200D01*
X0037300Y0111200D01*
X0037300Y0115800D01*
X0035512Y0115800D01*
X0032700Y0112988D01*
X0032700Y0111200D01*
X0037300Y0111200D01*
X0037300Y0110800D01*
X0037700Y0110800D01*
X0037700Y0106200D01*
X0039488Y0106200D01*
X0039762Y0106474D01*
X0040592Y0105644D01*
X0042144Y0104092D01*
X0042289Y0103947D01*
X0041815Y0103473D01*
X0039488Y0105800D01*
X0037700Y0105800D01*
X0037700Y0101200D01*
X0037300Y0101200D01*
X0037300Y0105800D01*
X0035512Y0105800D01*
X0032700Y0102988D01*
X0032700Y0101200D01*
X0037300Y0101200D01*
X0037300Y0100800D01*
X0037700Y0100800D01*
X0037700Y0096200D01*
X0039488Y0096200D01*
X0041815Y0098527D01*
X0044342Y0096000D01*
X0041815Y0093473D01*
X0039488Y0095800D01*
X0037700Y0095800D01*
X0037700Y0091200D01*
X0037300Y0091200D01*
X0037300Y0095800D01*
X0035512Y0095800D01*
X0032700Y0092988D01*
X0032700Y0091200D01*
X0037300Y0091200D01*
X0037300Y0090800D01*
X0037700Y0090800D01*
X0037700Y0086200D01*
X0039488Y0086200D01*
X0041815Y0088527D01*
X0044342Y0086000D01*
X0041815Y0083473D01*
X0039488Y0085800D01*
X0037700Y0085800D01*
X0037700Y0081200D01*
X0037300Y0081200D01*
X0037300Y0085800D01*
X0035512Y0085800D01*
X0032700Y0082988D01*
X0032700Y0081200D01*
X0037300Y0081200D01*
X0037300Y0080800D01*
X0037700Y0080800D01*
X0037700Y0076200D01*
X0039488Y0076200D01*
X0041815Y0078527D01*
X0044342Y0076000D01*
X0041815Y0073473D01*
X0039488Y0075800D01*
X0037700Y0075800D01*
X0037700Y0071200D01*
X0037300Y0071200D01*
X0037300Y0075800D01*
X0035512Y0075800D01*
X0032700Y0072988D01*
X0032700Y0071200D01*
X0037300Y0071200D01*
X0037300Y0070800D01*
X0037700Y0070800D01*
X0037700Y0066200D01*
X0039488Y0066200D01*
X0041815Y0068527D01*
X0044342Y0066000D01*
X0041815Y0063473D01*
X0039488Y0065800D01*
X0037700Y0065800D01*
X0037700Y0061200D01*
X0037300Y0061200D01*
X0037300Y0065800D01*
X0035512Y0065800D01*
X0032700Y0062988D01*
X0032700Y0061200D01*
X0037300Y0061200D01*
X0037300Y0060800D01*
X0037700Y0060800D01*
X0037700Y0056200D01*
X0039488Y0056200D01*
X0041815Y0058527D01*
X0044342Y0056000D01*
X0041815Y0053473D01*
X0039488Y0055800D01*
X0037700Y0055800D01*
X0037700Y0051200D01*
X0037300Y0051200D01*
X0037300Y0055800D01*
X0035512Y0055800D01*
X0032700Y0052988D01*
X0032700Y0051200D01*
X0037300Y0051200D01*
X0037300Y0050800D01*
X0037700Y0050800D01*
X0037700Y0046200D01*
X0039488Y0046200D01*
X0041815Y0048527D01*
X0044342Y0046000D01*
X0041815Y0043473D01*
X0039488Y0045800D01*
X0037700Y0045800D01*
X0037700Y0041200D01*
X0037300Y0041200D01*
X0037300Y0045800D01*
X0035512Y0045800D01*
X0032700Y0042988D01*
X0032700Y0041200D01*
X0037300Y0041200D01*
X0037300Y0040800D01*
X0037700Y0040800D01*
X0037700Y0036200D01*
X0039488Y0036200D01*
X0041815Y0038527D01*
X0044342Y0036000D01*
X0041815Y0033473D01*
X0039488Y0035800D01*
X0037700Y0035800D01*
X0037700Y0031200D01*
X0037300Y0031200D01*
X0037300Y0035800D01*
X0035512Y0035800D01*
X0032700Y0032988D01*
X0032700Y0031200D01*
X0037300Y0031200D01*
X0037300Y0030800D01*
X0037700Y0030800D01*
X0037700Y0026200D01*
X0039488Y0026200D01*
X0041815Y0028527D01*
X0044342Y0026000D01*
X0041815Y0023473D01*
X0039488Y0025800D01*
X0037700Y0025800D01*
X0037700Y0021200D01*
X0037300Y0021200D01*
X0037300Y0025800D01*
X0035512Y0025800D01*
X0032700Y0022988D01*
X0032700Y0021200D01*
X0037300Y0021200D01*
X0037300Y0020800D01*
X0037700Y0020800D01*
X0037700Y0016200D01*
X0039488Y0016200D01*
X0041815Y0018527D01*
X0044342Y0016000D01*
X0041815Y0013473D01*
X0039488Y0015800D01*
X0037700Y0015800D01*
X0037700Y0011200D01*
X0037300Y0011200D01*
X0037300Y0015800D01*
X0035512Y0015800D01*
X0032700Y0012988D01*
X0032700Y0011200D01*
X0037300Y0011200D01*
X0037300Y0010800D01*
X0037700Y0010800D01*
X0037700Y0006200D01*
X0039488Y0006200D01*
X0041815Y0008527D01*
X0044342Y0006000D01*
X0032500Y0006000D01*
X0032500Y0241000D01*
X0103855Y0241000D01*
X0102824Y0239969D01*
X0101503Y0236780D01*
X0101503Y0233330D01*
X0102413Y0231134D01*
X0097021Y0236525D01*
X0095710Y0237068D01*
X0094124Y0237068D01*
X0093141Y0238051D01*
X0091168Y0238868D01*
X0083832Y0238868D01*
X0081859Y0238051D01*
X0080349Y0236541D01*
X0079531Y0234568D01*
X0079531Y0232432D01*
X0080075Y0231121D01*
X0077487Y0228533D01*
X0078671Y0229717D02*
X0063909Y0229717D01*
X0064651Y0230459D02*
X0065468Y0232432D01*
X0065468Y0234568D01*
X0064651Y0236541D01*
X0063141Y0238051D01*
X0061168Y0238868D01*
X0053832Y0238868D01*
X0051859Y0238051D01*
X0050349Y0236541D01*
X0049531Y0234568D01*
X0049531Y0232432D01*
X0050349Y0230459D01*
X0051859Y0228949D01*
X0053832Y0228131D01*
X0061168Y0228131D01*
X0063141Y0228949D01*
X0064651Y0230459D01*
X0065006Y0231316D02*
X0079994Y0231316D01*
X0079531Y0232914D02*
X0065468Y0232914D01*
X0065468Y0234513D02*
X0079531Y0234513D01*
X0080171Y0236111D02*
X0064829Y0236111D01*
X0063482Y0237710D02*
X0081517Y0237710D01*
X0087500Y0233500D02*
X0095000Y0233500D01*
X0107500Y0221000D01*
X0120000Y0221000D01*
X0125606Y0223323D02*
X0126894Y0223323D01*
X0127355Y0224438D02*
X0126431Y0222207D01*
X0126431Y0219793D01*
X0127355Y0217562D01*
X0129062Y0215855D01*
X0131293Y0214931D01*
X0133707Y0214931D01*
X0135938Y0215855D01*
X0137514Y0217431D01*
X0139986Y0217431D01*
X0141562Y0215855D01*
X0143793Y0214931D01*
X0146207Y0214931D01*
X0148438Y0215855D01*
X0150145Y0217562D01*
X0151068Y0219793D01*
X0151068Y0222207D01*
X0150145Y0224438D01*
X0148438Y0226145D01*
X0146207Y0227068D01*
X0143793Y0227068D01*
X0141562Y0226145D01*
X0139986Y0224568D01*
X0137514Y0224568D01*
X0135938Y0226145D01*
X0133707Y0227068D01*
X0131293Y0227068D01*
X0129062Y0226145D01*
X0127355Y0224438D01*
X0127839Y0224922D02*
X0124661Y0224922D01*
X0125145Y0224438D02*
X0123438Y0226145D01*
X0121207Y0227068D01*
X0118793Y0227068D01*
X0116562Y0226145D01*
X0114986Y0224568D01*
X0112514Y0224568D01*
X0110938Y0226145D01*
X0110367Y0226381D01*
X0111903Y0226381D01*
X0115091Y0227702D01*
X0117531Y0230142D01*
X0118851Y0233330D01*
X0118851Y0236780D01*
X0117531Y0239969D01*
X0116499Y0241000D01*
X0187500Y0241000D01*
X0187500Y0006000D01*
X0160658Y0006000D01*
X0163268Y0008611D01*
X0163268Y0013389D01*
X0160658Y0016000D01*
X0163268Y0018611D01*
X0163268Y0023389D01*
X0160658Y0026000D01*
X0163268Y0028611D01*
X0163268Y0033389D01*
X0159973Y0036685D01*
X0162300Y0039012D01*
X0162300Y0040800D01*
X0157700Y0040800D01*
X0157700Y0041200D01*
X0162300Y0041200D01*
X0162300Y0042988D01*
X0159973Y0045315D01*
X0163268Y0048611D01*
X0163268Y0053389D01*
X0160658Y0056000D01*
X0163268Y0058611D01*
X0163268Y0063389D01*
X0159973Y0066685D01*
X0162300Y0069012D01*
X0162300Y0070800D01*
X0157700Y0070800D01*
X0157700Y0071200D01*
X0162300Y0071200D01*
X0162300Y0072431D01*
X0164918Y0072431D01*
X0164818Y0072124D01*
X0164700Y0071378D01*
X0164700Y0071200D01*
X0172300Y0071200D01*
X0172300Y0070800D01*
X0172700Y0070800D01*
X0172700Y0071200D01*
X0180300Y0071200D01*
X0180300Y0071378D01*
X0180182Y0072124D01*
X0179948Y0072843D01*
X0179605Y0073516D01*
X0179161Y0074127D01*
X0178627Y0074661D01*
X0178016Y0075105D01*
X0177343Y0075448D01*
X0177246Y0075480D01*
X0178768Y0076110D01*
X0180390Y0077732D01*
X0181268Y0079853D01*
X0181268Y0082147D01*
X0180390Y0084268D01*
X0178768Y0085890D01*
X0178503Y0086000D01*
X0178768Y0086110D01*
X0180390Y0087732D01*
X0181268Y0089853D01*
X0181268Y0092147D01*
X0180390Y0094268D01*
X0178768Y0095890D01*
X0176647Y0096768D01*
X0168353Y0096768D01*
X0166232Y0095890D01*
X0164610Y0094268D01*
X0163731Y0092147D01*
X0163731Y0089853D01*
X0164610Y0087732D01*
X0166232Y0086110D01*
X0166497Y0086000D01*
X0166232Y0085890D01*
X0164610Y0084268D01*
X0163731Y0082147D01*
X0163731Y0079853D01*
X0163849Y0079568D01*
X0163268Y0079568D01*
X0163268Y0083389D01*
X0160658Y0086000D01*
X0163268Y0088611D01*
X0163268Y0093389D01*
X0160658Y0096000D01*
X0163268Y0098611D01*
X0163268Y0101722D01*
X0170525Y0108979D01*
X0171068Y0110290D01*
X0171068Y0144688D01*
X0173188Y0144688D01*
X0174206Y0145110D01*
X0174985Y0145888D01*
X0175000Y0145925D01*
X0175015Y0145888D01*
X0175794Y0145110D01*
X0176812Y0144688D01*
X0184212Y0144688D01*
X0185230Y0145110D01*
X0186008Y0145888D01*
X0186430Y0146906D01*
X0186430Y0155094D01*
X0186008Y0156112D01*
X0185230Y0156890D01*
X0184212Y0157312D01*
X0183568Y0157312D01*
X0183568Y0161976D01*
X0185368Y0163776D01*
X0185368Y0168224D01*
X0182224Y0171368D01*
X0177776Y0171368D01*
X0174631Y0168224D01*
X0174631Y0163776D01*
X0176431Y0161976D01*
X0176431Y0157154D01*
X0175794Y0156890D01*
X0175015Y0156112D01*
X0175000Y0156075D01*
X0174985Y0156112D01*
X0174206Y0156890D01*
X0173188Y0157312D01*
X0165788Y0157312D01*
X0164770Y0156890D01*
X0163992Y0156112D01*
X0163570Y0155094D01*
X0163570Y0146906D01*
X0163931Y0146033D01*
X0163931Y0112478D01*
X0162253Y0110800D01*
X0157700Y0110800D01*
X0157700Y0111200D01*
X0162300Y0111200D01*
X0162300Y0112988D01*
X0159973Y0115315D01*
X0163268Y0118611D01*
X0163268Y0123389D01*
X0160658Y0126000D01*
X0163268Y0128611D01*
X0163268Y0133389D01*
X0159889Y0136768D01*
X0155111Y0136768D01*
X0153158Y0134816D01*
X0152847Y0135568D01*
X0152068Y0136347D01*
X0151051Y0136768D01*
X0143949Y0136768D01*
X0142932Y0136347D01*
X0142153Y0135568D01*
X0141731Y0134551D01*
X0141731Y0127449D01*
X0142153Y0126432D01*
X0142932Y0125653D01*
X0143684Y0125342D01*
X0141731Y0123389D01*
X0141731Y0119315D01*
X0134596Y0126450D01*
X0134832Y0126450D01*
X0135849Y0126872D01*
X0136628Y0127651D01*
X0137050Y0128668D01*
X0137050Y0133332D01*
X0136628Y0134349D01*
X0136068Y0134909D01*
X0136068Y0144522D01*
X0167156Y0175609D01*
X0168793Y0174931D01*
X0171207Y0174931D01*
X0173438Y0175855D01*
X0175145Y0177562D01*
X0176068Y0179793D01*
X0176068Y0182207D01*
X0175145Y0184438D01*
X0173438Y0186145D01*
X0171207Y0187068D01*
X0168793Y0187068D01*
X0166562Y0186145D01*
X0164855Y0184438D01*
X0164123Y0182670D01*
X0163568Y0182115D01*
X0163568Y0182207D01*
X0162645Y0184438D01*
X0160938Y0186145D01*
X0158707Y0187068D01*
X0157365Y0187068D01*
X0160525Y0190229D01*
X0161068Y0191540D01*
X0161068Y0215986D01*
X0162514Y0217431D01*
X0164986Y0217431D01*
X0166562Y0215855D01*
X0168793Y0214931D01*
X0171207Y0214931D01*
X0173438Y0215855D01*
X0175145Y0217562D01*
X0176068Y0219793D01*
X0176068Y0222207D01*
X0175145Y0224438D01*
X0173438Y0226145D01*
X0171207Y0227068D01*
X0168793Y0227068D01*
X0166562Y0226145D01*
X0164986Y0224568D01*
X0162514Y0224568D01*
X0160938Y0226145D01*
X0158707Y0227068D01*
X0156293Y0227068D01*
X0154062Y0226145D01*
X0152355Y0224438D01*
X0151431Y0222207D01*
X0151431Y0219793D01*
X0152355Y0217562D01*
X0153931Y0215986D01*
X0153931Y0193728D01*
X0149229Y0189025D01*
X0148225Y0188021D01*
X0147681Y0186710D01*
X0147681Y0186458D01*
X0146207Y0187068D01*
X0143793Y0187068D01*
X0141562Y0186145D01*
X0139855Y0184438D01*
X0138931Y0182207D01*
X0138931Y0179793D01*
X0139609Y0178156D01*
X0138522Y0177068D01*
X0135765Y0177068D01*
X0135822Y0177110D01*
X0136390Y0177678D01*
X0136862Y0178327D01*
X0137226Y0179042D01*
X0137474Y0179806D01*
X0137600Y0180599D01*
X0137600Y0180700D01*
X0132800Y0180700D01*
X0132800Y0181300D01*
X0132200Y0181300D01*
X0132200Y0186100D01*
X0132099Y0186100D01*
X0131306Y0185974D01*
X0130542Y0185726D01*
X0129827Y0185362D01*
X0129178Y0184890D01*
X0128610Y0184322D01*
X0128138Y0183673D01*
X0127774Y0182958D01*
X0127526Y0182194D01*
X0127400Y0181401D01*
X0127400Y0181300D01*
X0132200Y0181300D01*
X0132200Y0180700D01*
X0127400Y0180700D01*
X0127400Y0180599D01*
X0127526Y0179806D01*
X0127774Y0179042D01*
X0128138Y0178327D01*
X0128610Y0177678D01*
X0129178Y0177110D01*
X0129235Y0177068D01*
X0123265Y0177068D01*
X0123322Y0177110D01*
X0123890Y0177678D01*
X0124362Y0178327D01*
X0124726Y0179042D01*
X0124974Y0179806D01*
X0125100Y0180599D01*
X0125100Y0180700D01*
X0120300Y0180700D01*
X0120300Y0181300D01*
X0119700Y0181300D01*
X0119700Y0186100D01*
X0119599Y0186100D01*
X0118806Y0185974D01*
X0118042Y0185726D01*
X0117327Y0185362D01*
X0116678Y0184890D01*
X0116110Y0184322D01*
X0115638Y0183673D01*
X0115274Y0182958D01*
X0115026Y0182194D01*
X0114900Y0181401D01*
X0114900Y0181300D01*
X0119700Y0181300D01*
X0119700Y0180700D01*
X0114900Y0180700D01*
X0114900Y0180599D01*
X0115026Y0179806D01*
X0115274Y0179042D01*
X0115638Y0178327D01*
X0116110Y0177678D01*
X0116678Y0177110D01*
X0116735Y0177068D01*
X0116478Y0177068D01*
X0113568Y0179978D01*
X0113568Y0182207D01*
X0112645Y0184438D01*
X0110938Y0186145D01*
X0108707Y0187068D01*
X0106293Y0187068D01*
X0104062Y0186145D01*
X0102355Y0184438D01*
X0101431Y0182207D01*
X0101431Y0179978D01*
X0101022Y0179568D01*
X0090343Y0179568D01*
X0090343Y0180737D01*
X0085775Y0180737D01*
X0085775Y0182287D01*
X0084225Y0182287D01*
X0084225Y0186461D01*
X0081220Y0186461D01*
X0080777Y0186343D01*
X0080112Y0187008D01*
X0079094Y0187430D01*
X0073977Y0187430D01*
X0074521Y0187975D01*
X0075525Y0188979D01*
X0076068Y0190290D01*
X0076068Y0202960D01*
X0075525Y0204271D01*
X0074446Y0205350D01*
X0074985Y0205888D01*
X0075000Y0205925D01*
X0075015Y0205888D01*
X0075794Y0205110D01*
X0076812Y0204688D01*
X0084212Y0204688D01*
X0085230Y0205110D01*
X0086008Y0205888D01*
X0086430Y0206906D01*
X0086430Y0215094D01*
X0086055Y0216000D01*
X0086430Y0216906D01*
X0086430Y0225094D01*
X0086008Y0226112D01*
X0085583Y0226537D01*
X0087178Y0228131D01*
X0091168Y0228131D01*
X0093141Y0228949D01*
X0093823Y0229631D01*
X0101431Y0222022D01*
X0101431Y0219793D01*
X0102355Y0217562D01*
X0104062Y0215855D01*
X0106293Y0214931D01*
X0108707Y0214931D01*
X0110938Y0215855D01*
X0112514Y0217431D01*
X0114986Y0217431D01*
X0116562Y0215855D01*
X0118793Y0214931D01*
X0121207Y0214931D01*
X0123438Y0215855D01*
X0125145Y0217562D01*
X0126068Y0219793D01*
X0126068Y0222207D01*
X0125145Y0224438D01*
X0126068Y0221725D02*
X0126431Y0221725D01*
X0126431Y0220126D02*
X0126068Y0220126D01*
X0125544Y0218528D02*
X0126956Y0218528D01*
X0127989Y0216929D02*
X0124511Y0216929D01*
X0122170Y0215331D02*
X0130329Y0215331D01*
X0134670Y0215331D02*
X0142829Y0215331D01*
X0140489Y0216929D02*
X0137011Y0216929D01*
X0132500Y0221000D02*
X0145000Y0221000D01*
X0147170Y0215331D02*
X0153931Y0215331D01*
X0153931Y0213732D02*
X0086430Y0213732D01*
X0086430Y0212134D02*
X0153931Y0212134D01*
X0153931Y0210535D02*
X0086430Y0210535D01*
X0086430Y0208937D02*
X0153931Y0208937D01*
X0153931Y0207338D02*
X0086430Y0207338D01*
X0085859Y0205739D02*
X0153931Y0205739D01*
X0153931Y0204141D02*
X0075579Y0204141D01*
X0075164Y0205739D02*
X0074836Y0205739D01*
X0076068Y0202542D02*
X0153931Y0202542D01*
X0153931Y0200944D02*
X0076068Y0200944D01*
X0076068Y0199345D02*
X0153931Y0199345D01*
X0153931Y0197747D02*
X0076068Y0197747D01*
X0076068Y0196148D02*
X0153931Y0196148D01*
X0153931Y0194550D02*
X0076068Y0194550D01*
X0076068Y0192951D02*
X0153155Y0192951D01*
X0151556Y0191353D02*
X0076068Y0191353D01*
X0075847Y0189754D02*
X0149958Y0189754D01*
X0148359Y0188156D02*
X0074702Y0188156D01*
X0072500Y0191000D02*
X0072500Y0202250D01*
X0068750Y0206000D01*
X0068750Y0210262D01*
X0069488Y0211000D01*
X0067500Y0211512D01*
X0063570Y0212134D02*
X0053768Y0212134D01*
X0053768Y0210535D02*
X0063570Y0210535D01*
X0063570Y0208937D02*
X0053389Y0208937D01*
X0052496Y0207338D02*
X0063570Y0207338D01*
X0064141Y0205739D02*
X0050374Y0205739D01*
X0051647Y0204141D02*
X0065658Y0204141D01*
X0066808Y0202542D02*
X0067161Y0202542D01*
X0067056Y0200944D02*
X0068759Y0200944D01*
X0068931Y0199345D02*
X0067056Y0199345D01*
X0068931Y0197747D02*
X0063078Y0197747D01*
X0062500Y0197299D02*
X0053799Y0202299D01*
X0052500Y0201000D01*
X0045000Y0201000D01*
X0045200Y0200944D02*
X0057944Y0200944D01*
X0057944Y0201867D02*
X0057944Y0197877D01*
X0061922Y0197877D01*
X0061922Y0203430D01*
X0059507Y0203430D01*
X0059049Y0203307D01*
X0058639Y0203070D01*
X0058304Y0202735D01*
X0058067Y0202325D01*
X0057944Y0201867D01*
X0058192Y0202542D02*
X0052546Y0202542D01*
X0052509Y0199345D02*
X0057944Y0199345D01*
X0057944Y0196148D02*
X0050644Y0196148D01*
X0051535Y0197747D02*
X0061922Y0197747D01*
X0061922Y0199345D02*
X0063078Y0199345D01*
X0063078Y0200944D02*
X0061922Y0200944D01*
X0061922Y0202542D02*
X0063078Y0202542D01*
X0067056Y0196148D02*
X0068931Y0196148D01*
X0068931Y0194550D02*
X0067056Y0194550D01*
X0067056Y0192951D02*
X0068931Y0192951D01*
X0067806Y0191353D02*
X0066850Y0191353D01*
X0072500Y0191000D02*
X0066201Y0184701D01*
X0062500Y0184701D01*
X0056201Y0191000D01*
X0045000Y0191000D01*
X0045868Y0185231D02*
X0049147Y0185231D01*
X0051268Y0186110D01*
X0052589Y0187431D01*
X0054723Y0187431D01*
X0056976Y0185179D01*
X0056976Y0179819D01*
X0057397Y0178802D01*
X0058176Y0178023D01*
X0059193Y0177602D01*
X0062464Y0177602D01*
X0064291Y0174422D01*
X0064475Y0173979D01*
X0064642Y0173811D01*
X0064760Y0173607D01*
X0065140Y0173314D01*
X0068688Y0169765D01*
X0068688Y0166788D01*
X0069110Y0165770D01*
X0069888Y0164992D01*
X0070906Y0164570D01*
X0071431Y0164570D01*
X0071431Y0162790D01*
X0071975Y0161479D01*
X0072979Y0160475D01*
X0075554Y0157900D01*
X0075015Y0157362D01*
X0074594Y0156344D01*
X0074594Y0149568D01*
X0074438Y0149568D01*
X0074438Y0151475D01*
X0070263Y0151475D01*
X0070263Y0153025D01*
X0068713Y0153025D01*
X0068713Y0157593D01*
X0066102Y0157593D01*
X0065742Y0157497D01*
X0065525Y0158021D01*
X0064521Y0159025D01*
X0053268Y0170278D01*
X0053268Y0173389D01*
X0049889Y0176768D01*
X0045868Y0176768D01*
X0045868Y0185231D01*
X0045868Y0184959D02*
X0056976Y0184959D01*
X0056976Y0183360D02*
X0045868Y0183360D01*
X0045868Y0181762D02*
X0056976Y0181762D01*
X0056976Y0180163D02*
X0045868Y0180163D01*
X0045868Y0178565D02*
X0057634Y0178565D01*
X0052889Y0173769D02*
X0064666Y0173769D01*
X0063748Y0175368D02*
X0051290Y0175368D01*
X0053268Y0172171D02*
X0066283Y0172171D01*
X0067881Y0170572D02*
X0053268Y0170572D01*
X0054573Y0168974D02*
X0068688Y0168974D01*
X0068688Y0167375D02*
X0056171Y0167375D01*
X0057770Y0165777D02*
X0069107Y0165777D01*
X0071431Y0164178D02*
X0059368Y0164178D01*
X0060967Y0162580D02*
X0071519Y0162580D01*
X0072472Y0160981D02*
X0062565Y0160981D01*
X0064164Y0159383D02*
X0074071Y0159383D01*
X0073333Y0157471D02*
X0072875Y0157593D01*
X0070263Y0157593D01*
X0070263Y0153025D01*
X0074438Y0153025D01*
X0074438Y0156030D01*
X0074315Y0156488D01*
X0074078Y0156899D01*
X0073743Y0157234D01*
X0073333Y0157471D01*
X0074396Y0156186D02*
X0074594Y0156186D01*
X0074594Y0154587D02*
X0074438Y0154587D01*
X0074594Y0152989D02*
X0070263Y0152989D01*
X0070263Y0154587D02*
X0068713Y0154587D01*
X0068713Y0156186D02*
X0070263Y0156186D01*
X0065623Y0157784D02*
X0075438Y0157784D01*
X0074594Y0151390D02*
X0074438Y0151390D01*
X0074438Y0149792D02*
X0074594Y0149792D01*
X0080512Y0152250D02*
X0080512Y0157988D01*
X0080000Y0158500D01*
X0075000Y0163500D01*
X0075000Y0170488D01*
X0073012Y0170488D01*
X0067500Y0176000D01*
X0062500Y0184701D01*
X0062829Y0176966D02*
X0045868Y0176966D01*
X0047500Y0171000D02*
X0062500Y0156000D01*
X0062500Y0148500D01*
X0065000Y0146000D01*
X0082500Y0146000D01*
X0092500Y0136000D01*
X0092500Y0126400D01*
X0087500Y0126400D02*
X0087500Y0118500D01*
X0077500Y0116000D02*
X0087500Y0106000D01*
X0087500Y0056000D01*
X0080000Y0048500D01*
X0080000Y0041000D01*
X0070000Y0031000D01*
X0061988Y0035488D02*
X0047500Y0021000D01*
X0043450Y0025108D02*
X0040180Y0025108D01*
X0039994Y0026706D02*
X0043636Y0026706D01*
X0042037Y0028305D02*
X0041593Y0028305D01*
X0037700Y0028305D02*
X0037300Y0028305D01*
X0037300Y0029903D02*
X0037700Y0029903D01*
X0037300Y0030800D02*
X0037300Y0026200D01*
X0035512Y0026200D01*
X0032700Y0029012D01*
X0032700Y0030800D01*
X0037300Y0030800D01*
X0037300Y0031502D02*
X0037700Y0031502D01*
X0037700Y0033100D02*
X0037300Y0033100D01*
X0037300Y0034699D02*
X0037700Y0034699D01*
X0037300Y0036200D02*
X0037300Y0040800D01*
X0032700Y0040800D01*
X0032700Y0039012D01*
X0035512Y0036200D01*
X0037300Y0036200D01*
X0037300Y0036297D02*
X0037700Y0036297D01*
X0037700Y0037896D02*
X0037300Y0037896D01*
X0037300Y0039494D02*
X0037700Y0039494D01*
X0037300Y0041093D02*
X0032500Y0041093D01*
X0032500Y0042691D02*
X0032700Y0042691D01*
X0032500Y0044290D02*
X0034002Y0044290D01*
X0032500Y0045888D02*
X0044230Y0045888D01*
X0042855Y0047487D02*
X0040775Y0047487D01*
X0037700Y0047487D02*
X0037300Y0047487D01*
X0037300Y0046200D02*
X0035512Y0046200D01*
X0032700Y0049012D01*
X0032700Y0050800D01*
X0037300Y0050800D01*
X0037300Y0046200D01*
X0037300Y0044290D02*
X0037700Y0044290D01*
X0037700Y0042691D02*
X0037300Y0042691D01*
X0040998Y0044290D02*
X0042632Y0044290D01*
X0042446Y0037896D02*
X0041184Y0037896D01*
X0039585Y0036297D02*
X0044045Y0036297D01*
X0043041Y0034699D02*
X0040589Y0034699D01*
X0035414Y0036297D02*
X0032500Y0036297D01*
X0032500Y0034699D02*
X0034411Y0034699D01*
X0032812Y0033100D02*
X0032500Y0033100D01*
X0032500Y0031502D02*
X0032700Y0031502D01*
X0032700Y0029903D02*
X0032500Y0029903D01*
X0032500Y0028305D02*
X0033407Y0028305D01*
X0032500Y0026706D02*
X0035006Y0026706D01*
X0034819Y0025108D02*
X0032500Y0025108D01*
X0032500Y0023509D02*
X0033221Y0023509D01*
X0032700Y0021911D02*
X0032500Y0021911D01*
X0032700Y0020800D02*
X0032700Y0019012D01*
X0035512Y0016200D01*
X0037300Y0016200D01*
X0037300Y0020800D01*
X0032700Y0020800D01*
X0032700Y0020312D02*
X0032500Y0020312D01*
X0032500Y0018714D02*
X0032998Y0018714D01*
X0032500Y0017115D02*
X0034597Y0017115D01*
X0035228Y0015517D02*
X0032500Y0015517D01*
X0032500Y0013918D02*
X0033630Y0013918D01*
X0032700Y0012320D02*
X0032500Y0012320D01*
X0032700Y0010800D02*
X0032700Y0009012D01*
X0035512Y0006200D01*
X0037300Y0006200D01*
X0037300Y0010800D01*
X0032700Y0010800D01*
X0032700Y0010721D02*
X0032500Y0010721D01*
X0032500Y0009123D02*
X0032700Y0009123D01*
X0032500Y0007524D02*
X0034188Y0007524D01*
X0037300Y0007524D02*
X0037700Y0007524D01*
X0037700Y0009123D02*
X0037300Y0009123D01*
X0037300Y0010721D02*
X0037700Y0010721D01*
X0037700Y0012320D02*
X0037300Y0012320D01*
X0037300Y0013918D02*
X0037700Y0013918D01*
X0037700Y0015517D02*
X0037300Y0015517D01*
X0037300Y0017115D02*
X0037700Y0017115D01*
X0037700Y0018714D02*
X0037300Y0018714D01*
X0037300Y0020312D02*
X0037700Y0020312D01*
X0037700Y0021911D02*
X0037300Y0021911D01*
X0037300Y0023509D02*
X0037700Y0023509D01*
X0037700Y0025108D02*
X0037300Y0025108D01*
X0037300Y0026706D02*
X0037700Y0026706D01*
X0041779Y0023509D02*
X0041851Y0023509D01*
X0043227Y0017115D02*
X0040403Y0017115D01*
X0039772Y0015517D02*
X0043859Y0015517D01*
X0042260Y0013918D02*
X0041370Y0013918D01*
X0040812Y0007524D02*
X0042818Y0007524D01*
X0047500Y0011000D02*
X0072500Y0011000D01*
X0112500Y0051000D01*
X0112500Y0126400D01*
X0117500Y0126400D02*
X0117500Y0132200D01*
X0117500Y0126400D01*
X0120600Y0126400D01*
X0120600Y0130353D01*
X0141731Y0109222D01*
X0141731Y0108611D01*
X0144342Y0106000D01*
X0141731Y0103389D01*
X0141731Y0098611D01*
X0145027Y0095315D01*
X0142700Y0092988D01*
X0142700Y0091200D01*
X0147300Y0091200D01*
X0147300Y0090800D01*
X0142700Y0090800D01*
X0142700Y0089012D01*
X0145027Y0086685D01*
X0141731Y0083389D01*
X0141731Y0078611D01*
X0144342Y0076000D01*
X0141731Y0073389D01*
X0141731Y0068611D01*
X0144342Y0066000D01*
X0143785Y0065443D01*
X0143508Y0066112D01*
X0142730Y0066890D01*
X0141712Y0067312D01*
X0134312Y0067312D01*
X0133294Y0066890D01*
X0132515Y0066112D01*
X0132094Y0065094D01*
X0132094Y0056906D01*
X0132379Y0056217D01*
X0131819Y0056777D01*
X0131938Y0057220D01*
X0131938Y0060225D01*
X0127763Y0060225D01*
X0127763Y0061775D01*
X0126213Y0061775D01*
X0126213Y0060225D01*
X0122039Y0060225D01*
X0122039Y0057220D01*
X0122157Y0056777D01*
X0121963Y0056583D01*
X0121068Y0057478D01*
X0121068Y0108641D01*
X0121430Y0108791D01*
X0122209Y0109570D01*
X0122631Y0110587D01*
X0122631Y0116413D01*
X0122209Y0117430D01*
X0121430Y0118209D01*
X0120413Y0118631D01*
X0116068Y0118631D01*
X0116068Y0120600D01*
X0117500Y0120600D01*
X0119037Y0120600D01*
X0119495Y0120723D01*
X0119905Y0120960D01*
X0120240Y0121295D01*
X0120477Y0121705D01*
X0120600Y0122163D01*
X0120600Y0126400D01*
X0117500Y0126400D01*
X0117500Y0126400D01*
X0117500Y0126400D01*
X0117500Y0120600D01*
X0117500Y0126400D01*
X0117500Y0126400D01*
X0117500Y0125814D02*
X0117500Y0125814D01*
X0117500Y0127412D02*
X0117500Y0127412D01*
X0117500Y0129011D02*
X0117500Y0129011D01*
X0117500Y0130609D02*
X0117500Y0130609D01*
X0117500Y0132200D02*
X0115963Y0132200D01*
X0115925Y0132190D01*
X0115368Y0132747D01*
X0114351Y0133168D01*
X0111068Y0133168D01*
X0111068Y0139885D01*
X0118753Y0132200D01*
X0117500Y0132200D01*
X0118745Y0132208D02*
X0115907Y0132208D01*
X0117147Y0133806D02*
X0111068Y0133806D01*
X0111068Y0135405D02*
X0115548Y0135405D01*
X0113950Y0137003D02*
X0111068Y0137003D01*
X0111068Y0138602D02*
X0112351Y0138602D01*
X0112500Y0143500D02*
X0145000Y0111000D01*
X0147500Y0111000D01*
X0151290Y0106632D02*
X0154974Y0106632D01*
X0155027Y0106685D02*
X0152500Y0104158D01*
X0150658Y0106000D01*
X0153185Y0108527D01*
X0155027Y0106685D01*
X0153481Y0108230D02*
X0152888Y0108230D01*
X0152500Y0106000D02*
X0157500Y0111000D01*
X0160664Y0114624D02*
X0163931Y0114624D01*
X0163931Y0113026D02*
X0162262Y0113026D01*
X0162300Y0111427D02*
X0162881Y0111427D01*
X0167500Y0111000D02*
X0157500Y0101000D01*
X0153375Y0105033D02*
X0151625Y0105033D01*
X0152500Y0106000D02*
X0152500Y0096000D01*
X0147500Y0091000D01*
X0144262Y0087450D02*
X0121068Y0087450D01*
X0121068Y0089048D02*
X0142700Y0089048D01*
X0142700Y0090647D02*
X0121068Y0090647D01*
X0121068Y0092245D02*
X0142700Y0092245D01*
X0143555Y0093844D02*
X0121068Y0093844D01*
X0121068Y0095442D02*
X0144900Y0095442D01*
X0143301Y0097041D02*
X0121068Y0097041D01*
X0121068Y0098639D02*
X0141731Y0098639D01*
X0141731Y0100238D02*
X0121068Y0100238D01*
X0121068Y0101836D02*
X0141731Y0101836D01*
X0141777Y0103435D02*
X0121068Y0103435D01*
X0121068Y0105033D02*
X0143375Y0105033D01*
X0143710Y0106632D02*
X0121068Y0106632D01*
X0121068Y0108230D02*
X0142112Y0108230D01*
X0141125Y0109829D02*
X0122317Y0109829D01*
X0122631Y0111427D02*
X0139526Y0111427D01*
X0137928Y0113026D02*
X0122631Y0113026D01*
X0122631Y0114624D02*
X0136329Y0114624D01*
X0134731Y0116223D02*
X0122631Y0116223D01*
X0121818Y0117821D02*
X0133132Y0117821D01*
X0131534Y0119420D02*
X0116068Y0119420D01*
X0117500Y0121018D02*
X0117500Y0121018D01*
X0117500Y0122617D02*
X0117500Y0122617D01*
X0117500Y0124215D02*
X0117500Y0124215D01*
X0120600Y0124215D02*
X0126738Y0124215D01*
X0128336Y0122617D02*
X0120600Y0122617D01*
X0119964Y0121018D02*
X0129935Y0121018D01*
X0135233Y0125814D02*
X0142771Y0125814D01*
X0142558Y0124215D02*
X0136831Y0124215D01*
X0138430Y0122617D02*
X0141731Y0122617D01*
X0141731Y0121018D02*
X0140028Y0121018D01*
X0141627Y0119420D02*
X0141731Y0119420D01*
X0141747Y0127412D02*
X0136390Y0127412D01*
X0137050Y0129011D02*
X0141731Y0129011D01*
X0141731Y0130609D02*
X0137050Y0130609D01*
X0137050Y0132208D02*
X0141731Y0132208D01*
X0141731Y0133806D02*
X0136853Y0133806D01*
X0136068Y0135405D02*
X0142085Y0135405D01*
X0136068Y0137003D02*
X0163931Y0137003D01*
X0163931Y0135405D02*
X0161253Y0135405D01*
X0162851Y0133806D02*
X0163931Y0133806D01*
X0163931Y0132208D02*
X0163268Y0132208D01*
X0163268Y0130609D02*
X0163931Y0130609D01*
X0163931Y0129011D02*
X0163268Y0129011D01*
X0163931Y0127412D02*
X0162070Y0127412D01*
X0160844Y0125814D02*
X0163931Y0125814D01*
X0163931Y0124215D02*
X0162442Y0124215D01*
X0163268Y0122617D02*
X0163931Y0122617D01*
X0163931Y0121018D02*
X0163268Y0121018D01*
X0163268Y0119420D02*
X0163931Y0119420D01*
X0163931Y0117821D02*
X0162479Y0117821D01*
X0163931Y0116223D02*
X0160881Y0116223D01*
X0167500Y0111000D02*
X0167500Y0151000D01*
X0169488Y0149012D01*
X0169488Y0151000D01*
X0163570Y0151390D02*
X0142937Y0151390D01*
X0144535Y0152989D02*
X0163570Y0152989D01*
X0163570Y0154587D02*
X0146134Y0154587D01*
X0147732Y0156186D02*
X0164066Y0156186D01*
X0168177Y0161600D02*
X0170000Y0161600D01*
X0171823Y0161600D01*
X0174400Y0164177D01*
X0174400Y0166000D01*
X0174400Y0167823D01*
X0171823Y0170400D01*
X0170000Y0170400D01*
X0170000Y0166000D01*
X0174400Y0166000D01*
X0170000Y0166000D01*
X0170000Y0166000D01*
X0170000Y0166000D01*
X0170000Y0161600D01*
X0170000Y0166000D01*
X0170000Y0166000D01*
X0170000Y0166000D01*
X0165600Y0166000D01*
X0165600Y0167823D01*
X0168177Y0170400D01*
X0170000Y0170400D01*
X0170000Y0166000D01*
X0165600Y0166000D01*
X0165600Y0164177D01*
X0168177Y0161600D01*
X0167198Y0162580D02*
X0154126Y0162580D01*
X0155725Y0164178D02*
X0165600Y0164178D01*
X0165600Y0165777D02*
X0157323Y0165777D01*
X0158922Y0167375D02*
X0165600Y0167375D01*
X0166751Y0168974D02*
X0160520Y0168974D01*
X0162119Y0170572D02*
X0176980Y0170572D01*
X0175382Y0168974D02*
X0173249Y0168974D01*
X0174400Y0167375D02*
X0174631Y0167375D01*
X0174631Y0165777D02*
X0174400Y0165777D01*
X0174400Y0164178D02*
X0174631Y0164178D01*
X0175828Y0162580D02*
X0172802Y0162580D01*
X0170000Y0162580D02*
X0170000Y0162580D01*
X0170000Y0164178D02*
X0170000Y0164178D01*
X0170000Y0165777D02*
X0170000Y0165777D01*
X0170000Y0167375D02*
X0170000Y0167375D01*
X0170000Y0168974D02*
X0170000Y0168974D01*
X0165316Y0173769D02*
X0187500Y0173769D01*
X0187500Y0172171D02*
X0163717Y0172171D01*
X0166914Y0175368D02*
X0167740Y0175368D01*
X0172260Y0175368D02*
X0187500Y0175368D01*
X0187500Y0176966D02*
X0174548Y0176966D01*
X0175560Y0178565D02*
X0187500Y0178565D01*
X0187500Y0180163D02*
X0176068Y0180163D01*
X0176068Y0181762D02*
X0187500Y0181762D01*
X0187500Y0183360D02*
X0175591Y0183360D01*
X0174623Y0184959D02*
X0187500Y0184959D01*
X0187500Y0186557D02*
X0172441Y0186557D01*
X0170000Y0181000D02*
X0167500Y0181000D01*
X0132500Y0146000D01*
X0132500Y0131000D01*
X0127500Y0136000D02*
X0127500Y0140600D01*
X0117500Y0150600D01*
X0112500Y0150600D02*
X0112500Y0143500D01*
X0112500Y0150600D02*
X0112500Y0151000D01*
X0107500Y0150600D02*
X0107500Y0161000D01*
X0137500Y0161000D01*
X0151250Y0174750D01*
X0151250Y0186000D01*
X0157500Y0192250D01*
X0157500Y0221000D01*
X0170000Y0221000D01*
X0172170Y0215331D02*
X0187500Y0215331D01*
X0187500Y0216929D02*
X0174511Y0216929D01*
X0175544Y0218528D02*
X0187500Y0218528D01*
X0187500Y0220126D02*
X0176068Y0220126D01*
X0176068Y0221725D02*
X0187500Y0221725D01*
X0187500Y0223323D02*
X0175606Y0223323D01*
X0174661Y0224922D02*
X0187500Y0224922D01*
X0187500Y0226520D02*
X0172531Y0226520D01*
X0167469Y0226520D02*
X0160031Y0226520D01*
X0162161Y0224922D02*
X0165339Y0224922D01*
X0165489Y0216929D02*
X0162011Y0216929D01*
X0161068Y0215331D02*
X0167829Y0215331D01*
X0161068Y0213732D02*
X0187500Y0213732D01*
X0187500Y0212134D02*
X0161068Y0212134D01*
X0161068Y0210535D02*
X0187500Y0210535D01*
X0187500Y0208937D02*
X0161068Y0208937D01*
X0161068Y0207338D02*
X0187500Y0207338D01*
X0187500Y0205739D02*
X0161068Y0205739D01*
X0161068Y0204141D02*
X0187500Y0204141D01*
X0187500Y0202542D02*
X0161068Y0202542D01*
X0161068Y0200944D02*
X0187500Y0200944D01*
X0187500Y0199345D02*
X0161068Y0199345D01*
X0161068Y0197747D02*
X0187500Y0197747D01*
X0187500Y0196148D02*
X0161068Y0196148D01*
X0161068Y0194550D02*
X0187500Y0194550D01*
X0187500Y0192951D02*
X0161068Y0192951D01*
X0160991Y0191353D02*
X0187500Y0191353D01*
X0187500Y0189754D02*
X0160051Y0189754D01*
X0158452Y0188156D02*
X0187500Y0188156D01*
X0187500Y0170572D02*
X0183020Y0170572D01*
X0184618Y0168974D02*
X0187500Y0168974D01*
X0187500Y0167375D02*
X0185368Y0167375D01*
X0185368Y0165777D02*
X0187500Y0165777D01*
X0187500Y0164178D02*
X0185368Y0164178D01*
X0184172Y0162580D02*
X0187500Y0162580D01*
X0187500Y0160981D02*
X0183568Y0160981D01*
X0183568Y0159383D02*
X0187500Y0159383D01*
X0187500Y0157784D02*
X0183568Y0157784D01*
X0185934Y0156186D02*
X0187500Y0156186D01*
X0187500Y0154587D02*
X0186430Y0154587D01*
X0186430Y0152989D02*
X0187500Y0152989D01*
X0187500Y0151390D02*
X0186430Y0151390D01*
X0186430Y0149792D02*
X0187500Y0149792D01*
X0187500Y0148193D02*
X0186430Y0148193D01*
X0186301Y0146595D02*
X0187500Y0146595D01*
X0187500Y0144996D02*
X0184955Y0144996D01*
X0187500Y0143398D02*
X0171068Y0143398D01*
X0171068Y0141799D02*
X0187500Y0141799D01*
X0187500Y0140201D02*
X0171068Y0140201D01*
X0171068Y0138602D02*
X0187500Y0138602D01*
X0187500Y0137003D02*
X0171068Y0137003D01*
X0171068Y0135405D02*
X0187500Y0135405D01*
X0187500Y0133806D02*
X0171068Y0133806D01*
X0171068Y0132208D02*
X0187500Y0132208D01*
X0187500Y0130609D02*
X0171068Y0130609D01*
X0171068Y0129011D02*
X0187500Y0129011D01*
X0187500Y0127412D02*
X0171068Y0127412D01*
X0171068Y0125814D02*
X0187500Y0125814D01*
X0187500Y0124215D02*
X0171068Y0124215D01*
X0171068Y0122617D02*
X0187500Y0122617D01*
X0187500Y0121018D02*
X0171068Y0121018D01*
X0171068Y0119420D02*
X0187500Y0119420D01*
X0187500Y0117821D02*
X0171068Y0117821D01*
X0171068Y0116223D02*
X0187500Y0116223D01*
X0187500Y0114624D02*
X0171068Y0114624D01*
X0171068Y0113026D02*
X0187500Y0113026D01*
X0187500Y0111427D02*
X0171068Y0111427D01*
X0170877Y0109829D02*
X0187500Y0109829D01*
X0187500Y0108230D02*
X0169777Y0108230D01*
X0168178Y0106632D02*
X0187500Y0106632D01*
X0187500Y0105033D02*
X0166580Y0105033D01*
X0164981Y0103435D02*
X0187500Y0103435D01*
X0187500Y0101836D02*
X0163383Y0101836D01*
X0163268Y0100238D02*
X0187500Y0100238D01*
X0187500Y0098639D02*
X0163268Y0098639D01*
X0161699Y0097041D02*
X0187500Y0097041D01*
X0187500Y0095442D02*
X0179216Y0095442D01*
X0180566Y0093844D02*
X0187500Y0093844D01*
X0187500Y0092245D02*
X0181228Y0092245D01*
X0181268Y0090647D02*
X0187500Y0090647D01*
X0187500Y0089048D02*
X0180935Y0089048D01*
X0180108Y0087450D02*
X0187500Y0087450D01*
X0187500Y0085851D02*
X0178807Y0085851D01*
X0180397Y0084253D02*
X0187500Y0084253D01*
X0187500Y0082654D02*
X0181059Y0082654D01*
X0181268Y0081056D02*
X0187500Y0081056D01*
X0187500Y0079457D02*
X0181105Y0079457D01*
X0180443Y0077859D02*
X0187500Y0077859D01*
X0187500Y0076260D02*
X0178918Y0076260D01*
X0178627Y0074662D02*
X0187500Y0074662D01*
X0187500Y0073063D02*
X0179836Y0073063D01*
X0180286Y0071465D02*
X0187500Y0071465D01*
X0187500Y0069866D02*
X0180179Y0069866D01*
X0180182Y0069876D02*
X0180300Y0070622D01*
X0180300Y0070800D01*
X0172700Y0070800D01*
X0172700Y0066200D01*
X0175878Y0066200D01*
X0176624Y0066318D01*
X0177343Y0066552D01*
X0178016Y0066895D01*
X0178627Y0067339D01*
X0179161Y0067873D01*
X0179605Y0068484D01*
X0179948Y0069157D01*
X0180182Y0069876D01*
X0179448Y0068268D02*
X0187500Y0068268D01*
X0187500Y0066669D02*
X0177573Y0066669D01*
X0172700Y0066669D02*
X0172300Y0066669D01*
X0172300Y0066200D02*
X0172300Y0070800D01*
X0164700Y0070800D01*
X0164700Y0070622D01*
X0164818Y0069876D01*
X0165052Y0069157D01*
X0165395Y0068484D01*
X0165839Y0067873D01*
X0166373Y0067339D01*
X0166984Y0066895D01*
X0167657Y0066552D01*
X0168376Y0066318D01*
X0169122Y0066200D01*
X0172300Y0066200D01*
X0172300Y0068268D02*
X0172700Y0068268D01*
X0172700Y0069866D02*
X0172300Y0069866D01*
X0167427Y0066669D02*
X0159989Y0066669D01*
X0161556Y0068268D02*
X0165552Y0068268D01*
X0164821Y0069866D02*
X0162300Y0069866D01*
X0162300Y0071465D02*
X0164714Y0071465D01*
X0167500Y0076000D02*
X0172500Y0081000D01*
X0167500Y0076000D02*
X0152500Y0076000D01*
X0147500Y0081000D01*
X0144082Y0076260D02*
X0121068Y0076260D01*
X0121068Y0074662D02*
X0143004Y0074662D01*
X0141731Y0073063D02*
X0121068Y0073063D01*
X0121068Y0071465D02*
X0141731Y0071465D01*
X0141731Y0069866D02*
X0121068Y0069866D01*
X0121068Y0068268D02*
X0142075Y0068268D01*
X0142951Y0066669D02*
X0143673Y0066669D01*
X0147500Y0061000D02*
X0138012Y0061000D01*
X0132094Y0060275D02*
X0127763Y0060275D01*
X0126988Y0060488D02*
X0126988Y0061000D01*
X0126213Y0060275D02*
X0121068Y0060275D01*
X0121068Y0061873D02*
X0122039Y0061873D01*
X0122039Y0061775D02*
X0126213Y0061775D01*
X0126213Y0066343D01*
X0123602Y0066343D01*
X0123144Y0066221D01*
X0122733Y0065984D01*
X0122398Y0065649D01*
X0122161Y0065238D01*
X0122039Y0064780D01*
X0122039Y0061775D01*
X0122039Y0063472D02*
X0121068Y0063472D01*
X0121068Y0065070D02*
X0122116Y0065070D01*
X0121068Y0066669D02*
X0133073Y0066669D01*
X0131578Y0065649D02*
X0131815Y0065238D01*
X0131938Y0064780D01*
X0131938Y0061775D01*
X0127763Y0061775D01*
X0127763Y0066343D01*
X0130375Y0066343D01*
X0130833Y0066221D01*
X0131243Y0065984D01*
X0131578Y0065649D01*
X0131860Y0065070D02*
X0132094Y0065070D01*
X0132094Y0063472D02*
X0131938Y0063472D01*
X0131938Y0061873D02*
X0132094Y0061873D01*
X0132094Y0058676D02*
X0131938Y0058676D01*
X0131900Y0057078D02*
X0132094Y0057078D01*
X0127763Y0061873D02*
X0126213Y0061873D01*
X0126213Y0063472D02*
X0127763Y0063472D01*
X0127763Y0065070D02*
X0126213Y0065070D01*
X0122039Y0058676D02*
X0121068Y0058676D01*
X0121469Y0057078D02*
X0122077Y0057078D01*
X0117500Y0056000D02*
X0122500Y0051000D01*
X0126988Y0051000D01*
X0126988Y0041689D01*
X0126299Y0041000D01*
X0130839Y0041093D02*
X0134161Y0041093D01*
X0134161Y0042691D02*
X0130839Y0042691D01*
X0130839Y0043421D02*
X0130557Y0044103D01*
X0130557Y0044688D01*
X0130688Y0044688D01*
X0131706Y0045110D01*
X0132485Y0045888D01*
X0132515Y0045888D01*
X0133294Y0045110D01*
X0134312Y0044688D01*
X0134443Y0044688D01*
X0134443Y0044103D01*
X0134161Y0043421D01*
X0134161Y0038579D01*
X0134582Y0037562D01*
X0135361Y0036783D01*
X0136378Y0036361D01*
X0141023Y0036361D01*
X0142041Y0036783D01*
X0142689Y0037431D01*
X0142911Y0037431D01*
X0144342Y0036000D01*
X0141731Y0033389D01*
X0141731Y0028611D01*
X0144342Y0026000D01*
X0141731Y0023389D01*
X0141731Y0018611D01*
X0145027Y0015315D01*
X0142700Y0012988D01*
X0142700Y0011200D01*
X0147300Y0011200D01*
X0147300Y0010800D01*
X0147700Y0010800D01*
X0147700Y0006200D01*
X0149488Y0006200D01*
X0151815Y0008527D01*
X0154342Y0006000D01*
X0117444Y0006000D01*
X0117531Y0006087D01*
X0118851Y0009275D01*
X0118851Y0012725D01*
X0117531Y0015913D01*
X0115091Y0018353D01*
X0111903Y0019674D01*
X0108452Y0019674D01*
X0105264Y0018353D01*
X0102824Y0015913D01*
X0101503Y0012725D01*
X0101503Y0009275D01*
X0102824Y0006087D01*
X0102910Y0006000D01*
X0050658Y0006000D01*
X0052089Y0007431D01*
X0073210Y0007431D01*
X0074521Y0007975D01*
X0075525Y0008979D01*
X0115525Y0048979D01*
X0116068Y0050290D01*
X0116068Y0052385D01*
X0120479Y0047975D01*
X0121070Y0047730D01*
X0121070Y0046906D01*
X0121492Y0045888D01*
X0112435Y0045888D01*
X0110836Y0044290D02*
X0122119Y0044290D01*
X0122181Y0044438D02*
X0121759Y0043421D01*
X0121759Y0038579D01*
X0122181Y0037562D01*
X0122959Y0036783D01*
X0123977Y0036361D01*
X0128622Y0036361D01*
X0129639Y0036783D01*
X0130418Y0037562D01*
X0130839Y0038579D01*
X0130839Y0043421D01*
X0130557Y0044290D02*
X0134443Y0044290D01*
X0132515Y0045888D02*
X0132500Y0045925D01*
X0132485Y0045888D01*
X0130839Y0039494D02*
X0134161Y0039494D01*
X0134444Y0037896D02*
X0130556Y0037896D01*
X0138012Y0041689D02*
X0138701Y0041000D01*
X0147500Y0041000D01*
X0144045Y0036297D02*
X0102844Y0036297D01*
X0101245Y0034699D02*
X0143041Y0034699D01*
X0141731Y0033100D02*
X0099647Y0033100D01*
X0098048Y0031502D02*
X0141731Y0031502D01*
X0141731Y0029903D02*
X0096450Y0029903D01*
X0094851Y0028305D02*
X0142037Y0028305D01*
X0143636Y0026706D02*
X0093253Y0026706D01*
X0091654Y0025108D02*
X0143450Y0025108D01*
X0141851Y0023509D02*
X0090056Y0023509D01*
X0088457Y0021911D02*
X0141731Y0021911D01*
X0141731Y0020312D02*
X0086859Y0020312D01*
X0085260Y0018714D02*
X0106133Y0018714D01*
X0104025Y0017115D02*
X0083662Y0017115D01*
X0082063Y0015517D02*
X0102659Y0015517D01*
X0101997Y0013918D02*
X0080465Y0013918D01*
X0078866Y0012320D02*
X0101503Y0012320D01*
X0101503Y0010721D02*
X0077268Y0010721D01*
X0075669Y0009123D02*
X0101566Y0009123D01*
X0102228Y0007524D02*
X0073433Y0007524D01*
X0061988Y0035488D02*
X0061988Y0051000D01*
X0061988Y0061000D02*
X0047500Y0061000D01*
X0043413Y0065070D02*
X0040218Y0065070D01*
X0039957Y0066669D02*
X0043673Y0066669D01*
X0042075Y0068268D02*
X0041556Y0068268D01*
X0037700Y0068268D02*
X0037300Y0068268D01*
X0037300Y0069866D02*
X0037700Y0069866D01*
X0037300Y0070800D02*
X0037300Y0066200D01*
X0035512Y0066200D01*
X0032700Y0069012D01*
X0032700Y0070800D01*
X0037300Y0070800D01*
X0037300Y0071465D02*
X0037700Y0071465D01*
X0037700Y0073063D02*
X0037300Y0073063D01*
X0037300Y0074662D02*
X0037700Y0074662D01*
X0037300Y0076200D02*
X0037300Y0080800D01*
X0032700Y0080800D01*
X0032700Y0079012D01*
X0035512Y0076200D01*
X0037300Y0076200D01*
X0037300Y0076260D02*
X0037700Y0076260D01*
X0037700Y0077859D02*
X0037300Y0077859D01*
X0037300Y0079457D02*
X0037700Y0079457D01*
X0037300Y0081056D02*
X0032500Y0081056D01*
X0032500Y0082654D02*
X0032700Y0082654D01*
X0032500Y0084253D02*
X0033964Y0084253D01*
X0032500Y0085851D02*
X0044193Y0085851D01*
X0042892Y0087450D02*
X0040738Y0087450D01*
X0041036Y0084253D02*
X0042595Y0084253D01*
X0047500Y0081000D02*
X0061988Y0081000D01*
X0061988Y0071000D02*
X0047500Y0071000D01*
X0043004Y0074662D02*
X0040627Y0074662D01*
X0039548Y0076260D02*
X0044082Y0076260D01*
X0042484Y0077859D02*
X0041147Y0077859D01*
X0037700Y0082654D02*
X0037300Y0082654D01*
X0037300Y0084253D02*
X0037700Y0084253D01*
X0037300Y0086200D02*
X0037300Y0090800D01*
X0032700Y0090800D01*
X0032700Y0089012D01*
X0035512Y0086200D01*
X0037300Y0086200D01*
X0037300Y0087450D02*
X0037700Y0087450D01*
X0037700Y0089048D02*
X0037300Y0089048D01*
X0037300Y0090647D02*
X0037700Y0090647D01*
X0037700Y0092245D02*
X0037300Y0092245D01*
X0037300Y0093844D02*
X0037700Y0093844D01*
X0037700Y0095442D02*
X0037300Y0095442D01*
X0037300Y0096200D02*
X0037300Y0100800D01*
X0032700Y0100800D01*
X0032700Y0099012D01*
X0035512Y0096200D01*
X0037300Y0096200D01*
X0037300Y0097041D02*
X0037700Y0097041D01*
X0037700Y0098639D02*
X0037300Y0098639D01*
X0037300Y0100238D02*
X0037700Y0100238D01*
X0037700Y0101836D02*
X0037300Y0101836D01*
X0037300Y0103435D02*
X0037700Y0103435D01*
X0037700Y0105033D02*
X0037300Y0105033D01*
X0037300Y0106200D02*
X0037300Y0110800D01*
X0032700Y0110800D01*
X0032700Y0109012D01*
X0035512Y0106200D01*
X0037300Y0106200D01*
X0037300Y0106632D02*
X0037700Y0106632D01*
X0037700Y0108230D02*
X0037300Y0108230D01*
X0037300Y0109829D02*
X0037700Y0109829D01*
X0037700Y0111427D02*
X0037300Y0111427D01*
X0037300Y0113026D02*
X0037700Y0113026D01*
X0037700Y0114624D02*
X0037300Y0114624D01*
X0037300Y0116200D02*
X0035512Y0116200D01*
X0032700Y0119012D01*
X0032700Y0120800D01*
X0037300Y0120800D01*
X0037300Y0116200D01*
X0037300Y0116223D02*
X0037700Y0116223D01*
X0037700Y0117821D02*
X0037300Y0117821D01*
X0037300Y0119420D02*
X0037700Y0119420D01*
X0037300Y0121018D02*
X0032500Y0121018D01*
X0032500Y0119420D02*
X0032700Y0119420D01*
X0032500Y0117821D02*
X0033890Y0117821D01*
X0032500Y0116223D02*
X0035489Y0116223D01*
X0034336Y0114624D02*
X0032500Y0114624D01*
X0032500Y0113026D02*
X0032738Y0113026D01*
X0032700Y0111427D02*
X0032500Y0111427D01*
X0032500Y0109829D02*
X0032700Y0109829D01*
X0032500Y0108230D02*
X0033481Y0108230D01*
X0032500Y0106632D02*
X0035080Y0106632D01*
X0034745Y0105033D02*
X0032500Y0105033D01*
X0032500Y0103435D02*
X0033147Y0103435D01*
X0032700Y0101836D02*
X0032500Y0101836D01*
X0032500Y0100238D02*
X0032700Y0100238D01*
X0032500Y0098639D02*
X0033073Y0098639D01*
X0032500Y0097041D02*
X0034671Y0097041D01*
X0035154Y0095442D02*
X0032500Y0095442D01*
X0032500Y0093844D02*
X0033555Y0093844D01*
X0032700Y0092245D02*
X0032500Y0092245D01*
X0032500Y0090647D02*
X0032700Y0090647D01*
X0032700Y0089048D02*
X0032500Y0089048D01*
X0032500Y0087450D02*
X0034262Y0087450D01*
X0032700Y0079457D02*
X0032500Y0079457D01*
X0032500Y0077859D02*
X0033853Y0077859D01*
X0032500Y0076260D02*
X0035452Y0076260D01*
X0034373Y0074662D02*
X0032500Y0074662D01*
X0032500Y0073063D02*
X0032775Y0073063D01*
X0032700Y0071465D02*
X0032500Y0071465D01*
X0032500Y0069866D02*
X0032700Y0069866D01*
X0032500Y0068268D02*
X0033444Y0068268D01*
X0032500Y0066669D02*
X0035043Y0066669D01*
X0034782Y0065070D02*
X0032500Y0065070D01*
X0032500Y0063472D02*
X0033184Y0063472D01*
X0032700Y0061873D02*
X0032500Y0061873D01*
X0032700Y0060800D02*
X0032700Y0059012D01*
X0035512Y0056200D01*
X0037300Y0056200D01*
X0037300Y0060800D01*
X0032700Y0060800D01*
X0032700Y0060275D02*
X0032500Y0060275D01*
X0032500Y0058676D02*
X0033035Y0058676D01*
X0032500Y0057078D02*
X0034634Y0057078D01*
X0035191Y0055479D02*
X0032500Y0055479D01*
X0032500Y0053881D02*
X0033593Y0053881D01*
X0032700Y0052282D02*
X0032500Y0052282D01*
X0032500Y0050684D02*
X0032700Y0050684D01*
X0032700Y0049085D02*
X0032500Y0049085D01*
X0032500Y0047487D02*
X0034225Y0047487D01*
X0037300Y0049085D02*
X0037700Y0049085D01*
X0037700Y0050684D02*
X0037300Y0050684D01*
X0037300Y0052282D02*
X0037700Y0052282D01*
X0037700Y0053881D02*
X0037300Y0053881D01*
X0037300Y0055479D02*
X0037700Y0055479D01*
X0037700Y0057078D02*
X0037300Y0057078D01*
X0037300Y0058676D02*
X0037700Y0058676D01*
X0037700Y0060275D02*
X0037300Y0060275D01*
X0037300Y0061873D02*
X0037700Y0061873D01*
X0037700Y0063472D02*
X0037300Y0063472D01*
X0037300Y0065070D02*
X0037700Y0065070D01*
X0037700Y0066669D02*
X0037300Y0066669D01*
X0040366Y0057078D02*
X0043264Y0057078D01*
X0043822Y0055479D02*
X0039809Y0055479D01*
X0041407Y0053881D02*
X0042223Y0053881D01*
X0032700Y0039494D02*
X0032500Y0039494D01*
X0032500Y0037896D02*
X0033816Y0037896D01*
X0073012Y0051000D02*
X0073012Y0061000D01*
X0073012Y0071000D01*
X0073012Y0081000D01*
X0073012Y0091000D01*
X0073012Y0095488D01*
X0070000Y0098500D01*
X0062500Y0098500D01*
X0061988Y0091000D02*
X0047500Y0091000D01*
X0043784Y0095442D02*
X0039846Y0095442D01*
X0040329Y0097041D02*
X0043301Y0097041D01*
X0042186Y0093844D02*
X0041445Y0093844D01*
X0041203Y0105033D02*
X0040255Y0105033D01*
X0047500Y0121000D02*
X0052500Y0121000D01*
X0055000Y0123500D01*
X0055000Y0131000D01*
X0060000Y0131000D02*
X0060000Y0118500D01*
X0083750Y0094750D01*
X0083750Y0088500D01*
X0097500Y0098500D02*
X0097500Y0126400D01*
X0102500Y0126400D02*
X0102500Y0063500D01*
X0090000Y0051000D01*
X0104442Y0037896D02*
X0122042Y0037896D01*
X0121759Y0039494D02*
X0106041Y0039494D01*
X0107639Y0041093D02*
X0121759Y0041093D01*
X0121759Y0042691D02*
X0109238Y0042691D01*
X0114033Y0047487D02*
X0121070Y0047487D01*
X0121492Y0045888D02*
X0122270Y0045110D01*
X0122682Y0044939D01*
X0122181Y0044438D01*
X0119368Y0049085D02*
X0115569Y0049085D01*
X0116068Y0050684D02*
X0117769Y0050684D01*
X0116171Y0052282D02*
X0116068Y0052282D01*
X0117500Y0056000D02*
X0117500Y0113500D01*
X0120600Y0125814D02*
X0125139Y0125814D01*
X0123541Y0127412D02*
X0120600Y0127412D01*
X0120600Y0129011D02*
X0121942Y0129011D01*
X0136068Y0138602D02*
X0163931Y0138602D01*
X0163931Y0140201D02*
X0136068Y0140201D01*
X0136068Y0141799D02*
X0163931Y0141799D01*
X0163931Y0143398D02*
X0136068Y0143398D01*
X0136543Y0144996D02*
X0163931Y0144996D01*
X0163699Y0146595D02*
X0138141Y0146595D01*
X0139740Y0148193D02*
X0163570Y0148193D01*
X0163570Y0149792D02*
X0141338Y0149792D01*
X0149331Y0157784D02*
X0176431Y0157784D01*
X0176431Y0159383D02*
X0150929Y0159383D01*
X0152528Y0160981D02*
X0176431Y0160981D01*
X0175089Y0156186D02*
X0174911Y0156186D01*
X0180000Y0151512D02*
X0180512Y0151000D01*
X0180906Y0151394D01*
X0180000Y0151512D02*
X0180000Y0166000D01*
X0165377Y0184959D02*
X0162123Y0184959D01*
X0163091Y0183360D02*
X0164409Y0183360D01*
X0167559Y0186557D02*
X0159941Y0186557D01*
X0147681Y0186557D02*
X0147441Y0186557D01*
X0145000Y0181000D02*
X0145000Y0178500D01*
X0140000Y0173500D01*
X0115000Y0173500D01*
X0107500Y0181000D01*
X0105000Y0178500D01*
X0102500Y0176000D01*
X0102500Y0150600D01*
X0097500Y0150600D02*
X0097500Y0158500D01*
X0092500Y0158500D02*
X0092500Y0161000D01*
X0085000Y0168500D01*
X0085000Y0170488D01*
X0091988Y0170488D01*
X0092500Y0171000D01*
X0085512Y0171000D02*
X0085000Y0170488D01*
X0077500Y0176000D02*
X0075000Y0178500D01*
X0075000Y0181512D01*
X0077500Y0176000D02*
X0102500Y0176000D01*
X0101431Y0180163D02*
X0090343Y0180163D01*
X0090343Y0182287D02*
X0090343Y0184898D01*
X0090221Y0185356D01*
X0089984Y0185767D01*
X0089649Y0186102D01*
X0089238Y0186339D01*
X0088780Y0186461D01*
X0085775Y0186461D01*
X0085775Y0182287D01*
X0090343Y0182287D01*
X0090343Y0183360D02*
X0101909Y0183360D01*
X0101431Y0181762D02*
X0085775Y0181762D01*
X0085000Y0181512D02*
X0088012Y0181512D01*
X0097500Y0191000D01*
X0110000Y0191000D01*
X0120000Y0181000D01*
X0132500Y0181000D01*
X0142500Y0191000D01*
X0142559Y0186557D02*
X0109941Y0186557D01*
X0112123Y0184959D02*
X0116772Y0184959D01*
X0115479Y0183360D02*
X0113091Y0183360D01*
X0113568Y0181762D02*
X0114957Y0181762D01*
X0114969Y0180163D02*
X0113568Y0180163D01*
X0114982Y0178565D02*
X0115517Y0178565D01*
X0119700Y0181762D02*
X0120300Y0181762D01*
X0120300Y0181300D02*
X0120300Y0186100D01*
X0120401Y0186100D01*
X0121194Y0185974D01*
X0121958Y0185726D01*
X0122673Y0185362D01*
X0123322Y0184890D01*
X0123890Y0184322D01*
X0124362Y0183673D01*
X0124726Y0182958D01*
X0124974Y0182194D01*
X0125100Y0181401D01*
X0125100Y0181300D01*
X0120300Y0181300D01*
X0120300Y0183360D02*
X0119700Y0183360D01*
X0119700Y0184959D02*
X0120300Y0184959D01*
X0123228Y0184959D02*
X0129272Y0184959D01*
X0127979Y0183360D02*
X0124521Y0183360D01*
X0125043Y0181762D02*
X0127457Y0181762D01*
X0127469Y0180163D02*
X0125031Y0180163D01*
X0124483Y0178565D02*
X0128017Y0178565D01*
X0132200Y0181762D02*
X0132800Y0181762D01*
X0132800Y0181300D02*
X0132800Y0186100D01*
X0132901Y0186100D01*
X0133694Y0185974D01*
X0134458Y0185726D01*
X0135173Y0185362D01*
X0135822Y0184890D01*
X0136390Y0184322D01*
X0136862Y0183673D01*
X0137226Y0182958D01*
X0137474Y0182194D01*
X0137600Y0181401D01*
X0137600Y0181300D01*
X0132800Y0181300D01*
X0132800Y0183360D02*
X0132200Y0183360D01*
X0132200Y0184959D02*
X0132800Y0184959D01*
X0135728Y0184959D02*
X0140377Y0184959D01*
X0139409Y0183360D02*
X0137021Y0183360D01*
X0137543Y0181762D02*
X0138931Y0181762D01*
X0138931Y0180163D02*
X0137531Y0180163D01*
X0136983Y0178565D02*
X0139440Y0178565D01*
X0149511Y0216929D02*
X0152989Y0216929D01*
X0151956Y0218528D02*
X0150544Y0218528D01*
X0151068Y0220126D02*
X0151431Y0220126D01*
X0151431Y0221725D02*
X0151068Y0221725D01*
X0150606Y0223323D02*
X0151894Y0223323D01*
X0152839Y0224922D02*
X0149661Y0224922D01*
X0147531Y0226520D02*
X0154969Y0226520D01*
X0142469Y0226520D02*
X0135031Y0226520D01*
X0137161Y0224922D02*
X0140339Y0224922D01*
X0129969Y0226520D02*
X0122531Y0226520D01*
X0117469Y0226520D02*
X0112238Y0226520D01*
X0112161Y0224922D02*
X0115339Y0224922D01*
X0115508Y0228119D02*
X0187500Y0228119D01*
X0187500Y0229717D02*
X0117106Y0229717D01*
X0118017Y0231316D02*
X0187500Y0231316D01*
X0187500Y0232914D02*
X0118679Y0232914D01*
X0118851Y0234513D02*
X0187500Y0234513D01*
X0187500Y0236111D02*
X0118851Y0236111D01*
X0118466Y0237710D02*
X0187500Y0237710D01*
X0187500Y0239308D02*
X0117804Y0239308D01*
X0116592Y0240907D02*
X0187500Y0240907D01*
X0117829Y0215331D02*
X0109670Y0215331D01*
X0112011Y0216929D02*
X0115489Y0216929D01*
X0105329Y0215331D02*
X0086332Y0215331D01*
X0086430Y0216929D02*
X0102989Y0216929D01*
X0101956Y0218528D02*
X0086430Y0218528D01*
X0086430Y0220126D02*
X0101431Y0220126D01*
X0101431Y0221725D02*
X0086430Y0221725D01*
X0086430Y0223323D02*
X0100130Y0223323D01*
X0098532Y0224922D02*
X0086430Y0224922D01*
X0085600Y0226520D02*
X0096933Y0226520D01*
X0095335Y0228119D02*
X0087165Y0228119D01*
X0087500Y0233500D02*
X0080512Y0226512D01*
X0080512Y0221000D01*
X0080512Y0211000D01*
X0069488Y0221000D02*
X0062500Y0221000D01*
X0060000Y0218500D01*
X0059776Y0223323D02*
X0053282Y0223323D01*
X0053768Y0221725D02*
X0055820Y0221725D01*
X0055450Y0220126D02*
X0053768Y0220126D01*
X0053220Y0218528D02*
X0055450Y0218528D01*
X0055450Y0216929D02*
X0052087Y0216929D01*
X0051827Y0215331D02*
X0055797Y0215331D01*
X0053112Y0213732D02*
X0063570Y0213732D01*
X0063570Y0224922D02*
X0052236Y0224922D01*
X0049747Y0226520D02*
X0064400Y0226520D01*
X0074576Y0226520D02*
X0075424Y0226520D01*
X0093482Y0237710D02*
X0101888Y0237710D01*
X0101503Y0236111D02*
X0097435Y0236111D01*
X0099034Y0234513D02*
X0101503Y0234513D01*
X0101675Y0232914D02*
X0100632Y0232914D01*
X0102231Y0231316D02*
X0102337Y0231316D01*
X0102550Y0239308D02*
X0032500Y0239308D01*
X0032500Y0237710D02*
X0051517Y0237710D01*
X0050171Y0236111D02*
X0032500Y0236111D01*
X0032500Y0234513D02*
X0049531Y0234513D01*
X0049531Y0232914D02*
X0032500Y0232914D01*
X0032500Y0231316D02*
X0049994Y0231316D01*
X0040253Y0226520D02*
X0032500Y0226520D01*
X0032500Y0224922D02*
X0037764Y0224922D01*
X0036718Y0223323D02*
X0032500Y0223323D01*
X0032500Y0221725D02*
X0036231Y0221725D01*
X0036231Y0220126D02*
X0032500Y0220126D01*
X0032500Y0218528D02*
X0036780Y0218528D01*
X0037913Y0216929D02*
X0032500Y0216929D01*
X0032500Y0215331D02*
X0038173Y0215331D01*
X0036888Y0213732D02*
X0032500Y0213732D01*
X0032500Y0212134D02*
X0036231Y0212134D01*
X0036231Y0210535D02*
X0032500Y0210535D01*
X0032500Y0208937D02*
X0036611Y0208937D01*
X0037504Y0207338D02*
X0032500Y0207338D01*
X0032500Y0205739D02*
X0039626Y0205739D01*
X0038353Y0204141D02*
X0032500Y0204141D01*
X0032500Y0202542D02*
X0037454Y0202542D01*
X0037491Y0199345D02*
X0032500Y0199345D01*
X0032500Y0197747D02*
X0038465Y0197747D01*
X0039356Y0196148D02*
X0032500Y0196148D01*
X0032500Y0194550D02*
X0037392Y0194550D01*
X0036565Y0192951D02*
X0032500Y0192951D01*
X0032500Y0191353D02*
X0036231Y0191353D01*
X0036272Y0189754D02*
X0032500Y0189754D01*
X0032500Y0188156D02*
X0036934Y0188156D01*
X0038285Y0186557D02*
X0032500Y0186557D01*
X0032500Y0184959D02*
X0039131Y0184959D01*
X0039131Y0183360D02*
X0032500Y0183360D01*
X0032500Y0181762D02*
X0039131Y0181762D01*
X0039131Y0180163D02*
X0032500Y0180163D01*
X0032500Y0178565D02*
X0039131Y0178565D01*
X0039131Y0176966D02*
X0032500Y0176966D01*
X0032500Y0175368D02*
X0035080Y0175368D01*
X0037300Y0175368D02*
X0037700Y0175368D01*
X0037700Y0173769D02*
X0037300Y0173769D01*
X0037300Y0172171D02*
X0037700Y0172171D01*
X0037300Y0170800D02*
X0032700Y0170800D01*
X0032700Y0169012D01*
X0035512Y0166200D01*
X0037300Y0166200D01*
X0037300Y0170800D01*
X0037300Y0170572D02*
X0037700Y0170572D01*
X0037700Y0168974D02*
X0037300Y0168974D01*
X0037300Y0167375D02*
X0037700Y0167375D01*
X0037700Y0165777D02*
X0037300Y0165777D01*
X0037300Y0164178D02*
X0037700Y0164178D01*
X0037700Y0162580D02*
X0037300Y0162580D01*
X0037300Y0160981D02*
X0032500Y0160981D01*
X0032700Y0160800D02*
X0032700Y0159012D01*
X0035512Y0156200D01*
X0037300Y0156200D01*
X0037300Y0160800D01*
X0032700Y0160800D01*
X0032700Y0159383D02*
X0032500Y0159383D01*
X0032500Y0157784D02*
X0033928Y0157784D01*
X0032500Y0156186D02*
X0039131Y0156186D01*
X0037700Y0157784D02*
X0037300Y0157784D01*
X0037300Y0159383D02*
X0037700Y0159383D01*
X0037700Y0154587D02*
X0037300Y0154587D01*
X0037300Y0152989D02*
X0037700Y0152989D01*
X0037700Y0151390D02*
X0037300Y0151390D01*
X0037300Y0150800D02*
X0032700Y0150800D01*
X0032700Y0149012D01*
X0035512Y0146200D01*
X0037300Y0146200D01*
X0037300Y0150800D01*
X0037300Y0149792D02*
X0037700Y0149792D01*
X0037700Y0148193D02*
X0037300Y0148193D01*
X0037300Y0146595D02*
X0037700Y0146595D01*
X0037700Y0144996D02*
X0037300Y0144996D01*
X0037300Y0143398D02*
X0037700Y0143398D01*
X0037700Y0141799D02*
X0037300Y0141799D01*
X0037300Y0140800D02*
X0032700Y0140800D01*
X0032700Y0139012D01*
X0035512Y0136200D01*
X0037300Y0136200D01*
X0037300Y0140800D01*
X0037300Y0140201D02*
X0037700Y0140201D01*
X0037700Y0138602D02*
X0037300Y0138602D01*
X0037300Y0137003D02*
X0037700Y0137003D01*
X0037700Y0135405D02*
X0037300Y0135405D01*
X0037300Y0133806D02*
X0037700Y0133806D01*
X0037700Y0132208D02*
X0037300Y0132208D01*
X0037300Y0130800D02*
X0032700Y0130800D01*
X0032700Y0129012D01*
X0035512Y0126200D01*
X0037300Y0126200D01*
X0037300Y0130800D01*
X0037300Y0130609D02*
X0037700Y0130609D01*
X0037700Y0129011D02*
X0037300Y0129011D01*
X0037300Y0127412D02*
X0037700Y0127412D01*
X0039131Y0125814D02*
X0032500Y0125814D01*
X0032500Y0127412D02*
X0034299Y0127412D01*
X0032701Y0129011D02*
X0032500Y0129011D01*
X0032500Y0130609D02*
X0032700Y0130609D01*
X0032700Y0132208D02*
X0032500Y0132208D01*
X0032500Y0133806D02*
X0033518Y0133806D01*
X0032500Y0135405D02*
X0035117Y0135405D01*
X0034708Y0137003D02*
X0032500Y0137003D01*
X0032500Y0138602D02*
X0033110Y0138602D01*
X0032700Y0140201D02*
X0032500Y0140201D01*
X0032500Y0141799D02*
X0032700Y0141799D01*
X0032500Y0143398D02*
X0033109Y0143398D01*
X0032500Y0144996D02*
X0034708Y0144996D01*
X0035117Y0146595D02*
X0032500Y0146595D01*
X0032500Y0148193D02*
X0033519Y0148193D01*
X0032700Y0149792D02*
X0032500Y0149792D01*
X0032500Y0151390D02*
X0032700Y0151390D01*
X0032700Y0152989D02*
X0032500Y0152989D01*
X0032500Y0154587D02*
X0034299Y0154587D01*
X0032700Y0162580D02*
X0032500Y0162580D01*
X0032500Y0164178D02*
X0033890Y0164178D01*
X0032500Y0165777D02*
X0035488Y0165777D01*
X0034337Y0167375D02*
X0032500Y0167375D01*
X0032500Y0168974D02*
X0032738Y0168974D01*
X0032700Y0170572D02*
X0032500Y0170572D01*
X0032500Y0172171D02*
X0032700Y0172171D01*
X0032500Y0173769D02*
X0033481Y0173769D01*
X0051715Y0186557D02*
X0055597Y0186557D01*
X0056955Y0194550D02*
X0057944Y0194550D01*
X0044800Y0200944D02*
X0032500Y0200944D01*
X0032500Y0240907D02*
X0103762Y0240907D01*
X0105059Y0186557D02*
X0080563Y0186557D01*
X0084225Y0184959D02*
X0085775Y0184959D01*
X0085775Y0183360D02*
X0084225Y0183360D01*
X0083799Y0182713D02*
X0085000Y0181512D01*
X0090327Y0184959D02*
X0102877Y0184959D01*
X0092500Y0158500D02*
X0092500Y0150600D01*
X0087500Y0150600D02*
X0087500Y0158500D01*
X0080000Y0158500D01*
X0070000Y0141000D02*
X0070000Y0133500D01*
X0077500Y0126000D01*
X0077500Y0116000D01*
X0070000Y0126000D02*
X0070000Y0128500D01*
X0057500Y0141000D01*
X0047500Y0141000D01*
X0037700Y0124215D02*
X0037300Y0124215D01*
X0037300Y0122617D02*
X0037700Y0122617D01*
X0033927Y0124215D02*
X0032500Y0124215D01*
X0032500Y0122617D02*
X0032700Y0122617D01*
X0107500Y0126400D02*
X0107500Y0150600D01*
X0152500Y0097842D02*
X0149973Y0095315D01*
X0151815Y0093473D01*
X0154342Y0096000D01*
X0152500Y0097842D01*
X0151699Y0097041D02*
X0153301Y0097041D01*
X0153784Y0095442D02*
X0150100Y0095442D01*
X0151445Y0093844D02*
X0152186Y0093844D01*
X0144193Y0085851D02*
X0121068Y0085851D01*
X0121068Y0084253D02*
X0142595Y0084253D01*
X0141731Y0082654D02*
X0121068Y0082654D01*
X0121068Y0081056D02*
X0141731Y0081056D01*
X0141731Y0079457D02*
X0121068Y0079457D01*
X0121068Y0077859D02*
X0142484Y0077859D01*
X0160807Y0085851D02*
X0166193Y0085851D01*
X0164892Y0087450D02*
X0162108Y0087450D01*
X0163268Y0089048D02*
X0164065Y0089048D01*
X0163731Y0090647D02*
X0163268Y0090647D01*
X0163268Y0092245D02*
X0163772Y0092245D01*
X0164434Y0093844D02*
X0162814Y0093844D01*
X0161216Y0095442D02*
X0165784Y0095442D01*
X0164603Y0084253D02*
X0162405Y0084253D01*
X0163268Y0082654D02*
X0163941Y0082654D01*
X0163731Y0081056D02*
X0163268Y0081056D01*
X0161587Y0065070D02*
X0187500Y0065070D01*
X0187500Y0063472D02*
X0163186Y0063472D01*
X0163268Y0061873D02*
X0187500Y0061873D01*
X0187500Y0060275D02*
X0163268Y0060275D01*
X0163268Y0058676D02*
X0187500Y0058676D01*
X0187500Y0057078D02*
X0161736Y0057078D01*
X0161178Y0055479D02*
X0187500Y0055479D01*
X0187500Y0053881D02*
X0162777Y0053881D01*
X0163268Y0052282D02*
X0187500Y0052282D01*
X0187500Y0050684D02*
X0163268Y0050684D01*
X0163268Y0049085D02*
X0187500Y0049085D01*
X0187500Y0047487D02*
X0162145Y0047487D01*
X0160546Y0045888D02*
X0187500Y0045888D01*
X0187500Y0044290D02*
X0160998Y0044290D01*
X0162300Y0042691D02*
X0187500Y0042691D01*
X0187500Y0041093D02*
X0157700Y0041093D01*
X0161184Y0037896D02*
X0187500Y0037896D01*
X0187500Y0039494D02*
X0162300Y0039494D01*
X0160361Y0036297D02*
X0187500Y0036297D01*
X0187500Y0034699D02*
X0161959Y0034699D01*
X0163268Y0033100D02*
X0187500Y0033100D01*
X0187500Y0031502D02*
X0163268Y0031502D01*
X0163268Y0029903D02*
X0187500Y0029903D01*
X0187500Y0028305D02*
X0162963Y0028305D01*
X0161364Y0026706D02*
X0187500Y0026706D01*
X0187500Y0025108D02*
X0161550Y0025108D01*
X0163149Y0023509D02*
X0187500Y0023509D01*
X0187500Y0021911D02*
X0163268Y0021911D01*
X0163268Y0020312D02*
X0187500Y0020312D01*
X0187500Y0018714D02*
X0163268Y0018714D01*
X0161773Y0017115D02*
X0187500Y0017115D01*
X0187500Y0015517D02*
X0161141Y0015517D01*
X0162740Y0013918D02*
X0187500Y0013918D01*
X0187500Y0012320D02*
X0163268Y0012320D01*
X0163268Y0010721D02*
X0187500Y0010721D01*
X0187500Y0009123D02*
X0163268Y0009123D01*
X0162182Y0007524D02*
X0187500Y0007524D01*
X0152818Y0007524D02*
X0150812Y0007524D01*
X0147700Y0007524D02*
X0147300Y0007524D01*
X0147300Y0006200D02*
X0145512Y0006200D01*
X0142700Y0009012D01*
X0142700Y0010800D01*
X0147300Y0010800D01*
X0147300Y0006200D01*
X0147300Y0009123D02*
X0147700Y0009123D01*
X0147700Y0010721D02*
X0147300Y0010721D01*
X0144188Y0007524D02*
X0118126Y0007524D01*
X0118788Y0009123D02*
X0142700Y0009123D01*
X0142700Y0010721D02*
X0118851Y0010721D01*
X0118851Y0012320D02*
X0142700Y0012320D01*
X0143630Y0013918D02*
X0118357Y0013918D01*
X0117695Y0015517D02*
X0144825Y0015517D01*
X0143227Y0017115D02*
X0116329Y0017115D01*
X0114221Y0018714D02*
X0141731Y0018714D01*
X0138012Y0041689D02*
X0138012Y0051000D01*
X0152915Y0135405D02*
X0153747Y0135405D01*
X0173932Y0144996D02*
X0176068Y0144996D01*
D23*
X0122500Y0083500D03*
X0117500Y0113500D03*
X0097500Y0098500D03*
X0062500Y0098500D03*
X0055000Y0131000D03*
X0070000Y0141000D03*
X0048750Y0181000D03*
X0090000Y0051000D03*
X0070000Y0031000D03*
D24*
X0083750Y0088500D03*
X0087500Y0118500D03*
X0070000Y0126000D03*
X0060000Y0131000D03*
X0087500Y0158500D03*
X0092500Y0158500D03*
X0097500Y0158500D03*
X0107500Y0161000D03*
X0092500Y0171000D03*
X0127500Y0136000D03*
X0132500Y0131000D03*
X0060000Y0218500D03*
D25*
X0045000Y0191000D02*
X0042500Y0191000D01*
X0042500Y0108500D01*
X0045000Y0106000D01*
X0055000Y0106000D01*
X0062500Y0098500D01*
M02*
