G75*
%MOIN*%
%OFA0B0*%
%FSLAX25Y25*%
%IPPOS*%
%LPD*%
%AMOC8*
5,1,8,0,0,1.08239X$1,22.5*
%
%ADD10C,0.00000*%
%ADD11C,0.00300*%
%ADD12C,0.00600*%
%ADD13C,0.00200*%
%ADD14C,0.00400*%
%ADD15C,0.00100*%
%ADD16R,0.10000X0.02000*%
%ADD17R,0.03000X0.07500*%
%ADD18C,0.00800*%
%ADD19C,0.00500*%
%ADD20C,0.03000*%
%ADD21R,0.02000X0.03000*%
%ADD22R,0.04000X0.03000*%
%ADD23R,0.02000X0.02000*%
%ADD24C,0.01000*%
%ADD25R,0.07500X0.06000*%
D10*
X0027500Y0001000D02*
X0027500Y0245961D01*
X0192500Y0246000D01*
X0192500Y0001000D01*
X0027500Y0001000D01*
X0104271Y0011000D02*
X0104273Y0011153D01*
X0104279Y0011307D01*
X0104289Y0011460D01*
X0104303Y0011612D01*
X0104321Y0011765D01*
X0104343Y0011916D01*
X0104368Y0012067D01*
X0104398Y0012218D01*
X0104432Y0012368D01*
X0104469Y0012516D01*
X0104510Y0012664D01*
X0104555Y0012810D01*
X0104604Y0012956D01*
X0104657Y0013100D01*
X0104713Y0013242D01*
X0104773Y0013383D01*
X0104837Y0013523D01*
X0104904Y0013661D01*
X0104975Y0013797D01*
X0105050Y0013931D01*
X0105127Y0014063D01*
X0105209Y0014193D01*
X0105293Y0014321D01*
X0105381Y0014447D01*
X0105472Y0014570D01*
X0105566Y0014691D01*
X0105664Y0014809D01*
X0105764Y0014925D01*
X0105868Y0015038D01*
X0105974Y0015149D01*
X0106083Y0015257D01*
X0106195Y0015362D01*
X0106309Y0015463D01*
X0106427Y0015562D01*
X0106546Y0015658D01*
X0106668Y0015751D01*
X0106793Y0015840D01*
X0106920Y0015927D01*
X0107049Y0016009D01*
X0107180Y0016089D01*
X0107313Y0016165D01*
X0107448Y0016238D01*
X0107585Y0016307D01*
X0107724Y0016372D01*
X0107864Y0016434D01*
X0108006Y0016492D01*
X0108149Y0016547D01*
X0108294Y0016598D01*
X0108440Y0016645D01*
X0108587Y0016688D01*
X0108735Y0016727D01*
X0108884Y0016763D01*
X0109034Y0016794D01*
X0109185Y0016822D01*
X0109336Y0016846D01*
X0109489Y0016866D01*
X0109641Y0016882D01*
X0109794Y0016894D01*
X0109947Y0016902D01*
X0110100Y0016906D01*
X0110254Y0016906D01*
X0110407Y0016902D01*
X0110560Y0016894D01*
X0110713Y0016882D01*
X0110865Y0016866D01*
X0111018Y0016846D01*
X0111169Y0016822D01*
X0111320Y0016794D01*
X0111470Y0016763D01*
X0111619Y0016727D01*
X0111767Y0016688D01*
X0111914Y0016645D01*
X0112060Y0016598D01*
X0112205Y0016547D01*
X0112348Y0016492D01*
X0112490Y0016434D01*
X0112630Y0016372D01*
X0112769Y0016307D01*
X0112906Y0016238D01*
X0113041Y0016165D01*
X0113174Y0016089D01*
X0113305Y0016009D01*
X0113434Y0015927D01*
X0113561Y0015840D01*
X0113686Y0015751D01*
X0113808Y0015658D01*
X0113927Y0015562D01*
X0114045Y0015463D01*
X0114159Y0015362D01*
X0114271Y0015257D01*
X0114380Y0015149D01*
X0114486Y0015038D01*
X0114590Y0014925D01*
X0114690Y0014809D01*
X0114788Y0014691D01*
X0114882Y0014570D01*
X0114973Y0014447D01*
X0115061Y0014321D01*
X0115145Y0014193D01*
X0115227Y0014063D01*
X0115304Y0013931D01*
X0115379Y0013797D01*
X0115450Y0013661D01*
X0115517Y0013523D01*
X0115581Y0013383D01*
X0115641Y0013242D01*
X0115697Y0013100D01*
X0115750Y0012956D01*
X0115799Y0012810D01*
X0115844Y0012664D01*
X0115885Y0012516D01*
X0115922Y0012368D01*
X0115956Y0012218D01*
X0115986Y0012067D01*
X0116011Y0011916D01*
X0116033Y0011765D01*
X0116051Y0011612D01*
X0116065Y0011460D01*
X0116075Y0011307D01*
X0116081Y0011153D01*
X0116083Y0011000D01*
X0116081Y0010847D01*
X0116075Y0010693D01*
X0116065Y0010540D01*
X0116051Y0010388D01*
X0116033Y0010235D01*
X0116011Y0010084D01*
X0115986Y0009933D01*
X0115956Y0009782D01*
X0115922Y0009632D01*
X0115885Y0009484D01*
X0115844Y0009336D01*
X0115799Y0009190D01*
X0115750Y0009044D01*
X0115697Y0008900D01*
X0115641Y0008758D01*
X0115581Y0008617D01*
X0115517Y0008477D01*
X0115450Y0008339D01*
X0115379Y0008203D01*
X0115304Y0008069D01*
X0115227Y0007937D01*
X0115145Y0007807D01*
X0115061Y0007679D01*
X0114973Y0007553D01*
X0114882Y0007430D01*
X0114788Y0007309D01*
X0114690Y0007191D01*
X0114590Y0007075D01*
X0114486Y0006962D01*
X0114380Y0006851D01*
X0114271Y0006743D01*
X0114159Y0006638D01*
X0114045Y0006537D01*
X0113927Y0006438D01*
X0113808Y0006342D01*
X0113686Y0006249D01*
X0113561Y0006160D01*
X0113434Y0006073D01*
X0113305Y0005991D01*
X0113174Y0005911D01*
X0113041Y0005835D01*
X0112906Y0005762D01*
X0112769Y0005693D01*
X0112630Y0005628D01*
X0112490Y0005566D01*
X0112348Y0005508D01*
X0112205Y0005453D01*
X0112060Y0005402D01*
X0111914Y0005355D01*
X0111767Y0005312D01*
X0111619Y0005273D01*
X0111470Y0005237D01*
X0111320Y0005206D01*
X0111169Y0005178D01*
X0111018Y0005154D01*
X0110865Y0005134D01*
X0110713Y0005118D01*
X0110560Y0005106D01*
X0110407Y0005098D01*
X0110254Y0005094D01*
X0110100Y0005094D01*
X0109947Y0005098D01*
X0109794Y0005106D01*
X0109641Y0005118D01*
X0109489Y0005134D01*
X0109336Y0005154D01*
X0109185Y0005178D01*
X0109034Y0005206D01*
X0108884Y0005237D01*
X0108735Y0005273D01*
X0108587Y0005312D01*
X0108440Y0005355D01*
X0108294Y0005402D01*
X0108149Y0005453D01*
X0108006Y0005508D01*
X0107864Y0005566D01*
X0107724Y0005628D01*
X0107585Y0005693D01*
X0107448Y0005762D01*
X0107313Y0005835D01*
X0107180Y0005911D01*
X0107049Y0005991D01*
X0106920Y0006073D01*
X0106793Y0006160D01*
X0106668Y0006249D01*
X0106546Y0006342D01*
X0106427Y0006438D01*
X0106309Y0006537D01*
X0106195Y0006638D01*
X0106083Y0006743D01*
X0105974Y0006851D01*
X0105868Y0006962D01*
X0105764Y0007075D01*
X0105664Y0007191D01*
X0105566Y0007309D01*
X0105472Y0007430D01*
X0105381Y0007553D01*
X0105293Y0007679D01*
X0105209Y0007807D01*
X0105127Y0007937D01*
X0105050Y0008069D01*
X0104975Y0008203D01*
X0104904Y0008339D01*
X0104837Y0008477D01*
X0104773Y0008617D01*
X0104713Y0008758D01*
X0104657Y0008900D01*
X0104604Y0009044D01*
X0104555Y0009190D01*
X0104510Y0009336D01*
X0104469Y0009484D01*
X0104432Y0009632D01*
X0104398Y0009782D01*
X0104368Y0009933D01*
X0104343Y0010084D01*
X0104321Y0010235D01*
X0104303Y0010388D01*
X0104289Y0010540D01*
X0104279Y0010693D01*
X0104273Y0010847D01*
X0104271Y0011000D01*
X0104271Y0235055D02*
X0104273Y0235208D01*
X0104279Y0235362D01*
X0104289Y0235515D01*
X0104303Y0235667D01*
X0104321Y0235820D01*
X0104343Y0235971D01*
X0104368Y0236122D01*
X0104398Y0236273D01*
X0104432Y0236423D01*
X0104469Y0236571D01*
X0104510Y0236719D01*
X0104555Y0236865D01*
X0104604Y0237011D01*
X0104657Y0237155D01*
X0104713Y0237297D01*
X0104773Y0237438D01*
X0104837Y0237578D01*
X0104904Y0237716D01*
X0104975Y0237852D01*
X0105050Y0237986D01*
X0105127Y0238118D01*
X0105209Y0238248D01*
X0105293Y0238376D01*
X0105381Y0238502D01*
X0105472Y0238625D01*
X0105566Y0238746D01*
X0105664Y0238864D01*
X0105764Y0238980D01*
X0105868Y0239093D01*
X0105974Y0239204D01*
X0106083Y0239312D01*
X0106195Y0239417D01*
X0106309Y0239518D01*
X0106427Y0239617D01*
X0106546Y0239713D01*
X0106668Y0239806D01*
X0106793Y0239895D01*
X0106920Y0239982D01*
X0107049Y0240064D01*
X0107180Y0240144D01*
X0107313Y0240220D01*
X0107448Y0240293D01*
X0107585Y0240362D01*
X0107724Y0240427D01*
X0107864Y0240489D01*
X0108006Y0240547D01*
X0108149Y0240602D01*
X0108294Y0240653D01*
X0108440Y0240700D01*
X0108587Y0240743D01*
X0108735Y0240782D01*
X0108884Y0240818D01*
X0109034Y0240849D01*
X0109185Y0240877D01*
X0109336Y0240901D01*
X0109489Y0240921D01*
X0109641Y0240937D01*
X0109794Y0240949D01*
X0109947Y0240957D01*
X0110100Y0240961D01*
X0110254Y0240961D01*
X0110407Y0240957D01*
X0110560Y0240949D01*
X0110713Y0240937D01*
X0110865Y0240921D01*
X0111018Y0240901D01*
X0111169Y0240877D01*
X0111320Y0240849D01*
X0111470Y0240818D01*
X0111619Y0240782D01*
X0111767Y0240743D01*
X0111914Y0240700D01*
X0112060Y0240653D01*
X0112205Y0240602D01*
X0112348Y0240547D01*
X0112490Y0240489D01*
X0112630Y0240427D01*
X0112769Y0240362D01*
X0112906Y0240293D01*
X0113041Y0240220D01*
X0113174Y0240144D01*
X0113305Y0240064D01*
X0113434Y0239982D01*
X0113561Y0239895D01*
X0113686Y0239806D01*
X0113808Y0239713D01*
X0113927Y0239617D01*
X0114045Y0239518D01*
X0114159Y0239417D01*
X0114271Y0239312D01*
X0114380Y0239204D01*
X0114486Y0239093D01*
X0114590Y0238980D01*
X0114690Y0238864D01*
X0114788Y0238746D01*
X0114882Y0238625D01*
X0114973Y0238502D01*
X0115061Y0238376D01*
X0115145Y0238248D01*
X0115227Y0238118D01*
X0115304Y0237986D01*
X0115379Y0237852D01*
X0115450Y0237716D01*
X0115517Y0237578D01*
X0115581Y0237438D01*
X0115641Y0237297D01*
X0115697Y0237155D01*
X0115750Y0237011D01*
X0115799Y0236865D01*
X0115844Y0236719D01*
X0115885Y0236571D01*
X0115922Y0236423D01*
X0115956Y0236273D01*
X0115986Y0236122D01*
X0116011Y0235971D01*
X0116033Y0235820D01*
X0116051Y0235667D01*
X0116065Y0235515D01*
X0116075Y0235362D01*
X0116081Y0235208D01*
X0116083Y0235055D01*
X0116081Y0234902D01*
X0116075Y0234748D01*
X0116065Y0234595D01*
X0116051Y0234443D01*
X0116033Y0234290D01*
X0116011Y0234139D01*
X0115986Y0233988D01*
X0115956Y0233837D01*
X0115922Y0233687D01*
X0115885Y0233539D01*
X0115844Y0233391D01*
X0115799Y0233245D01*
X0115750Y0233099D01*
X0115697Y0232955D01*
X0115641Y0232813D01*
X0115581Y0232672D01*
X0115517Y0232532D01*
X0115450Y0232394D01*
X0115379Y0232258D01*
X0115304Y0232124D01*
X0115227Y0231992D01*
X0115145Y0231862D01*
X0115061Y0231734D01*
X0114973Y0231608D01*
X0114882Y0231485D01*
X0114788Y0231364D01*
X0114690Y0231246D01*
X0114590Y0231130D01*
X0114486Y0231017D01*
X0114380Y0230906D01*
X0114271Y0230798D01*
X0114159Y0230693D01*
X0114045Y0230592D01*
X0113927Y0230493D01*
X0113808Y0230397D01*
X0113686Y0230304D01*
X0113561Y0230215D01*
X0113434Y0230128D01*
X0113305Y0230046D01*
X0113174Y0229966D01*
X0113041Y0229890D01*
X0112906Y0229817D01*
X0112769Y0229748D01*
X0112630Y0229683D01*
X0112490Y0229621D01*
X0112348Y0229563D01*
X0112205Y0229508D01*
X0112060Y0229457D01*
X0111914Y0229410D01*
X0111767Y0229367D01*
X0111619Y0229328D01*
X0111470Y0229292D01*
X0111320Y0229261D01*
X0111169Y0229233D01*
X0111018Y0229209D01*
X0110865Y0229189D01*
X0110713Y0229173D01*
X0110560Y0229161D01*
X0110407Y0229153D01*
X0110254Y0229149D01*
X0110100Y0229149D01*
X0109947Y0229153D01*
X0109794Y0229161D01*
X0109641Y0229173D01*
X0109489Y0229189D01*
X0109336Y0229209D01*
X0109185Y0229233D01*
X0109034Y0229261D01*
X0108884Y0229292D01*
X0108735Y0229328D01*
X0108587Y0229367D01*
X0108440Y0229410D01*
X0108294Y0229457D01*
X0108149Y0229508D01*
X0108006Y0229563D01*
X0107864Y0229621D01*
X0107724Y0229683D01*
X0107585Y0229748D01*
X0107448Y0229817D01*
X0107313Y0229890D01*
X0107180Y0229966D01*
X0107049Y0230046D01*
X0106920Y0230128D01*
X0106793Y0230215D01*
X0106668Y0230304D01*
X0106546Y0230397D01*
X0106427Y0230493D01*
X0106309Y0230592D01*
X0106195Y0230693D01*
X0106083Y0230798D01*
X0105974Y0230906D01*
X0105868Y0231017D01*
X0105764Y0231130D01*
X0105664Y0231246D01*
X0105566Y0231364D01*
X0105472Y0231485D01*
X0105381Y0231608D01*
X0105293Y0231734D01*
X0105209Y0231862D01*
X0105127Y0231992D01*
X0105050Y0232124D01*
X0104975Y0232258D01*
X0104904Y0232394D01*
X0104837Y0232532D01*
X0104773Y0232672D01*
X0104713Y0232813D01*
X0104657Y0232955D01*
X0104604Y0233099D01*
X0104555Y0233245D01*
X0104510Y0233391D01*
X0104469Y0233539D01*
X0104432Y0233687D01*
X0104398Y0233837D01*
X0104368Y0233988D01*
X0104343Y0234139D01*
X0104321Y0234290D01*
X0104303Y0234443D01*
X0104289Y0234595D01*
X0104279Y0234748D01*
X0104273Y0234902D01*
X0104271Y0235055D01*
D11*
X0120563Y0236780D02*
X0120563Y0238715D01*
X0121531Y0239682D01*
X0122498Y0238715D01*
X0122498Y0236780D01*
X0123510Y0236780D02*
X0123510Y0238715D01*
X0123994Y0238715D01*
X0124477Y0238231D01*
X0124961Y0238715D01*
X0125445Y0238231D01*
X0125445Y0236780D01*
X0124477Y0236780D02*
X0124477Y0238231D01*
X0122498Y0238231D02*
X0120563Y0238231D01*
X0120957Y0236290D02*
X0120957Y0232587D01*
X0122809Y0232587D01*
X0123426Y0233204D01*
X0123426Y0234439D01*
X0122809Y0235056D01*
X0120957Y0235056D01*
X0124640Y0235056D02*
X0124640Y0233204D01*
X0125257Y0232587D01*
X0127109Y0232587D01*
X0127109Y0231970D02*
X0126492Y0231353D01*
X0125875Y0231353D01*
X0127109Y0231970D02*
X0127109Y0235056D01*
X0126940Y0236780D02*
X0126940Y0238715D01*
X0126456Y0238715D01*
X0126940Y0239682D02*
X0126940Y0240166D01*
X0128421Y0238231D02*
X0128421Y0237264D01*
X0128905Y0236780D01*
X0130356Y0236780D01*
X0130356Y0236296D02*
X0130356Y0238715D01*
X0128905Y0238715D01*
X0128421Y0238231D01*
X0127424Y0236780D02*
X0126456Y0236780D01*
X0129388Y0235812D02*
X0129872Y0235812D01*
X0130356Y0236296D01*
X0131367Y0237264D02*
X0131851Y0237747D01*
X0133302Y0237747D01*
X0133302Y0238231D02*
X0133302Y0236780D01*
X0131851Y0236780D01*
X0131367Y0237264D01*
X0132007Y0236290D02*
X0133241Y0235056D01*
X0134475Y0236290D01*
X0134475Y0232587D01*
X0135690Y0233204D02*
X0136307Y0233821D01*
X0138158Y0233821D01*
X0138158Y0234439D02*
X0138158Y0232587D01*
X0136307Y0232587D01*
X0135690Y0233204D01*
X0136307Y0235056D02*
X0137541Y0235056D01*
X0138158Y0234439D01*
X0139373Y0235056D02*
X0139373Y0233204D01*
X0139990Y0232587D01*
X0141842Y0232587D01*
X0141842Y0235056D01*
X0143056Y0235056D02*
X0143056Y0232587D01*
X0143056Y0233821D02*
X0144290Y0235056D01*
X0144908Y0235056D01*
X0146125Y0235056D02*
X0146742Y0235056D01*
X0146742Y0232587D01*
X0146125Y0232587D02*
X0147360Y0232587D01*
X0148581Y0232587D02*
X0151049Y0232587D01*
X0152264Y0232587D02*
X0153498Y0232587D01*
X0152881Y0232587D02*
X0152881Y0235056D01*
X0152264Y0235056D01*
X0151049Y0235056D02*
X0148581Y0232587D01*
X0149429Y0230329D02*
X0150397Y0228394D01*
X0151364Y0230329D01*
X0152376Y0230329D02*
X0153343Y0231297D01*
X0153343Y0228394D01*
X0152376Y0228394D02*
X0154311Y0228394D01*
X0155322Y0228394D02*
X0155806Y0228394D01*
X0155806Y0228878D01*
X0155322Y0228878D01*
X0155322Y0228394D01*
X0156795Y0228394D02*
X0158730Y0228394D01*
X0157763Y0228394D02*
X0157763Y0231297D01*
X0156795Y0230329D01*
X0156571Y0232587D02*
X0157188Y0233204D01*
X0157188Y0234439D01*
X0156571Y0235056D01*
X0155336Y0235056D01*
X0154719Y0234439D01*
X0154719Y0233204D01*
X0155336Y0232587D01*
X0156571Y0232587D01*
X0156398Y0236780D02*
X0157365Y0238715D01*
X0158377Y0238231D02*
X0158861Y0238715D01*
X0159828Y0238715D01*
X0160312Y0238231D01*
X0160312Y0237747D01*
X0158377Y0237747D01*
X0158377Y0237264D02*
X0158377Y0238231D01*
X0158377Y0237264D02*
X0158861Y0236780D01*
X0159828Y0236780D01*
X0162086Y0236290D02*
X0162086Y0232587D01*
X0162086Y0233821D02*
X0163937Y0233821D01*
X0164554Y0234439D01*
X0164554Y0235673D01*
X0163937Y0236290D01*
X0162086Y0236290D01*
X0164270Y0236780D02*
X0164270Y0239682D01*
X0165238Y0238715D01*
X0166205Y0239682D01*
X0166205Y0236780D01*
X0167217Y0236780D02*
X0168184Y0236780D01*
X0167700Y0236780D02*
X0167700Y0238715D01*
X0167217Y0238715D01*
X0167700Y0239682D02*
X0167700Y0240166D01*
X0169181Y0238715D02*
X0170632Y0238715D01*
X0171116Y0238231D01*
X0171116Y0236780D01*
X0172127Y0236780D02*
X0173095Y0236780D01*
X0172611Y0236780D02*
X0172611Y0238715D01*
X0172127Y0238715D01*
X0172611Y0239682D02*
X0172611Y0240166D01*
X0169181Y0238715D02*
X0169181Y0236780D01*
X0169452Y0235056D02*
X0170069Y0235056D01*
X0170686Y0234439D01*
X0171303Y0235056D01*
X0171921Y0234439D01*
X0171921Y0232587D01*
X0170686Y0232587D02*
X0170686Y0234439D01*
X0169452Y0235056D02*
X0169452Y0232587D01*
X0168237Y0232587D02*
X0166386Y0232587D01*
X0165769Y0233204D01*
X0166386Y0233821D01*
X0168237Y0233821D01*
X0168237Y0234439D02*
X0168237Y0232587D01*
X0168237Y0234439D02*
X0167620Y0235056D01*
X0166386Y0235056D01*
X0164554Y0232587D02*
X0163320Y0233821D01*
X0162689Y0231297D02*
X0162689Y0228394D01*
X0164140Y0228394D01*
X0164624Y0228878D01*
X0164624Y0229845D01*
X0164140Y0230329D01*
X0162689Y0230329D01*
X0165635Y0230329D02*
X0165635Y0228878D01*
X0166119Y0228394D01*
X0167570Y0228394D01*
X0167570Y0227910D02*
X0167086Y0227427D01*
X0166603Y0227427D01*
X0167570Y0227910D02*
X0167570Y0230329D01*
X0171528Y0229845D02*
X0172012Y0229362D01*
X0172979Y0229362D01*
X0173463Y0228878D01*
X0172979Y0228394D01*
X0171528Y0228394D01*
X0171528Y0229845D02*
X0172012Y0230329D01*
X0173463Y0230329D01*
X0174475Y0230329D02*
X0175442Y0230329D01*
X0174958Y0230813D02*
X0174958Y0228878D01*
X0175442Y0228394D01*
X0176439Y0228878D02*
X0176923Y0229362D01*
X0178374Y0229362D01*
X0178374Y0229845D02*
X0178374Y0228394D01*
X0176923Y0228394D01*
X0176439Y0228878D01*
X0176923Y0230329D02*
X0177890Y0230329D01*
X0178374Y0229845D01*
X0179385Y0229845D02*
X0179869Y0230329D01*
X0180837Y0230329D01*
X0181320Y0229845D01*
X0181320Y0228394D01*
X0182332Y0228394D02*
X0183299Y0228394D01*
X0182816Y0228394D02*
X0182816Y0231297D01*
X0182332Y0231297D01*
X0182970Y0232587D02*
X0181118Y0232587D01*
X0180501Y0233204D01*
X0180501Y0234439D01*
X0181118Y0235056D01*
X0182970Y0235056D01*
X0182970Y0236290D02*
X0182970Y0232587D01*
X0184184Y0233204D02*
X0184802Y0232587D01*
X0186036Y0232587D01*
X0186653Y0233204D01*
X0186653Y0234439D01*
X0186036Y0235056D01*
X0184802Y0235056D01*
X0184184Y0234439D01*
X0184184Y0233204D01*
X0184888Y0236780D02*
X0184405Y0237264D01*
X0184888Y0236780D02*
X0185856Y0236780D01*
X0186340Y0237264D01*
X0186340Y0237747D01*
X0185856Y0238231D01*
X0185372Y0238231D01*
X0185856Y0238231D02*
X0186340Y0238715D01*
X0186340Y0239199D01*
X0185856Y0239682D01*
X0184888Y0239682D01*
X0184405Y0239199D01*
X0183415Y0237264D02*
X0183415Y0236780D01*
X0182931Y0236780D01*
X0182931Y0237264D01*
X0183415Y0237264D01*
X0181920Y0236780D02*
X0179985Y0236780D01*
X0181920Y0238715D01*
X0181920Y0239199D01*
X0181436Y0239682D01*
X0180469Y0239682D01*
X0179985Y0239199D01*
X0178973Y0238715D02*
X0178006Y0236780D01*
X0177038Y0238715D01*
X0176818Y0235056D02*
X0178670Y0235056D01*
X0179287Y0234439D01*
X0179287Y0232587D01*
X0179385Y0231297D02*
X0179385Y0228394D01*
X0176818Y0232587D02*
X0176818Y0235056D01*
X0175604Y0234439D02*
X0174987Y0235056D01*
X0173752Y0235056D01*
X0173135Y0234439D01*
X0173135Y0233204D01*
X0173752Y0232587D01*
X0174987Y0232587D01*
X0175604Y0233204D01*
X0175604Y0234439D01*
X0156398Y0236780D02*
X0155431Y0238715D01*
X0153950Y0238715D02*
X0153950Y0236780D01*
X0153466Y0236780D02*
X0154434Y0236780D01*
X0152881Y0236907D02*
X0152881Y0236290D01*
X0151011Y0236780D02*
X0151011Y0238715D01*
X0151978Y0238715D02*
X0152462Y0238715D01*
X0151978Y0238715D02*
X0151011Y0237747D01*
X0149999Y0237264D02*
X0149515Y0236780D01*
X0148064Y0236780D01*
X0148064Y0239682D01*
X0149515Y0239682D01*
X0149999Y0239199D01*
X0149999Y0237264D01*
X0151049Y0235056D02*
X0148581Y0235056D01*
X0146742Y0236290D02*
X0146742Y0236907D01*
X0144121Y0236780D02*
X0143153Y0236780D01*
X0143637Y0236780D02*
X0143637Y0239682D01*
X0143153Y0239682D02*
X0144121Y0239682D01*
X0142142Y0239199D02*
X0142142Y0238231D01*
X0141658Y0237747D01*
X0140207Y0237747D01*
X0140207Y0236780D02*
X0140207Y0239682D01*
X0141658Y0239682D01*
X0142142Y0239199D01*
X0139195Y0239199D02*
X0139195Y0238231D01*
X0138712Y0237747D01*
X0137260Y0237747D01*
X0137260Y0236780D02*
X0137260Y0239682D01*
X0138712Y0239682D01*
X0139195Y0239199D01*
X0138228Y0237747D02*
X0139195Y0236780D01*
X0139585Y0230329D02*
X0138618Y0230329D01*
X0138618Y0229362D02*
X0140069Y0229362D01*
X0140069Y0229845D02*
X0140069Y0228394D01*
X0138618Y0228394D01*
X0138134Y0228878D01*
X0138618Y0229362D01*
X0139585Y0230329D02*
X0140069Y0229845D01*
X0141081Y0229362D02*
X0142048Y0230329D01*
X0142532Y0230329D01*
X0143536Y0229845D02*
X0143536Y0228878D01*
X0144020Y0228394D01*
X0145471Y0228394D01*
X0145471Y0231297D01*
X0145471Y0230329D02*
X0144020Y0230329D01*
X0143536Y0229845D01*
X0141081Y0230329D02*
X0141081Y0228394D01*
X0137123Y0228878D02*
X0137123Y0229845D01*
X0136639Y0230329D01*
X0135671Y0230329D01*
X0135188Y0229845D01*
X0135188Y0228878D01*
X0135671Y0228394D01*
X0136639Y0228394D01*
X0137123Y0228878D01*
X0134176Y0228878D02*
X0134176Y0229845D01*
X0133692Y0230329D01*
X0132241Y0230329D01*
X0132241Y0231297D02*
X0132241Y0228394D01*
X0133692Y0228394D01*
X0134176Y0228878D01*
X0132007Y0232587D02*
X0132007Y0236290D01*
X0133302Y0238231D02*
X0132819Y0238715D01*
X0131851Y0238715D01*
X0128283Y0231297D02*
X0128283Y0228394D01*
X0126832Y0228394D01*
X0126348Y0228878D01*
X0126348Y0229845D01*
X0126832Y0230329D01*
X0128283Y0230329D01*
X0125337Y0229845D02*
X0125337Y0228394D01*
X0124369Y0228394D02*
X0124369Y0229845D01*
X0124853Y0230329D01*
X0125337Y0229845D01*
X0124369Y0229845D02*
X0123885Y0230329D01*
X0123402Y0230329D01*
X0123402Y0228394D01*
X0122390Y0228878D02*
X0121906Y0229362D01*
X0120939Y0229362D01*
X0120455Y0229845D01*
X0120939Y0230329D01*
X0122390Y0230329D01*
X0122390Y0228878D02*
X0121906Y0228394D01*
X0120455Y0228394D01*
X0153466Y0238715D02*
X0153950Y0238715D01*
X0153950Y0239682D02*
X0153950Y0240166D01*
X0075504Y0194357D02*
X0071800Y0194357D01*
X0071800Y0196825D01*
X0073652Y0195591D02*
X0073652Y0194357D01*
X0073035Y0193142D02*
X0075504Y0193142D01*
X0075504Y0191291D01*
X0074886Y0190673D01*
X0073035Y0190673D01*
X0072418Y0189459D02*
X0074886Y0186990D01*
X0075504Y0187608D01*
X0075504Y0188842D01*
X0074886Y0189459D01*
X0072418Y0189459D01*
X0071800Y0188842D01*
X0071800Y0187608D01*
X0072418Y0186990D01*
X0074886Y0186990D01*
X0075504Y0185776D02*
X0075504Y0183307D01*
X0075504Y0184542D02*
X0071800Y0184542D01*
X0073035Y0183307D01*
D12*
X0052500Y0173500D02*
X0052500Y0168500D01*
X0050000Y0166000D01*
X0035000Y0166000D01*
X0032500Y0163500D01*
X0032500Y0158500D01*
X0035000Y0156000D01*
X0050000Y0156000D01*
X0052500Y0153500D01*
X0052500Y0148500D01*
X0050000Y0146000D01*
X0035000Y0146000D01*
X0032500Y0143500D01*
X0032500Y0138500D01*
X0035000Y0136000D01*
X0050000Y0136000D01*
X0052500Y0133500D01*
X0052500Y0128500D01*
X0050000Y0126000D01*
X0035000Y0126000D01*
X0032500Y0123500D01*
X0032500Y0118500D01*
X0035000Y0116000D01*
X0050000Y0116000D01*
X0052500Y0113500D01*
X0052500Y0108500D01*
X0050000Y0106000D01*
X0035000Y0106000D01*
X0032500Y0108500D01*
X0032500Y0113500D01*
X0035000Y0116000D01*
X0035000Y0106000D02*
X0032500Y0103500D01*
X0032500Y0098500D01*
X0035000Y0096000D01*
X0050000Y0096000D01*
X0052500Y0093500D01*
X0052500Y0088500D01*
X0050000Y0086000D01*
X0035000Y0086000D01*
X0032500Y0088500D01*
X0032500Y0093500D01*
X0035000Y0096000D01*
X0035000Y0086000D02*
X0032500Y0083500D01*
X0032500Y0078500D01*
X0035000Y0076000D01*
X0050000Y0076000D01*
X0052500Y0073500D01*
X0052500Y0068500D01*
X0050000Y0066000D01*
X0035000Y0066000D01*
X0032500Y0068500D01*
X0032500Y0073500D01*
X0035000Y0076000D01*
X0035000Y0066000D02*
X0032500Y0063500D01*
X0032500Y0058500D01*
X0035000Y0056000D01*
X0050000Y0056000D01*
X0052500Y0053500D01*
X0052500Y0048500D01*
X0050000Y0046000D01*
X0035000Y0046000D01*
X0032500Y0048500D01*
X0032500Y0053500D01*
X0035000Y0056000D01*
X0035000Y0046000D02*
X0032500Y0043500D01*
X0032500Y0038500D01*
X0035000Y0036000D01*
X0050000Y0036000D01*
X0052500Y0033500D01*
X0052500Y0028500D01*
X0050000Y0026000D01*
X0035000Y0026000D01*
X0032500Y0028500D01*
X0032500Y0033500D01*
X0035000Y0036000D01*
X0035000Y0026000D02*
X0032500Y0023500D01*
X0032500Y0018500D01*
X0035000Y0016000D01*
X0050000Y0016000D01*
X0052500Y0013500D01*
X0052500Y0008500D01*
X0050000Y0006000D01*
X0035000Y0006000D01*
X0032500Y0008500D01*
X0032500Y0013500D01*
X0035000Y0016000D01*
X0050000Y0016000D02*
X0052500Y0018500D01*
X0052500Y0023500D01*
X0050000Y0026000D01*
X0050000Y0036000D02*
X0052500Y0038500D01*
X0052500Y0043500D01*
X0050000Y0046000D01*
X0050000Y0056000D02*
X0052500Y0058500D01*
X0052500Y0063500D01*
X0050000Y0066000D01*
X0050000Y0076000D02*
X0052500Y0078500D01*
X0052500Y0083500D01*
X0050000Y0086000D01*
X0050000Y0096000D02*
X0052500Y0098500D01*
X0052500Y0103500D01*
X0050000Y0106000D01*
X0050000Y0116000D02*
X0052500Y0118500D01*
X0052500Y0123500D01*
X0050000Y0126000D01*
X0050000Y0136000D02*
X0052500Y0138500D01*
X0052500Y0143500D01*
X0050000Y0146000D01*
X0050000Y0156000D02*
X0052500Y0158500D01*
X0052500Y0163500D01*
X0050000Y0166000D01*
X0052500Y0173500D02*
X0050000Y0176000D01*
X0035000Y0176000D01*
X0032500Y0173500D01*
X0032500Y0168500D01*
X0035000Y0166000D01*
X0035000Y0156000D02*
X0032500Y0153500D01*
X0032500Y0148500D01*
X0035000Y0146000D01*
X0035000Y0136000D02*
X0032500Y0133500D01*
X0032500Y0128500D01*
X0035000Y0126000D01*
X0037500Y0186000D02*
X0027500Y0186000D01*
X0027500Y0196000D01*
X0027500Y0206000D01*
X0027500Y0216000D01*
X0027500Y0226000D01*
X0037500Y0226000D01*
X0037500Y0216000D01*
X0027500Y0216000D01*
X0027500Y0206000D02*
X0037500Y0206000D01*
X0037500Y0216000D01*
X0037500Y0206000D02*
X0037500Y0196000D01*
X0027500Y0196000D01*
X0037500Y0196000D02*
X0037500Y0186000D01*
X0052500Y0225500D02*
X0092500Y0225500D01*
X0092500Y0241500D01*
X0080000Y0241500D01*
X0080000Y0239000D01*
X0065000Y0239000D01*
X0065000Y0241500D01*
X0052500Y0241500D01*
X0052500Y0225500D01*
X0065000Y0230500D02*
X0065000Y0236500D01*
X0080000Y0236500D01*
X0080000Y0230500D01*
X0065000Y0230500D01*
X0065000Y0241500D02*
X0080000Y0241500D01*
X0102500Y0209000D02*
X0112500Y0209000D01*
X0112500Y0193000D01*
X0102500Y0193000D01*
X0102500Y0209000D01*
X0107500Y0203500D02*
X0107500Y0201000D01*
X0105000Y0201000D01*
X0107500Y0201000D02*
X0110000Y0201000D01*
X0107500Y0201000D02*
X0110000Y0197000D01*
X0105000Y0197000D01*
X0107500Y0201000D01*
X0107500Y0195000D01*
X0115000Y0193000D02*
X0125000Y0193000D01*
X0125000Y0209000D01*
X0115000Y0209000D01*
X0115000Y0193000D01*
X0117500Y0197000D02*
X0120000Y0201000D01*
X0117500Y0201000D01*
X0120000Y0201000D02*
X0122500Y0201000D01*
X0120000Y0201000D02*
X0120000Y0203500D01*
X0120000Y0201000D02*
X0122500Y0197000D01*
X0117500Y0197000D01*
X0120000Y0195000D02*
X0120000Y0201000D01*
X0127500Y0193000D02*
X0137500Y0193000D01*
X0137500Y0209000D01*
X0127500Y0209000D01*
X0127500Y0193000D01*
X0130000Y0197000D02*
X0132500Y0201000D01*
X0130000Y0201000D01*
X0132500Y0201000D02*
X0132500Y0203500D01*
X0132500Y0201000D02*
X0135000Y0201000D01*
X0132500Y0201000D02*
X0135000Y0197000D01*
X0130000Y0197000D01*
X0132500Y0195000D02*
X0132500Y0201000D01*
X0140000Y0193000D02*
X0150000Y0193000D01*
X0150000Y0209000D01*
X0140000Y0209000D01*
X0140000Y0193000D01*
X0142500Y0197000D02*
X0145000Y0201000D01*
X0142500Y0201000D01*
X0145000Y0201000D02*
X0145000Y0203500D01*
X0145000Y0201000D02*
X0147500Y0201000D01*
X0145000Y0201000D02*
X0147500Y0197000D01*
X0142500Y0197000D01*
X0145000Y0195000D02*
X0145000Y0201000D01*
X0152500Y0193000D02*
X0162500Y0193000D01*
X0162500Y0209000D01*
X0152500Y0209000D01*
X0152500Y0193000D01*
X0155000Y0197000D02*
X0157500Y0201000D01*
X0155000Y0201000D01*
X0157500Y0201000D02*
X0157500Y0203500D01*
X0157500Y0201000D02*
X0160000Y0201000D01*
X0157500Y0201000D02*
X0160000Y0197000D01*
X0155000Y0197000D01*
X0157500Y0195000D02*
X0157500Y0201000D01*
X0165000Y0193000D02*
X0175000Y0193000D01*
X0175000Y0209000D01*
X0165000Y0209000D01*
X0165000Y0193000D01*
X0167500Y0197000D02*
X0170000Y0201000D01*
X0167500Y0201000D01*
X0170000Y0201000D02*
X0170000Y0203500D01*
X0170000Y0201000D02*
X0172500Y0201000D01*
X0170000Y0201000D02*
X0172500Y0197000D01*
X0167500Y0197000D01*
X0170000Y0195000D02*
X0170000Y0201000D01*
X0179800Y0162400D02*
X0179708Y0162281D01*
X0179614Y0162164D01*
X0179516Y0162050D01*
X0179416Y0161938D01*
X0179312Y0161828D01*
X0179207Y0161722D01*
X0179098Y0161617D01*
X0178987Y0161516D01*
X0178873Y0161418D01*
X0178757Y0161322D01*
X0178639Y0161229D01*
X0178518Y0161140D01*
X0178395Y0161053D01*
X0178270Y0160970D01*
X0178143Y0160889D01*
X0178014Y0160812D01*
X0177883Y0160738D01*
X0177750Y0160667D01*
X0177616Y0160600D01*
X0177480Y0160536D01*
X0177342Y0160476D01*
X0177203Y0160419D01*
X0177062Y0160366D01*
X0176920Y0160316D01*
X0176777Y0160269D01*
X0176633Y0160227D01*
X0176488Y0160187D01*
X0176342Y0160152D01*
X0176195Y0160120D01*
X0176047Y0160092D01*
X0175899Y0160068D01*
X0175750Y0160047D01*
X0175600Y0160030D01*
X0175451Y0160017D01*
X0175301Y0160008D01*
X0175150Y0160002D01*
X0175000Y0160000D01*
X0179736Y0169683D02*
X0179642Y0169802D01*
X0179544Y0169918D01*
X0179444Y0170032D01*
X0179340Y0170143D01*
X0179234Y0170251D01*
X0179126Y0170357D01*
X0179014Y0170459D01*
X0178900Y0170559D01*
X0178784Y0170657D01*
X0178665Y0170751D01*
X0178544Y0170842D01*
X0178420Y0170930D01*
X0178294Y0171015D01*
X0178167Y0171096D01*
X0178037Y0171175D01*
X0177905Y0171250D01*
X0177772Y0171321D01*
X0177636Y0171390D01*
X0177499Y0171455D01*
X0177361Y0171516D01*
X0177220Y0171574D01*
X0177079Y0171628D01*
X0176936Y0171679D01*
X0176792Y0171726D01*
X0176647Y0171770D01*
X0176500Y0171809D01*
X0176353Y0171845D01*
X0176205Y0171878D01*
X0176056Y0171906D01*
X0175906Y0171931D01*
X0175756Y0171952D01*
X0175606Y0171969D01*
X0175454Y0171983D01*
X0175303Y0171992D01*
X0175152Y0171998D01*
X0175000Y0172000D01*
X0170118Y0162513D02*
X0170209Y0162388D01*
X0170303Y0162266D01*
X0170401Y0162147D01*
X0170501Y0162030D01*
X0170605Y0161916D01*
X0170711Y0161804D01*
X0170820Y0161696D01*
X0170932Y0161590D01*
X0171047Y0161487D01*
X0171164Y0161387D01*
X0171284Y0161289D01*
X0171406Y0161196D01*
X0171530Y0161105D01*
X0171657Y0161017D01*
X0171786Y0160933D01*
X0171918Y0160852D01*
X0172051Y0160775D01*
X0172186Y0160701D01*
X0172323Y0160630D01*
X0172462Y0160563D01*
X0172602Y0160500D01*
X0172745Y0160440D01*
X0172888Y0160384D01*
X0173033Y0160332D01*
X0173179Y0160283D01*
X0173327Y0160238D01*
X0173475Y0160197D01*
X0173625Y0160160D01*
X0173775Y0160126D01*
X0173927Y0160097D01*
X0174079Y0160071D01*
X0174231Y0160049D01*
X0174384Y0160032D01*
X0174538Y0160018D01*
X0174692Y0160008D01*
X0174846Y0160002D01*
X0175000Y0160000D01*
X0170264Y0169683D02*
X0170358Y0169802D01*
X0170456Y0169918D01*
X0170556Y0170032D01*
X0170660Y0170143D01*
X0170766Y0170251D01*
X0170874Y0170357D01*
X0170986Y0170459D01*
X0171100Y0170559D01*
X0171216Y0170657D01*
X0171335Y0170751D01*
X0171456Y0170842D01*
X0171580Y0170930D01*
X0171706Y0171015D01*
X0171833Y0171096D01*
X0171963Y0171175D01*
X0172095Y0171250D01*
X0172228Y0171321D01*
X0172364Y0171390D01*
X0172501Y0171455D01*
X0172639Y0171516D01*
X0172780Y0171574D01*
X0172921Y0171628D01*
X0173064Y0171679D01*
X0173208Y0171726D01*
X0173353Y0171770D01*
X0173500Y0171809D01*
X0173647Y0171845D01*
X0173795Y0171878D01*
X0173944Y0171906D01*
X0174094Y0171931D01*
X0174244Y0171952D01*
X0174394Y0171969D01*
X0174546Y0171983D01*
X0174697Y0171992D01*
X0174848Y0171998D01*
X0175000Y0172000D01*
X0160000Y0136000D02*
X0162500Y0133500D01*
X0162500Y0128500D01*
X0160000Y0126000D01*
X0145000Y0126000D01*
X0142500Y0123500D01*
X0142500Y0118500D01*
X0145000Y0116000D01*
X0160000Y0116000D01*
X0162500Y0113500D01*
X0162500Y0108500D01*
X0160000Y0106000D01*
X0145000Y0106000D01*
X0142500Y0103500D01*
X0142500Y0098500D01*
X0145000Y0096000D01*
X0160000Y0096000D01*
X0162500Y0093500D01*
X0162500Y0088500D01*
X0160000Y0086000D01*
X0145000Y0086000D01*
X0142500Y0083500D01*
X0142500Y0078500D01*
X0145000Y0076000D01*
X0160000Y0076000D01*
X0162500Y0073500D01*
X0162500Y0068500D01*
X0160000Y0066000D01*
X0145000Y0066000D01*
X0142500Y0068500D01*
X0142500Y0073500D01*
X0145000Y0076000D01*
X0145000Y0066000D02*
X0142500Y0063500D01*
X0142500Y0058500D01*
X0145000Y0056000D01*
X0160000Y0056000D01*
X0162500Y0053500D01*
X0162500Y0048500D01*
X0160000Y0046000D01*
X0145000Y0046000D01*
X0142500Y0048500D01*
X0142500Y0053500D01*
X0145000Y0056000D01*
X0145000Y0046000D02*
X0142500Y0043500D01*
X0142500Y0038500D01*
X0145000Y0036000D01*
X0160000Y0036000D01*
X0162500Y0033500D01*
X0162500Y0028500D01*
X0160000Y0026000D01*
X0145000Y0026000D01*
X0142500Y0028500D01*
X0142500Y0033500D01*
X0145000Y0036000D01*
X0145000Y0026000D02*
X0142500Y0023500D01*
X0142500Y0018500D01*
X0145000Y0016000D01*
X0142500Y0013500D01*
X0142500Y0008500D01*
X0145000Y0006000D01*
X0160000Y0006000D01*
X0162500Y0008500D01*
X0162500Y0013500D01*
X0160000Y0016000D01*
X0145000Y0016000D01*
X0160000Y0016000D02*
X0162500Y0018500D01*
X0162500Y0023500D01*
X0160000Y0026000D01*
X0160000Y0036000D02*
X0162500Y0038500D01*
X0162500Y0043500D01*
X0160000Y0046000D01*
X0160000Y0056000D02*
X0162500Y0058500D01*
X0162500Y0063500D01*
X0160000Y0066000D01*
X0167500Y0068500D02*
X0167500Y0073500D01*
X0170000Y0076000D01*
X0167500Y0078500D01*
X0167500Y0083500D01*
X0170000Y0086000D01*
X0167500Y0088500D01*
X0167500Y0093500D01*
X0170000Y0096000D01*
X0175000Y0096000D01*
X0177500Y0093500D01*
X0177500Y0088500D01*
X0175000Y0086000D01*
X0177500Y0083500D01*
X0177500Y0078500D01*
X0175000Y0076000D01*
X0177500Y0073500D01*
X0177500Y0068500D01*
X0175000Y0066000D01*
X0170000Y0066000D01*
X0167500Y0068500D01*
X0170000Y0076000D02*
X0175000Y0076000D01*
X0175000Y0086000D02*
X0170000Y0086000D01*
X0162500Y0083500D02*
X0162500Y0078500D01*
X0160000Y0076000D01*
X0162500Y0083500D02*
X0160000Y0086000D01*
X0160000Y0096000D02*
X0162500Y0098500D01*
X0162500Y0103500D01*
X0160000Y0106000D01*
X0160000Y0116000D02*
X0162500Y0118500D01*
X0162500Y0123500D01*
X0160000Y0126000D01*
X0160000Y0136000D02*
X0145000Y0136000D01*
X0142500Y0133500D01*
X0142500Y0128500D01*
X0145000Y0126000D01*
X0145000Y0116000D02*
X0142500Y0113500D01*
X0142500Y0108500D01*
X0145000Y0106000D01*
X0145000Y0096000D02*
X0142500Y0093500D01*
X0142500Y0088500D01*
X0145000Y0086000D01*
X0120000Y0132300D02*
X0120000Y0144700D01*
X0119998Y0144776D01*
X0119992Y0144852D01*
X0119983Y0144927D01*
X0119969Y0145002D01*
X0119952Y0145076D01*
X0119931Y0145149D01*
X0119907Y0145221D01*
X0119878Y0145292D01*
X0119847Y0145361D01*
X0119812Y0145428D01*
X0119773Y0145493D01*
X0119731Y0145557D01*
X0119686Y0145618D01*
X0119638Y0145677D01*
X0119587Y0145733D01*
X0119533Y0145787D01*
X0119477Y0145838D01*
X0119418Y0145886D01*
X0119357Y0145931D01*
X0119293Y0145973D01*
X0119228Y0146012D01*
X0119161Y0146047D01*
X0119092Y0146078D01*
X0119021Y0146107D01*
X0118949Y0146131D01*
X0118876Y0146152D01*
X0118802Y0146169D01*
X0118727Y0146183D01*
X0118652Y0146192D01*
X0118576Y0146198D01*
X0118500Y0146200D01*
X0120000Y0132300D02*
X0119998Y0132224D01*
X0119992Y0132148D01*
X0119983Y0132073D01*
X0119969Y0131998D01*
X0119952Y0131924D01*
X0119931Y0131851D01*
X0119907Y0131779D01*
X0119878Y0131708D01*
X0119847Y0131639D01*
X0119812Y0131572D01*
X0119773Y0131507D01*
X0119731Y0131443D01*
X0119686Y0131382D01*
X0119638Y0131323D01*
X0119587Y0131267D01*
X0119533Y0131213D01*
X0119477Y0131162D01*
X0119418Y0131114D01*
X0119357Y0131069D01*
X0119293Y0131027D01*
X0119228Y0130988D01*
X0119161Y0130953D01*
X0119092Y0130922D01*
X0119021Y0130893D01*
X0118949Y0130869D01*
X0118876Y0130848D01*
X0118802Y0130831D01*
X0118727Y0130817D01*
X0118652Y0130808D01*
X0118576Y0130802D01*
X0118500Y0130800D01*
X0086500Y0130800D02*
X0086424Y0130802D01*
X0086348Y0130808D01*
X0086273Y0130817D01*
X0086198Y0130831D01*
X0086124Y0130848D01*
X0086051Y0130869D01*
X0085979Y0130893D01*
X0085908Y0130922D01*
X0085839Y0130953D01*
X0085772Y0130988D01*
X0085707Y0131027D01*
X0085643Y0131069D01*
X0085582Y0131114D01*
X0085523Y0131162D01*
X0085467Y0131213D01*
X0085413Y0131267D01*
X0085362Y0131323D01*
X0085314Y0131382D01*
X0085269Y0131443D01*
X0085227Y0131507D01*
X0085188Y0131572D01*
X0085153Y0131639D01*
X0085122Y0131708D01*
X0085093Y0131779D01*
X0085069Y0131851D01*
X0085048Y0131924D01*
X0085031Y0131998D01*
X0085017Y0132073D01*
X0085008Y0132148D01*
X0085002Y0132224D01*
X0085000Y0132300D01*
X0085000Y0136500D01*
X0085000Y0140500D01*
X0085000Y0144700D01*
X0085002Y0144776D01*
X0085008Y0144852D01*
X0085017Y0144927D01*
X0085031Y0145002D01*
X0085048Y0145076D01*
X0085069Y0145149D01*
X0085093Y0145221D01*
X0085122Y0145292D01*
X0085153Y0145361D01*
X0085188Y0145428D01*
X0085227Y0145493D01*
X0085269Y0145557D01*
X0085314Y0145618D01*
X0085362Y0145677D01*
X0085413Y0145733D01*
X0085467Y0145787D01*
X0085523Y0145838D01*
X0085582Y0145886D01*
X0085643Y0145931D01*
X0085707Y0145973D01*
X0085772Y0146012D01*
X0085839Y0146047D01*
X0085908Y0146078D01*
X0085979Y0146107D01*
X0086051Y0146131D01*
X0086124Y0146152D01*
X0086198Y0146169D01*
X0086273Y0146183D01*
X0086348Y0146192D01*
X0086424Y0146198D01*
X0086500Y0146200D01*
X0085000Y0140500D02*
X0085088Y0140498D01*
X0085177Y0140492D01*
X0085265Y0140482D01*
X0085352Y0140469D01*
X0085439Y0140451D01*
X0085525Y0140430D01*
X0085610Y0140405D01*
X0085693Y0140376D01*
X0085776Y0140343D01*
X0085856Y0140307D01*
X0085935Y0140268D01*
X0086013Y0140225D01*
X0086088Y0140178D01*
X0086161Y0140128D01*
X0086232Y0140075D01*
X0086301Y0140019D01*
X0086367Y0139960D01*
X0086430Y0139898D01*
X0086490Y0139834D01*
X0086548Y0139767D01*
X0086602Y0139697D01*
X0086654Y0139625D01*
X0086702Y0139551D01*
X0086747Y0139474D01*
X0086788Y0139396D01*
X0086826Y0139316D01*
X0086860Y0139235D01*
X0086891Y0139152D01*
X0086918Y0139067D01*
X0086941Y0138982D01*
X0086960Y0138896D01*
X0086976Y0138808D01*
X0086988Y0138721D01*
X0086996Y0138633D01*
X0087000Y0138544D01*
X0087000Y0138456D01*
X0086996Y0138367D01*
X0086988Y0138279D01*
X0086976Y0138192D01*
X0086960Y0138104D01*
X0086941Y0138018D01*
X0086918Y0137933D01*
X0086891Y0137848D01*
X0086860Y0137765D01*
X0086826Y0137684D01*
X0086788Y0137604D01*
X0086747Y0137526D01*
X0086702Y0137449D01*
X0086654Y0137375D01*
X0086602Y0137303D01*
X0086548Y0137233D01*
X0086490Y0137166D01*
X0086430Y0137102D01*
X0086367Y0137040D01*
X0086301Y0136981D01*
X0086232Y0136925D01*
X0086161Y0136872D01*
X0086088Y0136822D01*
X0086013Y0136775D01*
X0085935Y0136732D01*
X0085856Y0136693D01*
X0085776Y0136657D01*
X0085693Y0136624D01*
X0085610Y0136595D01*
X0085525Y0136570D01*
X0085439Y0136549D01*
X0085352Y0136531D01*
X0085265Y0136518D01*
X0085177Y0136508D01*
X0085088Y0136502D01*
X0085000Y0136500D01*
D13*
X0085000Y0132200D02*
X0120000Y0132200D01*
X0182827Y0094364D02*
X0184295Y0094364D01*
X0184662Y0094731D01*
X0183194Y0094731D02*
X0183194Y0093997D01*
X0183194Y0093256D02*
X0183194Y0092889D01*
X0183928Y0092155D01*
X0184662Y0092155D02*
X0183194Y0092155D01*
X0183194Y0091413D02*
X0184295Y0091413D01*
X0184662Y0091046D01*
X0184295Y0090679D01*
X0184662Y0090312D01*
X0184295Y0089945D01*
X0183194Y0089945D01*
X0182460Y0086999D02*
X0184662Y0086999D01*
X0184662Y0084047D02*
X0184662Y0082946D01*
X0184295Y0082579D01*
X0183561Y0082579D01*
X0183194Y0082946D01*
X0183194Y0084047D01*
X0185029Y0084047D01*
X0185396Y0083680D01*
X0185396Y0083313D01*
X0184662Y0081837D02*
X0183561Y0081837D01*
X0183194Y0081470D01*
X0183194Y0080736D01*
X0183561Y0080369D01*
X0183194Y0079627D02*
X0183194Y0078526D01*
X0183561Y0078159D01*
X0184295Y0078159D01*
X0184662Y0078526D01*
X0184662Y0079627D01*
X0184662Y0080369D02*
X0182460Y0080369D01*
X0182460Y0075213D02*
X0184662Y0075213D01*
X0184662Y0072261D02*
X0182460Y0072261D01*
X0183194Y0072261D02*
X0183194Y0071160D01*
X0183561Y0070793D01*
X0184295Y0070793D01*
X0184662Y0071160D01*
X0184662Y0072261D01*
X0184662Y0070051D02*
X0183561Y0070051D01*
X0183194Y0069684D01*
X0183194Y0068583D01*
X0184662Y0068583D01*
X0184662Y0067841D02*
X0184662Y0066740D01*
X0184295Y0066373D01*
X0183561Y0066373D01*
X0183194Y0066740D01*
X0183194Y0067841D01*
X0185029Y0067841D01*
X0185396Y0067474D01*
X0185396Y0067107D01*
D14*
X0169800Y0059665D02*
X0169800Y0058131D01*
X0169800Y0058898D02*
X0165196Y0058898D01*
X0165196Y0058131D02*
X0165196Y0059665D01*
X0165963Y0056596D02*
X0167498Y0056596D01*
X0168265Y0055829D01*
X0168265Y0053527D01*
X0169800Y0053527D02*
X0165196Y0053527D01*
X0165196Y0055829D01*
X0165963Y0056596D01*
X0166731Y0047388D02*
X0170567Y0047388D01*
X0171335Y0046621D01*
X0171335Y0045853D01*
X0169800Y0045086D02*
X0169033Y0044319D01*
X0166731Y0044319D01*
X0166731Y0042784D02*
X0166731Y0042017D01*
X0168265Y0040482D01*
X0166731Y0040482D02*
X0169800Y0040482D01*
X0166731Y0038948D02*
X0166731Y0038180D01*
X0168265Y0036646D01*
X0166731Y0036646D02*
X0169800Y0036646D01*
X0168265Y0035111D02*
X0168265Y0032042D01*
X0167498Y0032042D02*
X0166731Y0032809D01*
X0166731Y0034344D01*
X0167498Y0035111D01*
X0168265Y0035111D01*
X0169800Y0034344D02*
X0169800Y0032809D01*
X0169033Y0032042D01*
X0167498Y0032042D01*
X0167498Y0030507D02*
X0166731Y0029740D01*
X0166731Y0027438D01*
X0165196Y0027438D02*
X0169800Y0027438D01*
X0169800Y0029740D01*
X0169033Y0030507D01*
X0167498Y0030507D01*
X0167498Y0025903D02*
X0169033Y0025903D01*
X0169800Y0025136D01*
X0169800Y0022834D01*
X0171335Y0022834D02*
X0166731Y0022834D01*
X0166731Y0025136D01*
X0167498Y0025903D01*
X0166731Y0021299D02*
X0166731Y0018997D01*
X0167498Y0018230D01*
X0168265Y0018997D01*
X0168265Y0020532D01*
X0169033Y0021299D01*
X0169800Y0020532D01*
X0169800Y0018230D01*
X0169800Y0016695D02*
X0167498Y0016695D01*
X0166731Y0015928D01*
X0166731Y0014393D01*
X0168265Y0014393D02*
X0168265Y0016695D01*
X0169800Y0016695D02*
X0169800Y0014393D01*
X0169033Y0013626D01*
X0168265Y0014393D01*
X0167498Y0012091D02*
X0165963Y0012091D01*
X0165196Y0011324D01*
X0165196Y0009022D01*
X0169800Y0009022D01*
X0168265Y0009022D02*
X0168265Y0011324D01*
X0167498Y0012091D01*
X0168265Y0010557D02*
X0169800Y0012091D01*
X0169800Y0045086D02*
X0169800Y0047388D01*
X0066437Y0182732D02*
X0070768Y0187063D01*
X0070768Y0199268D01*
X0065846Y0199268D01*
X0059154Y0197889D02*
X0058987Y0197806D01*
X0058823Y0197719D01*
X0058660Y0197627D01*
X0058500Y0197532D01*
X0058343Y0197433D01*
X0058188Y0197330D01*
X0058035Y0197223D01*
X0057885Y0197112D01*
X0057738Y0196998D01*
X0057593Y0196881D01*
X0057452Y0196760D01*
X0057313Y0196635D01*
X0057178Y0196508D01*
X0057045Y0196377D01*
X0056916Y0196242D01*
X0056790Y0196105D01*
X0056668Y0195965D01*
X0056549Y0195821D01*
X0056433Y0195675D01*
X0056322Y0195526D01*
X0056213Y0195375D01*
X0056109Y0195221D01*
X0056008Y0195064D01*
X0055911Y0194905D01*
X0055818Y0194744D01*
X0055729Y0194580D01*
X0055644Y0194414D01*
X0055563Y0194247D01*
X0055486Y0194077D01*
X0055413Y0193905D01*
X0055345Y0193732D01*
X0055281Y0193557D01*
X0055221Y0193381D01*
X0055165Y0193203D01*
X0055113Y0193024D01*
X0055066Y0192844D01*
X0055024Y0192663D01*
X0054985Y0192481D01*
X0054952Y0192297D01*
X0054922Y0192114D01*
X0054898Y0191929D01*
X0054877Y0191744D01*
X0054861Y0191558D01*
X0054850Y0191372D01*
X0054843Y0191186D01*
X0054841Y0191000D01*
X0054843Y0190814D01*
X0054850Y0190628D01*
X0054861Y0190442D01*
X0054877Y0190256D01*
X0054898Y0190071D01*
X0054922Y0189886D01*
X0054952Y0189703D01*
X0054985Y0189519D01*
X0055024Y0189337D01*
X0055066Y0189156D01*
X0055113Y0188976D01*
X0055165Y0188797D01*
X0055221Y0188619D01*
X0055281Y0188443D01*
X0055345Y0188268D01*
X0055413Y0188095D01*
X0055486Y0187923D01*
X0055563Y0187753D01*
X0055644Y0187586D01*
X0055729Y0187420D01*
X0055818Y0187256D01*
X0055911Y0187095D01*
X0056008Y0186936D01*
X0056109Y0186779D01*
X0056213Y0186625D01*
X0056322Y0186474D01*
X0056433Y0186325D01*
X0056549Y0186179D01*
X0056668Y0186035D01*
X0056790Y0185895D01*
X0056916Y0185758D01*
X0057045Y0185623D01*
X0057178Y0185492D01*
X0057313Y0185365D01*
X0057452Y0185240D01*
X0057593Y0185119D01*
X0057738Y0185002D01*
X0057885Y0184888D01*
X0058035Y0184777D01*
X0058188Y0184670D01*
X0058343Y0184567D01*
X0058500Y0184468D01*
X0058660Y0184373D01*
X0058823Y0184281D01*
X0058987Y0184194D01*
X0059154Y0184111D01*
X0058563Y0182732D02*
X0054232Y0187063D01*
X0054232Y0199268D01*
X0059154Y0199268D01*
X0065846Y0197889D02*
X0066013Y0197806D01*
X0066177Y0197719D01*
X0066340Y0197627D01*
X0066500Y0197532D01*
X0066657Y0197433D01*
X0066812Y0197330D01*
X0066965Y0197223D01*
X0067115Y0197112D01*
X0067262Y0196998D01*
X0067407Y0196881D01*
X0067548Y0196760D01*
X0067687Y0196635D01*
X0067822Y0196508D01*
X0067955Y0196377D01*
X0068084Y0196242D01*
X0068210Y0196105D01*
X0068332Y0195965D01*
X0068451Y0195821D01*
X0068567Y0195675D01*
X0068678Y0195526D01*
X0068787Y0195375D01*
X0068891Y0195221D01*
X0068992Y0195064D01*
X0069089Y0194905D01*
X0069182Y0194744D01*
X0069271Y0194580D01*
X0069356Y0194414D01*
X0069437Y0194247D01*
X0069514Y0194077D01*
X0069587Y0193905D01*
X0069655Y0193732D01*
X0069719Y0193557D01*
X0069779Y0193381D01*
X0069835Y0193203D01*
X0069887Y0193024D01*
X0069934Y0192844D01*
X0069976Y0192663D01*
X0070015Y0192481D01*
X0070048Y0192297D01*
X0070078Y0192114D01*
X0070102Y0191929D01*
X0070123Y0191744D01*
X0070139Y0191558D01*
X0070150Y0191372D01*
X0070157Y0191186D01*
X0070159Y0191000D01*
X0070157Y0190814D01*
X0070150Y0190628D01*
X0070139Y0190442D01*
X0070123Y0190256D01*
X0070102Y0190071D01*
X0070078Y0189886D01*
X0070048Y0189703D01*
X0070015Y0189519D01*
X0069976Y0189337D01*
X0069934Y0189156D01*
X0069887Y0188976D01*
X0069835Y0188797D01*
X0069779Y0188619D01*
X0069719Y0188443D01*
X0069655Y0188268D01*
X0069587Y0188095D01*
X0069514Y0187923D01*
X0069437Y0187753D01*
X0069356Y0187586D01*
X0069271Y0187420D01*
X0069182Y0187256D01*
X0069089Y0187095D01*
X0068992Y0186936D01*
X0068891Y0186779D01*
X0068787Y0186625D01*
X0068678Y0186474D01*
X0068567Y0186325D01*
X0068451Y0186179D01*
X0068332Y0186035D01*
X0068210Y0185895D01*
X0068084Y0185758D01*
X0067955Y0185623D01*
X0067822Y0185492D01*
X0067687Y0185365D01*
X0067548Y0185240D01*
X0067407Y0185119D01*
X0067262Y0185002D01*
X0067115Y0184888D01*
X0066965Y0184777D01*
X0066812Y0184670D01*
X0066657Y0184567D01*
X0066500Y0184468D01*
X0066340Y0184373D01*
X0066177Y0184281D01*
X0066013Y0184194D01*
X0065846Y0184111D01*
X0056553Y0089665D02*
X0055785Y0089665D01*
X0055018Y0088898D01*
X0055018Y0087363D01*
X0055785Y0086596D01*
X0057320Y0086596D01*
X0058087Y0087363D01*
X0058087Y0088898D01*
X0056553Y0089665D02*
X0056553Y0086596D01*
X0055018Y0085061D02*
X0058087Y0083527D01*
X0055018Y0081992D01*
X0055018Y0079690D02*
X0058087Y0079690D01*
X0058087Y0078923D02*
X0058087Y0080457D01*
X0055018Y0079690D02*
X0055018Y0078923D01*
X0055018Y0077388D02*
X0055018Y0076621D01*
X0056553Y0075086D01*
X0058087Y0075086D02*
X0055018Y0075086D01*
X0054251Y0073551D02*
X0053483Y0072784D01*
X0053483Y0070482D01*
X0058087Y0070482D01*
X0058087Y0072784D01*
X0057320Y0073551D01*
X0054251Y0073551D01*
X0053483Y0079690D02*
X0052716Y0079690D01*
X0058087Y0064344D02*
X0058087Y0062809D01*
X0058087Y0063576D02*
X0053483Y0063576D01*
X0053483Y0062809D01*
X0055018Y0060507D02*
X0055785Y0061274D01*
X0058087Y0061274D01*
X0058087Y0058972D01*
X0057320Y0058205D01*
X0056553Y0058972D01*
X0056553Y0061274D01*
X0055018Y0060507D02*
X0055018Y0058972D01*
X0055785Y0056670D02*
X0058087Y0056670D01*
X0058087Y0053601D02*
X0055018Y0053601D01*
X0055018Y0055903D01*
X0055785Y0056670D01*
X0055018Y0052066D02*
X0055018Y0051299D01*
X0056553Y0049764D01*
X0056553Y0048230D02*
X0055785Y0048230D01*
X0055018Y0047463D01*
X0055018Y0045928D01*
X0055785Y0045161D01*
X0057320Y0045161D01*
X0058087Y0045928D01*
X0058087Y0047463D01*
X0056553Y0048230D02*
X0056553Y0045161D01*
X0058087Y0043626D02*
X0057320Y0042859D01*
X0054251Y0042859D01*
X0055018Y0043626D02*
X0055018Y0042091D01*
X0055785Y0040557D02*
X0058087Y0040557D01*
X0058087Y0037487D02*
X0055018Y0037487D01*
X0055018Y0039789D01*
X0055785Y0040557D01*
X0053483Y0035953D02*
X0053483Y0034418D01*
X0053483Y0035185D02*
X0058087Y0035185D01*
X0058087Y0034418D02*
X0058087Y0035953D01*
X0058087Y0028280D02*
X0055785Y0028280D01*
X0055018Y0027512D01*
X0055018Y0025978D01*
X0056553Y0025978D02*
X0056553Y0028280D01*
X0058087Y0028280D02*
X0058087Y0025978D01*
X0057320Y0025210D01*
X0056553Y0025978D01*
X0058087Y0023676D02*
X0058087Y0021374D01*
X0057320Y0020606D01*
X0055785Y0020606D01*
X0055018Y0021374D01*
X0055018Y0023676D01*
X0058855Y0023676D01*
X0059622Y0022908D01*
X0059622Y0022141D01*
X0058087Y0019072D02*
X0058087Y0017537D01*
X0058087Y0018304D02*
X0055018Y0018304D01*
X0055018Y0017537D01*
X0053483Y0018304D02*
X0052716Y0018304D01*
X0055018Y0015235D02*
X0055785Y0016002D01*
X0058087Y0016002D01*
X0058087Y0014468D02*
X0055785Y0014468D01*
X0055018Y0015235D01*
X0055785Y0014468D02*
X0055018Y0013700D01*
X0055018Y0012933D01*
X0058087Y0012933D01*
X0058087Y0011398D02*
X0055018Y0011398D01*
X0053483Y0009864D01*
X0055018Y0008329D01*
X0058087Y0008329D01*
X0055785Y0008329D02*
X0055785Y0011398D01*
X0055018Y0049764D02*
X0058087Y0049764D01*
D15*
X0077062Y0050450D02*
X0078062Y0050450D01*
X0078535Y0050450D02*
X0078535Y0051951D01*
X0079286Y0051451D02*
X0078535Y0050950D01*
X0079286Y0050450D01*
X0077562Y0050450D02*
X0077562Y0051951D01*
X0077062Y0051451D01*
X0077062Y0060450D02*
X0078062Y0060450D01*
X0078535Y0060450D02*
X0078535Y0061951D01*
X0079286Y0061451D02*
X0078535Y0060950D01*
X0079286Y0060450D01*
X0077562Y0060450D02*
X0077562Y0061951D01*
X0077062Y0061451D01*
X0077455Y0070056D02*
X0078456Y0070056D01*
X0078929Y0070056D02*
X0078929Y0071558D01*
X0079679Y0071057D02*
X0078929Y0070557D01*
X0079679Y0070056D01*
X0077956Y0070056D02*
X0077956Y0071558D01*
X0077455Y0071057D01*
X0077455Y0080056D02*
X0078456Y0080056D01*
X0078929Y0080056D02*
X0078929Y0081558D01*
X0079679Y0081057D02*
X0078929Y0080557D01*
X0079679Y0080056D01*
X0077956Y0080056D02*
X0077956Y0081558D01*
X0077455Y0081057D01*
X0077455Y0090056D02*
X0078456Y0090056D01*
X0078929Y0090056D02*
X0078929Y0091558D01*
X0079679Y0091057D02*
X0078929Y0090557D01*
X0079679Y0090056D01*
X0077956Y0090056D02*
X0077956Y0091558D01*
X0077455Y0091057D01*
X0120964Y0063254D02*
X0121215Y0063504D01*
X0121465Y0063504D01*
X0121715Y0063254D01*
X0121715Y0062753D01*
X0121465Y0062503D01*
X0121215Y0062503D01*
X0120964Y0062753D01*
X0120964Y0063254D01*
X0121715Y0063254D02*
X0121965Y0063504D01*
X0122216Y0063504D01*
X0122466Y0063254D01*
X0122466Y0062753D01*
X0122216Y0062503D01*
X0121965Y0062503D01*
X0121715Y0062753D01*
X0121465Y0062026D02*
X0121965Y0061275D01*
X0122466Y0062026D01*
X0122466Y0061275D02*
X0120964Y0061275D01*
X0120964Y0060803D02*
X0121215Y0060302D01*
X0121715Y0059802D01*
X0121715Y0060553D01*
X0121965Y0060803D01*
X0122216Y0060803D01*
X0122466Y0060553D01*
X0122466Y0060052D01*
X0122216Y0059802D01*
X0121715Y0059802D01*
X0121852Y0053002D02*
X0122353Y0052251D01*
X0122853Y0053002D01*
X0122853Y0052251D02*
X0121352Y0052251D01*
X0121602Y0051779D02*
X0122603Y0050778D01*
X0122853Y0051028D01*
X0122853Y0051529D01*
X0122603Y0051779D01*
X0121602Y0051779D01*
X0121352Y0051529D01*
X0121352Y0051028D01*
X0121602Y0050778D01*
X0122603Y0050778D01*
X0122853Y0050306D02*
X0122853Y0049305D01*
X0122853Y0049805D02*
X0121352Y0049805D01*
X0121852Y0049305D01*
X0121866Y0044814D02*
X0122116Y0044814D01*
X0122366Y0044564D01*
X0122366Y0044063D01*
X0122116Y0043813D01*
X0121866Y0043813D01*
X0121616Y0044063D01*
X0121616Y0044564D01*
X0121866Y0044814D01*
X0122366Y0044564D02*
X0122617Y0044814D01*
X0122867Y0044814D01*
X0123117Y0044564D01*
X0123117Y0044063D01*
X0122867Y0043813D01*
X0122617Y0043813D01*
X0122366Y0044063D01*
X0122366Y0043341D02*
X0122366Y0042340D01*
X0121616Y0043090D01*
X0123117Y0043090D01*
X0123117Y0041867D02*
X0123117Y0040866D01*
X0123117Y0041367D02*
X0121616Y0041367D01*
X0122116Y0040866D01*
X0122366Y0040394D02*
X0122366Y0039393D01*
X0121616Y0040144D01*
X0123117Y0040144D01*
X0123117Y0038921D02*
X0121616Y0038921D01*
X0121616Y0037920D02*
X0123117Y0038921D01*
X0123117Y0037920D02*
X0121616Y0037920D01*
X0121616Y0036947D02*
X0123117Y0036947D01*
X0123117Y0036447D02*
X0123117Y0037448D01*
X0122116Y0036447D02*
X0121616Y0036947D01*
X0173231Y0145214D02*
X0172981Y0145464D01*
X0173231Y0145214D02*
X0173731Y0145214D01*
X0173981Y0145464D01*
X0173981Y0145714D01*
X0173731Y0145964D01*
X0173481Y0145964D01*
X0173731Y0145964D02*
X0173981Y0146215D01*
X0173981Y0146465D01*
X0173731Y0146715D01*
X0173231Y0146715D01*
X0172981Y0146465D01*
X0174454Y0146465D02*
X0174704Y0146715D01*
X0175205Y0146715D01*
X0175455Y0146465D01*
X0175455Y0146215D01*
X0175205Y0145964D01*
X0175455Y0145714D01*
X0175455Y0145464D01*
X0175205Y0145214D01*
X0174704Y0145214D01*
X0174454Y0145464D01*
X0174954Y0145964D02*
X0175205Y0145964D01*
X0175927Y0145464D02*
X0175927Y0146465D01*
X0176177Y0146715D01*
X0176678Y0146715D01*
X0176928Y0146465D01*
X0175927Y0145464D01*
X0176177Y0145214D01*
X0176678Y0145214D01*
X0176928Y0145464D01*
X0176928Y0146465D01*
X0172871Y0186910D02*
X0172370Y0186910D01*
X0172120Y0187160D01*
X0173121Y0188161D01*
X0173121Y0187160D01*
X0172871Y0186910D01*
X0172120Y0187160D02*
X0172120Y0188161D01*
X0172370Y0188412D01*
X0172871Y0188412D01*
X0173121Y0188161D01*
X0171648Y0187661D02*
X0170647Y0187661D01*
X0171398Y0188412D01*
X0171398Y0186910D01*
X0170175Y0186910D02*
X0169174Y0186910D01*
X0169674Y0186910D02*
X0169674Y0188412D01*
X0169174Y0187911D01*
X0168701Y0187911D02*
X0168451Y0187661D01*
X0167700Y0187661D01*
X0167228Y0187411D02*
X0167228Y0187160D01*
X0166978Y0186910D01*
X0166477Y0186910D01*
X0166227Y0187160D01*
X0166477Y0187661D02*
X0166227Y0187911D01*
X0166227Y0188161D01*
X0166477Y0188412D01*
X0166978Y0188412D01*
X0167228Y0188161D01*
X0167700Y0188412D02*
X0168451Y0188412D01*
X0168701Y0188161D01*
X0168701Y0187911D01*
X0168451Y0187661D02*
X0168701Y0187411D01*
X0168701Y0187160D01*
X0168451Y0186910D01*
X0167700Y0186910D01*
X0167700Y0188412D01*
X0166978Y0187661D02*
X0167228Y0187411D01*
X0166978Y0187661D02*
X0166477Y0187661D01*
X0161944Y0187550D02*
X0161694Y0187300D01*
X0161193Y0187300D01*
X0160943Y0187550D01*
X0161944Y0188551D01*
X0161944Y0187550D01*
X0160943Y0187550D02*
X0160943Y0188551D01*
X0161193Y0188801D01*
X0161694Y0188801D01*
X0161944Y0188551D01*
X0160471Y0188051D02*
X0159470Y0188051D01*
X0160220Y0188801D01*
X0160220Y0187300D01*
X0158997Y0187300D02*
X0157997Y0187300D01*
X0158497Y0187300D02*
X0158497Y0188801D01*
X0157997Y0188301D01*
X0157524Y0188301D02*
X0157274Y0188051D01*
X0156523Y0188051D01*
X0156051Y0187800D02*
X0156051Y0187550D01*
X0155801Y0187300D01*
X0155300Y0187300D01*
X0155050Y0187550D01*
X0155300Y0188051D02*
X0155801Y0188051D01*
X0156051Y0187800D01*
X0156523Y0187300D02*
X0156523Y0188801D01*
X0157274Y0188801D01*
X0157524Y0188551D01*
X0157524Y0188301D01*
X0157274Y0188051D02*
X0157524Y0187800D01*
X0157524Y0187550D01*
X0157274Y0187300D01*
X0156523Y0187300D01*
X0156051Y0188551D02*
X0155801Y0188801D01*
X0155300Y0188801D01*
X0155050Y0188551D01*
X0155050Y0188301D01*
X0155300Y0188051D01*
X0148194Y0188551D02*
X0147193Y0187550D01*
X0147443Y0187300D01*
X0147944Y0187300D01*
X0148194Y0187550D01*
X0148194Y0188551D01*
X0147944Y0188801D01*
X0147443Y0188801D01*
X0147193Y0188551D01*
X0147193Y0187550D01*
X0146721Y0188051D02*
X0145720Y0188051D01*
X0146470Y0188801D01*
X0146470Y0187300D01*
X0145247Y0187300D02*
X0144247Y0187300D01*
X0144747Y0187300D02*
X0144747Y0188801D01*
X0144247Y0188301D01*
X0143774Y0188301D02*
X0143524Y0188051D01*
X0142773Y0188051D01*
X0142301Y0187800D02*
X0142301Y0187550D01*
X0142051Y0187300D01*
X0141550Y0187300D01*
X0141300Y0187550D01*
X0141550Y0188051D02*
X0142051Y0188051D01*
X0142301Y0187800D01*
X0142773Y0187300D02*
X0142773Y0188801D01*
X0143524Y0188801D01*
X0143774Y0188551D01*
X0143774Y0188301D01*
X0143524Y0188051D02*
X0143774Y0187800D01*
X0143774Y0187550D01*
X0143524Y0187300D01*
X0142773Y0187300D01*
X0142301Y0188551D02*
X0142051Y0188801D01*
X0141550Y0188801D01*
X0141300Y0188551D01*
X0141300Y0188301D01*
X0141550Y0188051D01*
X0135694Y0188551D02*
X0135694Y0187550D01*
X0135444Y0187300D01*
X0134943Y0187300D01*
X0134693Y0187550D01*
X0135694Y0188551D01*
X0135444Y0188801D01*
X0134943Y0188801D01*
X0134693Y0188551D01*
X0134693Y0187550D01*
X0134221Y0188051D02*
X0133220Y0188051D01*
X0133970Y0188801D01*
X0133970Y0187300D01*
X0132747Y0187300D02*
X0131747Y0187300D01*
X0132247Y0187300D02*
X0132247Y0188801D01*
X0131747Y0188301D01*
X0131274Y0188301D02*
X0131024Y0188051D01*
X0130273Y0188051D01*
X0129801Y0187800D02*
X0129801Y0187550D01*
X0129551Y0187300D01*
X0129050Y0187300D01*
X0128800Y0187550D01*
X0129050Y0188051D02*
X0129551Y0188051D01*
X0129801Y0187800D01*
X0130273Y0187300D02*
X0130273Y0188801D01*
X0131024Y0188801D01*
X0131274Y0188551D01*
X0131274Y0188301D01*
X0131024Y0188051D02*
X0131274Y0187800D01*
X0131274Y0187550D01*
X0131024Y0187300D01*
X0130273Y0187300D01*
X0129801Y0188551D02*
X0129551Y0188801D01*
X0129050Y0188801D01*
X0128800Y0188551D01*
X0128800Y0188301D01*
X0129050Y0188051D01*
X0122845Y0188457D02*
X0122845Y0187456D01*
X0122595Y0187206D01*
X0122095Y0187206D01*
X0121845Y0187456D01*
X0122845Y0188457D01*
X0122595Y0188707D01*
X0122095Y0188707D01*
X0121845Y0188457D01*
X0121845Y0187456D01*
X0121372Y0187956D02*
X0120371Y0187956D01*
X0121122Y0188707D01*
X0121122Y0187206D01*
X0119899Y0187206D02*
X0118898Y0187206D01*
X0119398Y0187206D02*
X0119398Y0188707D01*
X0118898Y0188206D01*
X0118426Y0188206D02*
X0118175Y0187956D01*
X0117425Y0187956D01*
X0116952Y0187706D02*
X0116702Y0187956D01*
X0116202Y0187956D01*
X0115952Y0188206D01*
X0115952Y0188457D01*
X0116202Y0188707D01*
X0116702Y0188707D01*
X0116952Y0188457D01*
X0117425Y0188707D02*
X0118175Y0188707D01*
X0118426Y0188457D01*
X0118426Y0188206D01*
X0118175Y0187956D02*
X0118426Y0187706D01*
X0118426Y0187456D01*
X0118175Y0187206D01*
X0117425Y0187206D01*
X0117425Y0188707D01*
X0116952Y0187706D02*
X0116952Y0187456D01*
X0116702Y0187206D01*
X0116202Y0187206D01*
X0115952Y0187456D01*
X0109828Y0187393D02*
X0109577Y0187143D01*
X0109077Y0187143D01*
X0108827Y0187393D01*
X0109828Y0188394D01*
X0109828Y0187393D01*
X0109828Y0188394D02*
X0109577Y0188644D01*
X0109077Y0188644D01*
X0108827Y0188394D01*
X0108827Y0187393D01*
X0108354Y0187894D02*
X0107353Y0187894D01*
X0108104Y0188644D01*
X0108104Y0187143D01*
X0106881Y0187143D02*
X0105880Y0187143D01*
X0106381Y0187143D02*
X0106381Y0188644D01*
X0105880Y0188144D01*
X0105408Y0188144D02*
X0105158Y0187894D01*
X0104407Y0187894D01*
X0103935Y0187643D02*
X0103684Y0187894D01*
X0103184Y0187894D01*
X0102934Y0188144D01*
X0102934Y0188394D01*
X0103184Y0188644D01*
X0103684Y0188644D01*
X0103935Y0188394D01*
X0104407Y0188644D02*
X0105158Y0188644D01*
X0105408Y0188394D01*
X0105408Y0188144D01*
X0105158Y0187894D02*
X0105408Y0187643D01*
X0105408Y0187393D01*
X0105158Y0187143D01*
X0104407Y0187143D01*
X0104407Y0188644D01*
X0103935Y0187643D02*
X0103935Y0187393D01*
X0103684Y0187143D01*
X0103184Y0187143D01*
X0102934Y0187393D01*
X0080714Y0179055D02*
X0079463Y0179055D01*
X0079213Y0179306D01*
X0079963Y0179306D02*
X0079963Y0178805D01*
X0079963Y0178333D02*
X0080464Y0178333D01*
X0080714Y0178083D01*
X0080714Y0177332D01*
X0081214Y0177332D02*
X0079713Y0177332D01*
X0079713Y0178083D01*
X0079963Y0178333D01*
X0079463Y0176860D02*
X0079213Y0176609D01*
X0079213Y0176109D01*
X0079463Y0175859D01*
X0080464Y0175859D01*
X0079463Y0176860D01*
X0080464Y0176860D01*
X0080714Y0176609D01*
X0080714Y0176109D01*
X0080464Y0175859D01*
X0080714Y0175386D02*
X0080714Y0174385D01*
X0079713Y0175386D01*
X0079463Y0175386D01*
X0079213Y0175136D01*
X0079213Y0174636D01*
X0079463Y0174385D01*
X0079463Y0173913D02*
X0079213Y0173663D01*
X0079213Y0173162D01*
X0079463Y0172912D01*
X0079463Y0173913D02*
X0079713Y0173913D01*
X0080714Y0172912D01*
X0080714Y0173913D01*
X0070714Y0175631D02*
X0069213Y0175631D01*
X0069963Y0174881D01*
X0069963Y0175882D01*
X0070213Y0176354D02*
X0069713Y0177105D01*
X0069213Y0177582D02*
X0069213Y0178583D01*
X0069463Y0178583D01*
X0070464Y0177582D01*
X0070714Y0177582D01*
X0070714Y0177105D02*
X0070213Y0176354D01*
X0070714Y0176354D02*
X0069213Y0176354D01*
X0073684Y0158201D02*
X0073684Y0156700D01*
X0073184Y0156700D02*
X0074185Y0156700D01*
X0074657Y0156950D02*
X0075658Y0157951D01*
X0075658Y0156950D01*
X0075408Y0156700D01*
X0074907Y0156700D01*
X0074657Y0156950D01*
X0074657Y0157951D01*
X0074907Y0158201D01*
X0075408Y0158201D01*
X0075658Y0157951D01*
X0076130Y0157951D02*
X0076380Y0158201D01*
X0076881Y0158201D01*
X0077131Y0157951D01*
X0076130Y0156950D01*
X0076380Y0156700D01*
X0076881Y0156700D01*
X0077131Y0156950D01*
X0077131Y0157951D01*
X0077603Y0157701D02*
X0078354Y0157701D01*
X0078604Y0157451D01*
X0078604Y0156700D01*
X0079077Y0156700D02*
X0079077Y0158201D01*
X0080078Y0158201D01*
X0079577Y0157451D02*
X0079077Y0157451D01*
X0077603Y0157701D02*
X0077603Y0156700D01*
X0076130Y0156950D02*
X0076130Y0157951D01*
X0073684Y0158201D02*
X0073184Y0157701D01*
X0073487Y0214893D02*
X0074488Y0214893D01*
X0074960Y0214893D02*
X0074960Y0216394D01*
X0075711Y0215893D02*
X0074960Y0215393D01*
X0075711Y0214893D01*
X0073987Y0214893D02*
X0073987Y0216394D01*
X0073487Y0215893D01*
X0085748Y0218910D02*
X0085998Y0218660D01*
X0085748Y0218910D02*
X0085748Y0219411D01*
X0085998Y0219661D01*
X0086248Y0219661D01*
X0087249Y0218660D01*
X0087249Y0219661D01*
X0087249Y0220133D02*
X0085748Y0220133D01*
X0086248Y0220884D02*
X0086749Y0220133D01*
X0087249Y0220884D01*
X0087249Y0221361D02*
X0086999Y0221361D01*
X0085998Y0222362D01*
X0085748Y0222362D01*
X0085748Y0221361D01*
D16*
X0107500Y0206500D03*
X0120000Y0206500D03*
X0132500Y0206500D03*
X0145000Y0206500D03*
X0157500Y0206500D03*
X0170000Y0206500D03*
D17*
X0170000Y0212750D03*
X0157500Y0212750D03*
X0145000Y0212750D03*
X0132500Y0212750D03*
X0120000Y0212750D03*
X0107500Y0212750D03*
X0107500Y0189250D03*
X0120000Y0189250D03*
X0132500Y0189250D03*
X0145000Y0189250D03*
X0157500Y0189250D03*
X0170000Y0189250D03*
D18*
X0137618Y0044051D02*
X0134469Y0044051D01*
X0134469Y0037949D01*
X0127382Y0037949D01*
X0127382Y0044051D02*
X0134469Y0044051D01*
X0134469Y0037949D02*
X0137618Y0037949D01*
D19*
X0117763Y0136144D02*
X0115511Y0136144D01*
X0115511Y0140648D01*
X0117763Y0140648D01*
X0118514Y0139897D01*
X0118514Y0136894D01*
X0117763Y0136144D01*
X0113910Y0136894D02*
X0113910Y0137645D01*
X0113159Y0138396D01*
X0110907Y0138396D01*
X0110907Y0136894D01*
X0111658Y0136144D01*
X0113159Y0136144D01*
X0113910Y0136894D01*
X0112409Y0139897D02*
X0110907Y0138396D01*
X0112409Y0139897D02*
X0113910Y0140648D01*
X0109306Y0139897D02*
X0109306Y0136894D01*
X0108555Y0136144D01*
X0107054Y0136144D01*
X0106303Y0136894D01*
X0109306Y0139897D01*
X0108555Y0140648D01*
X0107054Y0140648D01*
X0106303Y0139897D01*
X0106303Y0136894D01*
X0104702Y0136894D02*
X0103951Y0136144D01*
X0102450Y0136144D01*
X0101700Y0136894D01*
X0102450Y0138396D02*
X0103951Y0138396D01*
X0104702Y0137645D01*
X0104702Y0136894D01*
X0104702Y0139897D02*
X0103951Y0140648D01*
X0102450Y0140648D01*
X0101700Y0139897D01*
X0101700Y0139146D01*
X0102450Y0138396D01*
X0100098Y0136144D02*
X0097096Y0136144D01*
X0097096Y0140648D01*
X0095494Y0138396D02*
X0092492Y0138396D01*
X0094744Y0140648D01*
X0094744Y0136144D01*
X0090890Y0139897D02*
X0087888Y0136894D01*
X0087888Y0136144D01*
X0087888Y0140648D02*
X0090890Y0140648D01*
X0090890Y0139897D01*
D20*
X0025000Y0191000D02*
X0002500Y0191000D01*
X0002500Y0201000D02*
X0025000Y0201000D01*
X0025000Y0211000D02*
X0002500Y0211000D01*
X0002500Y0221000D02*
X0025000Y0221000D01*
D21*
X0026500Y0221000D03*
X0026500Y0211000D03*
X0026500Y0201000D03*
X0026500Y0191000D03*
D22*
X0039500Y0191000D03*
X0039500Y0201000D03*
X0039500Y0211000D03*
X0039500Y0221000D03*
D23*
X0147500Y0131000D03*
X0147500Y0121000D03*
X0147500Y0111000D03*
X0147500Y0101000D03*
X0147500Y0091000D03*
X0147500Y0081000D03*
X0147500Y0071000D03*
X0147500Y0061000D03*
X0147500Y0051000D03*
X0147500Y0041000D03*
X0147500Y0031000D03*
X0147500Y0021000D03*
X0147500Y0011000D03*
X0157500Y0011000D03*
X0157500Y0021000D03*
X0157500Y0031000D03*
X0157500Y0041000D03*
X0157500Y0051000D03*
X0157500Y0061000D03*
X0157500Y0071000D03*
X0157500Y0081000D03*
X0157500Y0091000D03*
X0157500Y0101000D03*
X0157500Y0111000D03*
X0157500Y0121000D03*
X0157500Y0131000D03*
D24*
X0175000Y0158000D02*
X0175192Y0158002D01*
X0175384Y0158009D01*
X0175576Y0158021D01*
X0175768Y0158037D01*
X0175959Y0158058D01*
X0176149Y0158083D01*
X0176339Y0158113D01*
X0176528Y0158147D01*
X0176716Y0158186D01*
X0176903Y0158230D01*
X0177089Y0158278D01*
X0177274Y0158330D01*
X0177458Y0158387D01*
X0177640Y0158448D01*
X0177820Y0158514D01*
X0177999Y0158584D01*
X0178177Y0158658D01*
X0178352Y0158736D01*
X0178526Y0158819D01*
X0178697Y0158906D01*
X0178866Y0158996D01*
X0179033Y0159091D01*
X0179198Y0159190D01*
X0179361Y0159293D01*
X0179520Y0159400D01*
X0179678Y0159510D01*
X0179832Y0159624D01*
X0179984Y0159742D01*
X0180133Y0159864D01*
X0180279Y0159989D01*
X0180421Y0160117D01*
X0180561Y0160249D01*
X0180698Y0160384D01*
X0180831Y0160523D01*
X0180961Y0160664D01*
X0181087Y0160809D01*
X0181210Y0160957D01*
X0181329Y0161107D01*
X0181445Y0161261D01*
X0181557Y0161417D01*
X0181665Y0161576D01*
X0181770Y0161737D01*
X0181870Y0161901D01*
X0181966Y0162067D01*
X0182059Y0162235D01*
X0181946Y0169969D02*
X0181847Y0170138D01*
X0181743Y0170304D01*
X0181636Y0170468D01*
X0181525Y0170629D01*
X0181410Y0170787D01*
X0181291Y0170942D01*
X0181168Y0171095D01*
X0181042Y0171244D01*
X0180912Y0171390D01*
X0180778Y0171533D01*
X0180641Y0171673D01*
X0180501Y0171809D01*
X0180357Y0171942D01*
X0180210Y0172071D01*
X0180060Y0172197D01*
X0179907Y0172318D01*
X0179751Y0172437D01*
X0179592Y0172551D01*
X0179431Y0172661D01*
X0179266Y0172767D01*
X0179100Y0172870D01*
X0178930Y0172968D01*
X0178759Y0173062D01*
X0178585Y0173152D01*
X0178409Y0173237D01*
X0178231Y0173319D01*
X0178051Y0173395D01*
X0177869Y0173468D01*
X0177686Y0173536D01*
X0177501Y0173599D01*
X0177314Y0173658D01*
X0177126Y0173712D01*
X0176937Y0173762D01*
X0176747Y0173807D01*
X0176555Y0173847D01*
X0176363Y0173883D01*
X0176170Y0173914D01*
X0175976Y0173940D01*
X0175781Y0173962D01*
X0175586Y0173978D01*
X0175391Y0173990D01*
X0175195Y0173998D01*
X0175000Y0174000D01*
X0174807Y0173998D01*
X0174614Y0173991D01*
X0174422Y0173979D01*
X0174229Y0173963D01*
X0174037Y0173942D01*
X0173846Y0173916D01*
X0173656Y0173886D01*
X0173466Y0173851D01*
X0173277Y0173812D01*
X0173089Y0173768D01*
X0172902Y0173720D01*
X0172716Y0173667D01*
X0172532Y0173610D01*
X0172349Y0173548D01*
X0172168Y0173482D01*
X0171988Y0173411D01*
X0171810Y0173337D01*
X0171634Y0173258D01*
X0171460Y0173174D01*
X0171288Y0173087D01*
X0171118Y0172995D01*
X0170951Y0172899D01*
X0170785Y0172800D01*
X0170622Y0172696D01*
X0170462Y0172589D01*
X0170305Y0172477D01*
X0170150Y0172362D01*
X0169998Y0172243D01*
X0169849Y0172121D01*
X0169702Y0171995D01*
X0169559Y0171865D01*
X0169419Y0171732D01*
X0169283Y0171596D01*
X0169149Y0171456D01*
X0169020Y0171314D01*
X0168893Y0171168D01*
X0168854Y0160878D02*
X0168981Y0160730D01*
X0169111Y0160585D01*
X0169244Y0160444D01*
X0169381Y0160305D01*
X0169521Y0160170D01*
X0169665Y0160039D01*
X0169812Y0159911D01*
X0169961Y0159786D01*
X0170114Y0159665D01*
X0170269Y0159548D01*
X0170428Y0159435D01*
X0170589Y0159326D01*
X0170753Y0159221D01*
X0170919Y0159119D01*
X0171088Y0159022D01*
X0171258Y0158929D01*
X0171432Y0158840D01*
X0171607Y0158755D01*
X0171784Y0158675D01*
X0171963Y0158599D01*
X0172144Y0158527D01*
X0172327Y0158460D01*
X0172511Y0158397D01*
X0172697Y0158339D01*
X0172884Y0158285D01*
X0173072Y0158236D01*
X0173262Y0158191D01*
X0173452Y0158151D01*
X0173644Y0158116D01*
X0173836Y0158085D01*
X0174029Y0158059D01*
X0174223Y0158038D01*
X0174417Y0158021D01*
X0174611Y0158009D01*
X0174805Y0158002D01*
X0175000Y0158000D01*
D25*
X0068750Y0233500D03*
M02*
