%
M48
M72
T01C0.02362
T02C0.03150
T03C0.03200
T04C0.04000
T05C0.11811
%
T01
X87500Y158500
X92500Y158500
X97500Y158500
T02
X70000Y31000
X90000Y51000
X122500Y83500
X125000Y113500
X117500Y113500
X97500Y98500
X82500Y93500
X62500Y98500
X87500Y118500
X77500Y131000
X70000Y141000
X60000Y148500
X55000Y156000
X95000Y181000
X117500Y168500
X127500Y156000
X137500Y136000
T03
X57500Y233500
X87500Y233500
T04
X37500Y11000
X37500Y21000
X37500Y31000
X37500Y41000
X37500Y51000
X37500Y61000
X37500Y71000
X37500Y81000
X37500Y91000
X37500Y101000
X37500Y111000
X37500Y121000
X37500Y131000
X37500Y141000
X37500Y151000
X37500Y161000
X37500Y171000
X47500Y171000
X47500Y161000
X47500Y151000
X47500Y141000
X47500Y131000
X47500Y121000
X47500Y111000
X47500Y101000
X47500Y91000
X47500Y81000
X47500Y71000
X47500Y61000
X47500Y51000
X47500Y41000
X47500Y31000
X47500Y21000
X47500Y11000
X147500Y11000
X147500Y21000
X147500Y31000
X147500Y41000
X147500Y51000
X147500Y61000
X147500Y71000
X147500Y81000
X147500Y91000
X147500Y101000
X147500Y111000
X147500Y121000
X147500Y131000
X157500Y131000
X157500Y121000
X157500Y111000
X157500Y101000
X157500Y91000
X157500Y81000
X157500Y71000
X157500Y61000
X157500Y51000
X157500Y41000
X157500Y31000
X157500Y21000
X157500Y11000
X172500Y71000
X172500Y81000
X172500Y91000
X45000Y221000
X45000Y211000
X45000Y201000
X45000Y191000
T05
X110177Y235055
X110177Y11000
M30
